M48
METRIC,LZ,000.000
;FILE_FORMAT=3:3
;TYPE=PLATED
;Layer: PTH_Through_Via
;EasyEDA v6.5.50, 2025-07-27 16:18:48
;6265f8cd8a4c44cf81f9f4f73efdf9d8,5db155e37078497989a25cdeaf243bf5,10
;Gerber Generator version 0.2
;Holesize 1 = 0.310 mm
T01C0.310
;Holesize 2 = 0.400 mm
T02C0.400
;Holesize 3 = 0.501 mm
T03C0.501
%
G05
G90
T01
X005900Y054300
X010700Y047900
X013800Y014700
X021800Y055500
X030500Y053500
X029700Y049500
X019400Y049600
X003500Y039800
X026200Y055500
X028500Y036400
X025100Y036500
X030400Y045200
X033700Y043300
X030500Y047900
X030400Y058000
X036000Y058900
X001200Y056900
X001100Y046200
X009700Y016200
X021200Y020000
X007300Y032800
X007500Y048000
X001300Y051500
X014700Y048000
T02
X002600Y046200
T03
X024700Y024100
X020400Y043600
X022000Y030300
X022000Y024000
X031200Y017400
X034300Y022300
X001200Y021400
X009500Y035600
X004700Y047900
X016600Y047900
X003300Y059200
X018100Y059200
X012500Y044700
X015300Y043800
X025800Y011500
M30
