G04 Layer: TopSolderMaskLayer*
G04 EasyEDA v6.5.50, 2025-07-26 22:59:10*
G04 d3ad3de2fa044d29b599307ff273c28a,5db155e37078497989a25cdeaf243bf5,10*
G04 Gerber Generator version 0.2*
G04 Scale: 100 percent, Rotated: No, Reflected: No *
G04 Dimensions in millimeters *
G04 leading zeros omitted , absolute positions ,4 integer and 5 decimal *
%FSLAX45Y45*%
%MOMM*%

%AMMACRO1*4,1,8,-0.8711,-0.9008,-0.9008,-0.871,-0.9008,0.8711,-0.8711,0.9008,0.871,0.9008,0.9008,0.8711,0.9008,-0.871,0.871,-0.9008,-0.8711,-0.9008,0*%
%AMMACRO2*4,1,8,-2.1211,-0.7508,-2.1508,-0.721,-2.1508,0.7211,-2.1211,0.7508,2.121,0.7508,2.1508,0.7211,2.1508,-0.721,2.121,-0.7508,-2.1211,-0.7508,0*%
%AMMACRO3*4,1,8,-0.4211,-0.5008,-0.4508,-0.471,-0.4508,0.4711,-0.4211,0.5008,0.421,0.5008,0.4508,0.4711,0.4508,-0.471,0.421,-0.5008,-0.4211,-0.5008,0*%
%AMMACRO4*4,1,8,-0.8611,-0.8108,-0.8908,-0.781,-0.8908,0.7811,-0.8611,0.8108,0.861,0.8108,0.8908,0.7811,0.8908,-0.781,0.861,-0.8108,-0.8611,-0.8108,0*%
%AMMACRO5*4,1,8,-0.557,-0.3168,-0.5868,-0.287,-0.5868,0.287,-0.557,0.3168,0.557,0.3168,0.5868,0.287,0.5868,-0.287,0.557,-0.3168,-0.557,-0.3168,0*%
%AMMACRO6*4,1,8,-2.1211,-1.0258,-2.1508,-0.996,-2.1508,0.9961,-2.1211,1.0258,2.121,1.0258,2.1508,0.9961,2.1508,-0.996,2.121,-1.0258,-2.1211,-1.0258,0*%
%AMMACRO7*4,1,8,-0.8086,-0.3868,-0.8383,-0.357,-0.8383,0.357,-0.8086,0.3868,0.8085,0.3868,0.8383,0.357,0.8383,-0.357,0.8085,-0.3868,-0.8086,-0.3868,0*%
%AMMACRO8*4,1,8,-0.4531,-0.454,-0.4828,-0.4243,-0.4828,0.4243,-0.4531,0.454,0.453,0.454,0.4828,0.4243,0.4828,-0.4243,0.453,-0.454,-0.4531,-0.454,0*%
%AMMACRO9*4,1,8,-0.4207,-0.25,-0.45,-0.2207,-0.45,0.2207,-0.4207,0.25,0.4207,0.25,0.45,0.2207,0.45,-0.2207,0.4207,-0.25,-0.4207,-0.25,0*%
%AMMACRO10*4,1,8,-0.2207,-0.45,-0.25,-0.4207,-0.25,0.4207,-0.2207,0.45,0.2207,0.45,0.25,0.4207,0.25,-0.4207,0.2207,-0.45,-0.2207,-0.45,0*%
%AMMACRO11*4,1,8,-0.3707,-0.4,-0.4,-0.3707,-0.4,0.3707,-0.3707,0.4,0.3707,0.4,0.4,0.3707,0.4,-0.3707,0.3707,-0.4,-0.3707,-0.4,0*%
%AMMACRO12*4,1,8,-0.7457,-0.775,-0.775,-0.7457,-0.775,0.7457,-0.7457,0.775,0.7457,0.775,0.775,0.7457,0.775,-0.7457,0.7457,-0.775,-0.7457,-0.775,0*%
%AMMACRO13*4,1,8,-0.3322,-0.6033,-0.3619,-0.5735,-0.3619,0.5735,-0.3322,0.6033,0.3322,0.6033,0.3619,0.5735,0.3619,-0.5735,0.3322,-0.6033,-0.3322,-0.6033,0*%
%AMMACRO14*4,1,8,-0.3322,-0.6033,-0.362,-0.5735,-0.362,0.5735,-0.3322,0.6033,0.3322,0.6033,0.362,0.5735,0.362,-0.5735,0.3322,-0.6033,-0.3322,-0.6033,0*%
%AMMACRO15*4,1,8,-0.6257,-0.2,-0.655,-0.1707,-0.655,0.1707,-0.6257,0.2,0.6257,0.2,0.655,0.1707,0.655,-0.1707,0.6257,-0.2,-0.6257,-0.2,0*%
%AMMACRO16*4,1,8,-0.7742,-1.2388,-0.8039,-1.209,-0.8039,1.2091,-0.7742,1.2388,0.7742,1.2388,0.8039,1.2091,0.8039,-1.209,0.7742,-1.2388,-0.7742,-1.2388,0*%
%AMMACRO17*4,1,8,-1.0207,-1.05,-1.05,-1.0207,-1.05,1.0207,-1.0207,1.05,1.0207,1.05,1.05,1.0207,1.05,-1.0207,1.0207,-1.05,-1.0207,-1.05,0*%
%AMMACRO18*4,1,8,-0.4243,-0.4828,-0.454,-0.453,-0.454,0.4531,-0.4243,0.4828,0.4243,0.4828,0.454,0.4531,0.454,-0.453,0.4243,-0.4828,-0.4243,-0.4828,0*%
%AMMACRO19*4,1,8,-0.4711,-0.4508,-0.5008,-0.421,-0.5008,0.4211,-0.4711,0.4508,0.471,0.4508,0.5008,0.4211,0.5008,-0.421,0.471,-0.4508,-0.4711,-0.4508,0*%
%AMMACRO20*4,1,8,-0.5711,-1.3008,-0.6008,-1.271,-0.6008,1.2711,-0.5711,1.3008,0.571,1.3008,0.6008,1.2711,0.6008,-1.271,0.571,-1.3008,-0.5711,-1.3008,0*%
%ADD10MACRO1*%
%ADD11C,1.8016*%
%ADD12MACRO2*%
%ADD13MACRO3*%
%ADD14MACRO4*%
%ADD15MACRO5*%
%ADD16MACRO6*%
%ADD17MACRO7*%
%ADD18MACRO8*%
%ADD19MACRO9*%
%ADD20MACRO10*%
%ADD21MACRO11*%
%ADD22MACRO12*%
%ADD23O,2.051812X0.6700012*%
%ADD24MACRO13*%
%ADD25MACRO14*%
%ADD26MACRO15*%
%ADD27O,2.3015956X1.2015978000000003*%
%ADD28O,2.4015954X1.2015978000000003*%
%ADD29MACRO16*%
%ADD30C,2.5016*%
%ADD31C,2.1000*%
%ADD32C,2.1000*%
%ADD33MACRO17*%
%ADD34MACRO18*%
%ADD35MACRO19*%
%ADD36MACRO20*%
%ADD37C,0.0187*%

%LPD*%
D10*
G01*
X3669992Y4064993D03*
D11*
G01*
X3669995Y3810990D03*
G01*
X3669995Y3556990D03*
G01*
X3669995Y3302990D03*
G01*
X3669995Y3048990D03*
G01*
X3669995Y2794990D03*
D12*
G01*
X2473285Y2229995D03*
G01*
X3126703Y2229995D03*
D13*
G01*
X2119995Y1869996D03*
G01*
X2259995Y1869996D03*
G01*
X579998Y3279993D03*
G01*
X439999Y3279993D03*
G01*
X119999Y4479991D03*
G01*
X259999Y4479991D03*
G01*
X119999Y5369989D03*
G01*
X259999Y5369989D03*
G01*
X119997Y5549990D03*
G01*
X259976Y5549990D03*
D14*
G01*
X449999Y2673494D03*
G01*
X449999Y3066493D03*
D15*
G01*
X2514904Y5454992D03*
G01*
X2514904Y5549988D03*
G01*
X2514904Y5644984D03*
G01*
X2285085Y5644984D03*
G01*
X2285085Y5549988D03*
G01*
X2285085Y5454992D03*
D16*
G01*
X1659996Y1602496D03*
G01*
X1659996Y1897496D03*
D17*
G01*
X1125628Y1160010D03*
G01*
X1125628Y1460009D03*
G36*
X761677Y1209977D02*
G01*
X761558Y1209979D01*
X757105Y1210086D01*
X756874Y1210096D01*
X752431Y1210409D01*
X752198Y1210429D01*
X747773Y1210950D01*
X747542Y1210983D01*
X743148Y1211709D01*
X742914Y1211755D01*
X738558Y1212689D01*
X738332Y1212743D01*
X734026Y1213878D01*
X733800Y1213944D01*
X729551Y1215280D01*
X729330Y1215356D01*
X725149Y1216891D01*
X724928Y1216977D01*
X720824Y1218707D01*
X720613Y1218801D01*
X716592Y1220718D01*
X716381Y1220825D01*
X712457Y1222931D01*
X712254Y1223048D01*
X708431Y1225336D01*
X708233Y1225461D01*
X704522Y1227924D01*
X704331Y1228056D01*
X700740Y1230690D01*
X700552Y1230835D01*
X697090Y1233634D01*
X696909Y1233787D01*
X693580Y1236748D01*
X693409Y1236908D01*
X690224Y1240020D01*
X690062Y1240185D01*
X687024Y1243444D01*
X686866Y1243619D01*
X683986Y1247015D01*
X683839Y1247198D01*
X681121Y1250726D01*
X680984Y1250916D01*
X678434Y1254569D01*
X678301Y1254765D01*
X675927Y1258531D01*
X675807Y1258732D01*
X673610Y1262608D01*
X673501Y1262814D01*
X671487Y1266786D01*
X671385Y1267000D01*
X669561Y1271064D01*
X669470Y1271277D01*
X667837Y1275420D01*
X667755Y1275643D01*
X666320Y1279860D01*
X666249Y1280081D01*
X665012Y1284361D01*
X664954Y1284589D01*
X663920Y1288922D01*
X663872Y1289151D01*
X663041Y1293525D01*
X663000Y1293756D01*
X662376Y1298168D01*
X662350Y1298402D01*
X661934Y1302837D01*
X661916Y1303070D01*
X661708Y1307518D01*
X661703Y1307752D01*
X661703Y1312207D01*
X661708Y1312440D01*
X661916Y1316888D01*
X661934Y1317122D01*
X662350Y1321556D01*
X662376Y1321790D01*
X663000Y1326202D01*
X663041Y1326433D01*
X663872Y1330807D01*
X663920Y1331036D01*
X664954Y1335369D01*
X665012Y1335598D01*
X666249Y1339877D01*
X666320Y1340098D01*
X667755Y1344315D01*
X667837Y1344538D01*
X669470Y1348681D01*
X669561Y1348894D01*
X671385Y1352958D01*
X671487Y1353172D01*
X673501Y1357144D01*
X673610Y1357350D01*
X675807Y1361226D01*
X675927Y1361427D01*
X678301Y1365194D01*
X678434Y1365389D01*
X680984Y1369042D01*
X681121Y1369232D01*
X683839Y1372760D01*
X683986Y1372943D01*
X686866Y1376339D01*
X687024Y1376514D01*
X690062Y1379773D01*
X690224Y1379938D01*
X693409Y1383050D01*
X693580Y1383210D01*
X696909Y1386171D01*
X697090Y1386324D01*
X700552Y1389123D01*
X700740Y1389268D01*
X704331Y1391902D01*
X704522Y1392034D01*
X708233Y1394498D01*
X708431Y1394622D01*
X712254Y1396911D01*
X712457Y1397027D01*
X716381Y1399133D01*
X716592Y1399240D01*
X720613Y1401157D01*
X720824Y1401251D01*
X724928Y1402981D01*
X725149Y1403068D01*
X729330Y1404602D01*
X729551Y1404678D01*
X733800Y1406014D01*
X734026Y1406080D01*
X738332Y1407215D01*
X738558Y1407269D01*
X742914Y1408203D01*
X743148Y1408249D01*
X747542Y1408976D01*
X747773Y1409009D01*
X752198Y1409529D01*
X752431Y1409550D01*
X756874Y1409862D01*
X757105Y1409872D01*
X761558Y1409979D01*
X761677Y1409981D01*
X947097Y1409981D01*
X947216Y1409979D01*
X951669Y1409872D01*
X951900Y1409862D01*
X956343Y1409550D01*
X956576Y1409529D01*
X961001Y1409009D01*
X961232Y1408976D01*
X965626Y1408249D01*
X965860Y1408203D01*
X970216Y1407269D01*
X970442Y1407215D01*
X974747Y1406080D01*
X974973Y1406014D01*
X979223Y1404678D01*
X979444Y1404602D01*
X983625Y1403068D01*
X983846Y1402981D01*
X987950Y1401251D01*
X988161Y1401157D01*
X992182Y1399240D01*
X992393Y1399133D01*
X996317Y1397027D01*
X996520Y1396911D01*
X1000343Y1394622D01*
X1000541Y1394498D01*
X1004252Y1392034D01*
X1004443Y1391902D01*
X1008034Y1389268D01*
X1008222Y1389123D01*
X1011684Y1386324D01*
X1011864Y1386171D01*
X1015194Y1383210D01*
X1015364Y1383050D01*
X1018550Y1379938D01*
X1018712Y1379773D01*
X1021750Y1376514D01*
X1021908Y1376339D01*
X1024788Y1372943D01*
X1024935Y1372760D01*
X1027653Y1369232D01*
X1027790Y1369042D01*
X1030340Y1365389D01*
X1030472Y1365194D01*
X1032847Y1361427D01*
X1032967Y1361226D01*
X1035164Y1357350D01*
X1035273Y1357144D01*
X1037287Y1353172D01*
X1037391Y1352953D01*
X1037485Y1352730D01*
X1037569Y1352501D01*
X1037640Y1352268D01*
X1037701Y1352031D01*
X1038633Y1347983D01*
X1204384Y1347983D01*
X1204874Y1347960D01*
X1205359Y1347886D01*
X1205837Y1347767D01*
X1206299Y1347602D01*
X1206741Y1347393D01*
X1207162Y1347139D01*
X1207556Y1346847D01*
X1207919Y1346517D01*
X1208250Y1346154D01*
X1208542Y1345760D01*
X1208796Y1345338D01*
X1209004Y1344896D01*
X1209169Y1344434D01*
X1209288Y1343957D01*
X1209362Y1343472D01*
X1209385Y1342981D01*
X1209385Y1276982D01*
X1209362Y1276492D01*
X1209288Y1276007D01*
X1209169Y1275529D01*
X1209004Y1275067D01*
X1208796Y1274625D01*
X1208542Y1274203D01*
X1208250Y1273810D01*
X1207919Y1273446D01*
X1207556Y1273116D01*
X1207162Y1272824D01*
X1206741Y1272570D01*
X1206299Y1272362D01*
X1205837Y1272197D01*
X1205359Y1272077D01*
X1204874Y1272004D01*
X1204384Y1271981D01*
X1038633Y1271981D01*
X1037701Y1267927D01*
X1037640Y1267691D01*
X1037569Y1267460D01*
X1037485Y1267228D01*
X1037391Y1267005D01*
X1037287Y1266786D01*
X1035273Y1262814D01*
X1035164Y1262608D01*
X1032967Y1258732D01*
X1032847Y1258531D01*
X1030472Y1254765D01*
X1030340Y1254569D01*
X1027790Y1250916D01*
X1027653Y1250726D01*
X1024935Y1247198D01*
X1024788Y1247015D01*
X1021908Y1243619D01*
X1021750Y1243444D01*
X1018712Y1240185D01*
X1018550Y1240020D01*
X1015364Y1236908D01*
X1015194Y1236748D01*
X1011864Y1233787D01*
X1011684Y1233634D01*
X1008222Y1230835D01*
X1008034Y1230690D01*
X1004443Y1228056D01*
X1004252Y1227924D01*
X1000541Y1225461D01*
X1000343Y1225336D01*
X996520Y1223048D01*
X996317Y1222931D01*
X992393Y1220825D01*
X992182Y1220718D01*
X988161Y1218801D01*
X987950Y1218707D01*
X983846Y1216977D01*
X983625Y1216891D01*
X979444Y1215356D01*
X979223Y1215280D01*
X974973Y1213944D01*
X974747Y1213878D01*
X970442Y1212743D01*
X970216Y1212689D01*
X965860Y1211755D01*
X965626Y1211709D01*
X961232Y1210983D01*
X961001Y1210950D01*
X956576Y1210429D01*
X956343Y1210409D01*
X951900Y1210096D01*
X951669Y1210086D01*
X947216Y1209979D01*
X947097Y1209977D01*
G37*
D18*
G01*
X1029997Y1684671D03*
G01*
X1029997Y1835321D03*
G01*
X1379997Y1325322D03*
G01*
X1379997Y1174672D03*
G01*
X3479993Y4485316D03*
G01*
X3479993Y4334666D03*
G01*
X3479993Y5885313D03*
G01*
X3479993Y5734663D03*
D19*
G01*
X479999Y5829988D03*
G01*
X479999Y5749988D03*
G01*
X479999Y5669988D03*
G01*
X479999Y5589988D03*
G01*
X479999Y5509988D03*
G01*
X479999Y5429989D03*
G01*
X479999Y5349989D03*
G01*
X479999Y5269989D03*
G01*
X479999Y5189989D03*
G01*
X479999Y5109989D03*
G01*
X479999Y5029989D03*
D20*
G01*
X589998Y4939990D03*
G01*
X669998Y4939990D03*
G01*
X749998Y4939990D03*
G01*
X829998Y4939990D03*
G01*
X909998Y4939990D03*
G01*
X989998Y4939990D03*
G01*
X1069997Y4939990D03*
G01*
X1149997Y4939990D03*
G01*
X1229997Y4939990D03*
G01*
X1309997Y4939990D03*
G01*
X1389997Y4939990D03*
G01*
X1469997Y4939990D03*
G01*
X1549996Y4939990D03*
D19*
G01*
X1659996Y5029989D03*
G01*
X1659996Y5109989D03*
G01*
X1659996Y5189989D03*
G01*
X1659996Y5269989D03*
G01*
X1659996Y5349989D03*
G01*
X1659996Y5429989D03*
G01*
X1659996Y5509988D03*
G01*
X1659996Y5589988D03*
G01*
X1659996Y5669988D03*
G01*
X1659996Y5749988D03*
G01*
X1659996Y5829988D03*
D20*
G01*
X1549996Y5919988D03*
G01*
X1469997Y5919988D03*
G01*
X1389997Y5919988D03*
G01*
X1309997Y5919988D03*
G01*
X1229997Y5919988D03*
G01*
X1149997Y5919988D03*
G01*
X1069997Y5919988D03*
G01*
X989998Y5919988D03*
G01*
X909998Y5919988D03*
G01*
X829998Y5919988D03*
G01*
X749998Y5919988D03*
G01*
X669998Y5919988D03*
G01*
X589998Y5919988D03*
D21*
G01*
X1664997Y5924989D03*
G01*
X1664997Y4934988D03*
G01*
X474997Y4934988D03*
G01*
X474997Y5924989D03*
G36*
X799985Y5549983D02*
G01*
X799495Y5550006D01*
X799010Y5550080D01*
X798532Y5550199D01*
X798070Y5550364D01*
X797628Y5550573D01*
X797206Y5550827D01*
X796813Y5551119D01*
X796450Y5551449D01*
X796119Y5551812D01*
X795827Y5552206D01*
X795573Y5552627D01*
X795365Y5553069D01*
X795200Y5553532D01*
X795080Y5554009D01*
X795007Y5554494D01*
X794984Y5554985D01*
X794984Y5639983D01*
X795014Y5640542D01*
X795108Y5641096D01*
X795263Y5641634D01*
X795479Y5642152D01*
X795751Y5642645D01*
X796076Y5643102D01*
X796450Y5643519D01*
X856449Y5703519D01*
X856866Y5703892D01*
X857323Y5704217D01*
X857816Y5704489D01*
X858334Y5704705D01*
X858873Y5704860D01*
X859426Y5704954D01*
X859985Y5704984D01*
X944984Y5704984D01*
X945474Y5704961D01*
X945959Y5704888D01*
X946437Y5704768D01*
X946899Y5704603D01*
X947341Y5704395D01*
X947762Y5704141D01*
X948156Y5703849D01*
X948519Y5703519D01*
X948850Y5703155D01*
X949142Y5702762D01*
X949396Y5702340D01*
X949604Y5701898D01*
X949769Y5701436D01*
X949888Y5700958D01*
X949962Y5700473D01*
X949985Y5699983D01*
X949985Y5554985D01*
X949962Y5554494D01*
X949888Y5554009D01*
X949769Y5553532D01*
X949604Y5553069D01*
X949396Y5552627D01*
X949142Y5552206D01*
X948850Y5551812D01*
X948519Y5551449D01*
X948156Y5551119D01*
X947762Y5550827D01*
X947341Y5550573D01*
X946899Y5550364D01*
X946437Y5550199D01*
X945959Y5550080D01*
X945474Y5550006D01*
X944984Y5549983D01*
G37*
D22*
G01*
X1267485Y5232483D03*
G01*
X1069985Y5232483D03*
G01*
X872484Y5232483D03*
G01*
X872484Y5429984D03*
G01*
X1069985Y5627484D03*
G01*
X1267485Y5627484D03*
G01*
X1267485Y5429984D03*
G01*
X1069985Y5429984D03*
D23*
G01*
X2579497Y1640484D03*
G01*
X2579497Y1513484D03*
G01*
X2579497Y1386484D03*
G01*
X2579497Y1259484D03*
G01*
X3120516Y1640484D03*
G01*
X3120516Y1513484D03*
G01*
X3120516Y1386484D03*
G01*
X3120516Y1259484D03*
D24*
G01*
X444972Y4349993D03*
G01*
X255023Y4349993D03*
G01*
X255021Y4089989D03*
D25*
G01*
X349935Y4089989D03*
D24*
G01*
X444967Y4089991D03*
D26*
G01*
X3192362Y5284970D03*
G01*
X3192362Y5234932D03*
G01*
X3192362Y5184970D03*
G01*
X3192362Y5134957D03*
G01*
X3192362Y5084970D03*
G01*
X3192362Y5034958D03*
G01*
X3192362Y4984970D03*
G01*
X3192362Y4934958D03*
G36*
X3131860Y4754963D02*
G01*
X3131370Y4754989D01*
X3130885Y4755060D01*
X3130410Y4755179D01*
X3129948Y4755344D01*
X3129503Y4755555D01*
X3129081Y4755807D01*
X3128688Y4756099D01*
X3128324Y4756429D01*
X3127994Y4756792D01*
X3127702Y4757186D01*
X3127451Y4757607D01*
X3127240Y4758052D01*
X3127075Y4758514D01*
X3126955Y4758989D01*
X3126884Y4759474D01*
X3126859Y4759965D01*
X3126861Y4759965D01*
X3126861Y4819962D01*
X3126859Y4819962D01*
X3126884Y4820452D01*
X3126955Y4820937D01*
X3127075Y4821412D01*
X3127240Y4821875D01*
X3127451Y4822319D01*
X3127702Y4822741D01*
X3127994Y4823134D01*
X3128324Y4823498D01*
X3128688Y4823828D01*
X3129081Y4824120D01*
X3129503Y4824371D01*
X3129948Y4824582D01*
X3130410Y4824747D01*
X3130885Y4824867D01*
X3131370Y4824938D01*
X3131860Y4824963D01*
X3131860Y4824961D01*
X3252861Y4824961D01*
X3252861Y4824963D01*
X3253351Y4824938D01*
X3253836Y4824867D01*
X3254311Y4824747D01*
X3254773Y4824582D01*
X3255218Y4824371D01*
X3255639Y4824120D01*
X3256033Y4823828D01*
X3256396Y4823498D01*
X3256727Y4823134D01*
X3257019Y4822741D01*
X3257270Y4822319D01*
X3257481Y4821875D01*
X3257646Y4821412D01*
X3257765Y4820937D01*
X3257837Y4820452D01*
X3257862Y4819962D01*
X3257862Y4759965D01*
X3257837Y4759474D01*
X3257765Y4758989D01*
X3257646Y4758514D01*
X3257481Y4758052D01*
X3257270Y4757607D01*
X3257019Y4757186D01*
X3256727Y4756792D01*
X3256396Y4756429D01*
X3256033Y4756099D01*
X3255639Y4755807D01*
X3255218Y4755555D01*
X3254773Y4755344D01*
X3254311Y4755179D01*
X3253836Y4755060D01*
X3253351Y4754989D01*
X3252861Y4754963D01*
G37*
G36*
X3131860Y4834973D02*
G01*
X3131370Y4834999D01*
X3130885Y4835070D01*
X3130410Y4835189D01*
X3129948Y4835354D01*
X3129503Y4835565D01*
X3129081Y4835817D01*
X3128688Y4836109D01*
X3128324Y4836439D01*
X3127994Y4836802D01*
X3127702Y4837196D01*
X3127451Y4837617D01*
X3127240Y4838062D01*
X3127075Y4838524D01*
X3126955Y4838999D01*
X3126884Y4839484D01*
X3126859Y4839975D01*
X3126861Y4839975D01*
X3126861Y4899972D01*
X3126859Y4899972D01*
X3126884Y4900462D01*
X3126955Y4900947D01*
X3127075Y4901422D01*
X3127240Y4901885D01*
X3127451Y4902329D01*
X3127702Y4902751D01*
X3127994Y4903144D01*
X3128324Y4903508D01*
X3128688Y4903838D01*
X3129081Y4904130D01*
X3129503Y4904381D01*
X3129948Y4904592D01*
X3130410Y4904757D01*
X3130885Y4904877D01*
X3131370Y4904948D01*
X3131860Y4904973D01*
X3131860Y4904971D01*
X3252861Y4904971D01*
X3252861Y4904973D01*
X3253351Y4904948D01*
X3253836Y4904877D01*
X3254311Y4904757D01*
X3254773Y4904592D01*
X3255218Y4904381D01*
X3255639Y4904130D01*
X3256033Y4903838D01*
X3256396Y4903508D01*
X3256727Y4903144D01*
X3257019Y4902751D01*
X3257270Y4902329D01*
X3257481Y4901885D01*
X3257646Y4901422D01*
X3257765Y4900947D01*
X3257837Y4900462D01*
X3257862Y4899972D01*
X3257862Y4839975D01*
X3257837Y4839484D01*
X3257765Y4838999D01*
X3257646Y4838524D01*
X3257481Y4838062D01*
X3257270Y4837617D01*
X3257019Y4837196D01*
X3256727Y4836802D01*
X3256396Y4836439D01*
X3256033Y4836109D01*
X3255639Y4835817D01*
X3255218Y4835565D01*
X3254773Y4835354D01*
X3254311Y4835189D01*
X3253836Y4835070D01*
X3253351Y4834999D01*
X3252861Y4834973D01*
G37*
G36*
X3131860Y5314960D02*
G01*
X3131370Y5314985D01*
X3130885Y5315056D01*
X3130410Y5315176D01*
X3129948Y5315341D01*
X3129503Y5315551D01*
X3129081Y5315803D01*
X3128688Y5316095D01*
X3128324Y5316425D01*
X3127994Y5316788D01*
X3127702Y5317182D01*
X3127451Y5317604D01*
X3127240Y5318048D01*
X3127075Y5318511D01*
X3126955Y5318986D01*
X3126884Y5319471D01*
X3126859Y5319961D01*
X3126861Y5319961D01*
X3126861Y5379956D01*
X3126859Y5379956D01*
X3126884Y5380446D01*
X3126955Y5380931D01*
X3127075Y5381406D01*
X3127240Y5381868D01*
X3127451Y5382313D01*
X3127702Y5382734D01*
X3127994Y5383128D01*
X3128324Y5383491D01*
X3128688Y5383822D01*
X3129081Y5384114D01*
X3129503Y5384365D01*
X3129948Y5384576D01*
X3130410Y5384741D01*
X3130885Y5384860D01*
X3131370Y5384932D01*
X3131860Y5384957D01*
X3131860Y5384954D01*
X3252863Y5384954D01*
X3252863Y5384957D01*
X3253353Y5384932D01*
X3253839Y5384860D01*
X3254314Y5384741D01*
X3254776Y5384576D01*
X3255220Y5384365D01*
X3255642Y5384114D01*
X3256036Y5383822D01*
X3256399Y5383491D01*
X3256729Y5383128D01*
X3257021Y5382734D01*
X3257273Y5382313D01*
X3257483Y5381868D01*
X3257649Y5381406D01*
X3257768Y5380931D01*
X3257839Y5380446D01*
X3257864Y5379956D01*
X3257864Y5319961D01*
X3257839Y5319471D01*
X3257768Y5318986D01*
X3257649Y5318511D01*
X3257483Y5318048D01*
X3257273Y5317604D01*
X3257021Y5317182D01*
X3256729Y5316788D01*
X3256399Y5316425D01*
X3256036Y5316095D01*
X3255642Y5315803D01*
X3255220Y5315551D01*
X3254776Y5315341D01*
X3254314Y5315176D01*
X3253839Y5315056D01*
X3253353Y5314985D01*
X3252863Y5314960D01*
G37*
G36*
X3131614Y5394985D02*
G01*
X3131124Y5395010D01*
X3130638Y5395081D01*
X3130163Y5395201D01*
X3129701Y5395366D01*
X3129257Y5395577D01*
X3128835Y5395828D01*
X3128441Y5396120D01*
X3128078Y5396450D01*
X3127748Y5396814D01*
X3127456Y5397207D01*
X3127204Y5397629D01*
X3126993Y5398074D01*
X3126828Y5398536D01*
X3126709Y5399011D01*
X3126638Y5399496D01*
X3126613Y5399986D01*
X3126615Y5399986D01*
X3126615Y5459984D01*
X3126613Y5459984D01*
X3126638Y5460474D01*
X3126709Y5460959D01*
X3126828Y5461434D01*
X3126993Y5461896D01*
X3127204Y5462341D01*
X3127456Y5462762D01*
X3127748Y5463156D01*
X3128078Y5463519D01*
X3128441Y5463849D01*
X3128835Y5464141D01*
X3129257Y5464393D01*
X3129701Y5464604D01*
X3130163Y5464769D01*
X3130638Y5464888D01*
X3131124Y5464959D01*
X3131614Y5464985D01*
X3131614Y5464982D01*
X3252614Y5464982D01*
X3252614Y5464985D01*
X3253104Y5464959D01*
X3253590Y5464888D01*
X3254065Y5464769D01*
X3254527Y5464604D01*
X3254971Y5464393D01*
X3255393Y5464141D01*
X3255787Y5463849D01*
X3256150Y5463519D01*
X3256480Y5463156D01*
X3256772Y5462762D01*
X3257024Y5462341D01*
X3257235Y5461896D01*
X3257400Y5461434D01*
X3257519Y5460959D01*
X3257590Y5460474D01*
X3257616Y5459984D01*
X3257616Y5399986D01*
X3257590Y5399496D01*
X3257519Y5399011D01*
X3257400Y5398536D01*
X3257235Y5398074D01*
X3257024Y5397629D01*
X3256772Y5397207D01*
X3256480Y5396814D01*
X3256150Y5396450D01*
X3255787Y5396120D01*
X3255393Y5395828D01*
X3254971Y5395577D01*
X3254527Y5395366D01*
X3254065Y5395201D01*
X3253590Y5395081D01*
X3253104Y5395010D01*
X3252614Y5394985D01*
G37*
D27*
G01*
X3252850Y4677994D03*
G01*
X3252850Y5541975D03*
D28*
G01*
X3667861Y5542000D03*
G01*
X3667861Y4677994D03*
D29*
G01*
X433936Y3559992D03*
G01*
X806061Y3559992D03*
G01*
X636061Y2139995D03*
G01*
X263936Y2139995D03*
D30*
G01*
X2200020Y2680004D03*
G01*
X840003Y2680004D03*
D31*
G01*
X1499514Y449986D03*
G01*
X2642514Y449986D03*
G01*
X2261514Y449986D03*
G01*
X1880514Y449986D03*
G01*
X1118514Y449986D03*
G01*
X737514Y449986D03*
D32*
G01*
X3299485Y559993D03*
D33*
G01*
X3680493Y559998D03*
D18*
G01*
X2659994Y3565317D03*
G01*
X2659994Y3414668D03*
D34*
G01*
X2665319Y3759992D03*
G01*
X2514669Y3759992D03*
D18*
G01*
X3009993Y3565317D03*
G01*
X3009993Y3414668D03*
D34*
G01*
X3005319Y3759992D03*
G01*
X2854669Y3759992D03*
G01*
X2514669Y3949992D03*
G01*
X2665319Y3949992D03*
G01*
X3005319Y3949992D03*
G01*
X2854669Y3949992D03*
D35*
G01*
X109999Y4759990D03*
G01*
X109999Y4899990D03*
D14*
G01*
X2039995Y3756492D03*
G01*
X2039995Y3363493D03*
D18*
G01*
X319999Y5105314D03*
G01*
X319999Y4954664D03*
D36*
G01*
X1704990Y4264991D03*
G01*
X1704990Y3414993D03*
G01*
X1255003Y4264991D03*
G01*
X1255003Y3414993D03*
M02*
