G04 Layer: TopSilkscreenLayer*
G04 EasyEDA v6.5.50, 2025-07-26 22:59:10*
G04 d3ad3de2fa044d29b599307ff273c28a,5db155e37078497989a25cdeaf243bf5,10*
G04 Gerber Generator version 0.2*
G04 Scale: 100 percent, Rotated: No, Reflected: No *
G04 Dimensions in millimeters *
G04 leading zeros omitted , absolute positions ,4 integer and 5 decimal *
%FSLAX45Y45*%
%MOMM*%

%ADD10C,0.1520*%
%ADD11C,0.1524*%
%ADD12C,0.2540*%
%ADD13C,0.2489*%
%ADD14C,0.3000*%
%ADD15C,0.0146*%

%LPD*%
D10*
X3231255Y195326D02*
G01*
X3220841Y190245D01*
X3210427Y179831D01*
X3205093Y169418D01*
X3200013Y153670D01*
X3200013Y127762D01*
X3205093Y112268D01*
X3210427Y101854D01*
X3220841Y91439D01*
X3231255Y86360D01*
X3251829Y86360D01*
X3262243Y91439D01*
X3272657Y101854D01*
X3277991Y112268D01*
X3283071Y127762D01*
X3283071Y153670D01*
X3277991Y169418D01*
X3272657Y179831D01*
X3262243Y190245D01*
X3251829Y195326D01*
X3231255Y195326D01*
X3317361Y195326D02*
G01*
X3317361Y86360D01*
X3317361Y195326D02*
G01*
X3364097Y195326D01*
X3379845Y190245D01*
X3384925Y184912D01*
X3390259Y174497D01*
X3390259Y159004D01*
X3384925Y148589D01*
X3379845Y143510D01*
X3364097Y138176D01*
X3317361Y138176D01*
X3688041Y159257D02*
G01*
X3682707Y169671D01*
X3672293Y180086D01*
X3661879Y185420D01*
X3641051Y185420D01*
X3630891Y180086D01*
X3620477Y169671D01*
X3615143Y159257D01*
X3610063Y143763D01*
X3610063Y117855D01*
X3615143Y102107D01*
X3620477Y91694D01*
X3630891Y81534D01*
X3641051Y76200D01*
X3661879Y76200D01*
X3672293Y81534D01*
X3682707Y91694D01*
X3688041Y102107D01*
X3722331Y185420D02*
G01*
X3722331Y76200D01*
X3722331Y76200D02*
G01*
X3784561Y76200D01*
X3929463Y2982102D02*
G01*
X3939623Y2987182D01*
X3950037Y2997596D01*
X3955371Y3008010D01*
X3955371Y3028838D01*
X3950037Y3039252D01*
X3939623Y3049666D01*
X3929463Y3054746D01*
X3913715Y3060080D01*
X3887807Y3060080D01*
X3872313Y3054746D01*
X3861899Y3049666D01*
X3851485Y3039252D01*
X3846151Y3028838D01*
X3846151Y3008010D01*
X3851485Y2997596D01*
X3861899Y2987182D01*
X3872313Y2982102D01*
X3887807Y2982102D01*
X3887807Y3008010D02*
G01*
X3887807Y2982102D01*
X3955371Y2947812D02*
G01*
X3846151Y2947812D01*
X3955371Y2947812D02*
G01*
X3846151Y2874914D01*
X3955371Y2874914D02*
G01*
X3846151Y2874914D01*
X3955371Y2840624D02*
G01*
X3846151Y2840624D01*
X3955371Y2840624D02*
G01*
X3955371Y2804302D01*
X3950037Y2788808D01*
X3939623Y2778394D01*
X3929463Y2773314D01*
X3913715Y2767980D01*
X3887807Y2767980D01*
X3872313Y2773314D01*
X3861899Y2778394D01*
X3851485Y2788808D01*
X3846151Y2804302D01*
X3846151Y2840624D01*
X3955272Y4180105D02*
G01*
X3846306Y4180105D01*
X3955272Y4180105D02*
G01*
X3955272Y4133115D01*
X3950192Y4117621D01*
X3944858Y4112541D01*
X3934444Y4107207D01*
X3924284Y4107207D01*
X3913870Y4112541D01*
X3908536Y4117621D01*
X3903456Y4133115D01*
X3903456Y4180105D01*
X3903456Y4143529D02*
G01*
X3846306Y4107207D01*
X3955272Y4072917D02*
G01*
X3846306Y4072917D01*
X3955272Y4072917D02*
G01*
X3955272Y4005353D01*
X3903456Y4072917D02*
G01*
X3903456Y4031515D01*
X3955448Y3970106D02*
G01*
X3846228Y3928450D01*
X3955448Y3886794D02*
G01*
X3846228Y3928450D01*
X3929286Y3774526D02*
G01*
X3939700Y3779860D01*
X3950114Y3790274D01*
X3955448Y3800688D01*
X3955448Y3821516D01*
X3950114Y3831676D01*
X3939700Y3842090D01*
X3929286Y3847424D01*
X3913792Y3852504D01*
X3887884Y3852504D01*
X3872136Y3847424D01*
X3861722Y3842090D01*
X3851308Y3831676D01*
X3846228Y3821516D01*
X3846228Y3800688D01*
X3851308Y3790274D01*
X3861722Y3779860D01*
X3872136Y3774526D01*
X3929286Y3662512D02*
G01*
X3939700Y3667592D01*
X3950114Y3678006D01*
X3955448Y3688420D01*
X3955448Y3709248D01*
X3950114Y3719662D01*
X3939700Y3730076D01*
X3929286Y3735156D01*
X3913792Y3740236D01*
X3887884Y3740236D01*
X3872136Y3735156D01*
X3861722Y3730076D01*
X3851308Y3719662D01*
X3846228Y3709248D01*
X3846228Y3688420D01*
X3851308Y3678006D01*
X3861722Y3667592D01*
X3872136Y3662512D01*
X3955303Y3499947D02*
G01*
X3846337Y3499947D01*
X3955303Y3499947D02*
G01*
X3846337Y3427303D01*
X3955303Y3427303D02*
G01*
X3846337Y3427303D01*
X3929395Y3315035D02*
G01*
X3939809Y3320115D01*
X3950223Y3330529D01*
X3955303Y3340943D01*
X3955303Y3361771D01*
X3950223Y3372185D01*
X3939809Y3382599D01*
X3929395Y3387679D01*
X3913647Y3393013D01*
X3887739Y3393013D01*
X3872245Y3387679D01*
X3861831Y3382599D01*
X3851417Y3372185D01*
X3846337Y3361771D01*
X3846337Y3340943D01*
X3851417Y3330529D01*
X3861831Y3320115D01*
X3872245Y3315035D01*
D11*
X3364671Y2569992D02*
G01*
X3473637Y2569992D01*
X3364671Y2569992D02*
G01*
X3364671Y2616728D01*
X3369751Y2632222D01*
X3375085Y2637556D01*
X3385499Y2642636D01*
X3395913Y2642636D01*
X3406327Y2637556D01*
X3411407Y2632222D01*
X3416487Y2616728D01*
X3416487Y2569992D01*
X3416487Y2606314D02*
G01*
X3473637Y2642636D01*
X3364671Y2676926D02*
G01*
X3473637Y2676926D01*
X3364671Y2676926D02*
G01*
X3364671Y2744490D01*
X3416487Y2676926D02*
G01*
X3416487Y2718582D01*
X3510213Y2778780D02*
G01*
X3510213Y2872252D01*
X3390579Y2984520D02*
G01*
X3380165Y2979440D01*
X3369751Y2969026D01*
X3364671Y2958612D01*
X3364671Y2937784D01*
X3369751Y2927370D01*
X3380165Y2916956D01*
X3390579Y2911876D01*
X3406327Y2906542D01*
X3432235Y2906542D01*
X3447729Y2911876D01*
X3458143Y2916956D01*
X3468557Y2927370D01*
X3473637Y2937784D01*
X3473637Y2958612D01*
X3468557Y2969026D01*
X3458143Y2979440D01*
X3447729Y2984520D01*
X3364671Y3050052D02*
G01*
X3369751Y3039638D01*
X3380165Y3029224D01*
X3390579Y3024144D01*
X3406327Y3018810D01*
X3432235Y3018810D01*
X3447729Y3024144D01*
X3458143Y3029224D01*
X3468557Y3039638D01*
X3473637Y3050052D01*
X3473637Y3070880D01*
X3468557Y3081294D01*
X3458143Y3091708D01*
X3447729Y3096788D01*
X3432235Y3102122D01*
X3406327Y3102122D01*
X3390579Y3096788D01*
X3380165Y3091708D01*
X3369751Y3081294D01*
X3364671Y3070880D01*
X3364671Y3050052D01*
X3364671Y3136412D02*
G01*
X3473637Y3136412D01*
X3364671Y3136412D02*
G01*
X3473637Y3209056D01*
X3364671Y3209056D02*
G01*
X3473637Y3209056D01*
X3364671Y3243346D02*
G01*
X3473637Y3243346D01*
X3364671Y3243346D02*
G01*
X3473637Y3315990D01*
X3364671Y3315990D02*
G01*
X3473637Y3315990D01*
X2817964Y2799412D02*
G01*
X2812630Y2809826D01*
X2802216Y2820240D01*
X2792056Y2825320D01*
X2771228Y2825320D01*
X2760814Y2820240D01*
X2750400Y2809826D01*
X2745066Y2799412D01*
X2739986Y2783664D01*
X2739986Y2757756D01*
X2745066Y2742262D01*
X2750400Y2731848D01*
X2760814Y2721434D01*
X2771228Y2716354D01*
X2792056Y2716354D01*
X2802216Y2721434D01*
X2812630Y2731848D01*
X2817964Y2742262D01*
X2852254Y2804492D02*
G01*
X2862668Y2809826D01*
X2878162Y2825320D01*
X2878162Y2716354D01*
X2137963Y2139411D02*
G01*
X2132629Y2149825D01*
X2122215Y2160239D01*
X2112055Y2165319D01*
X2091227Y2165319D01*
X2080813Y2160239D01*
X2070399Y2149825D01*
X2065065Y2139411D01*
X2059985Y2123663D01*
X2059985Y2097755D01*
X2065065Y2082261D01*
X2070399Y2071847D01*
X2080813Y2061433D01*
X2091227Y2056353D01*
X2112055Y2056353D01*
X2122215Y2061433D01*
X2132629Y2071847D01*
X2137963Y2082261D01*
X2177333Y2139411D02*
G01*
X2177333Y2144491D01*
X2182667Y2154905D01*
X2187747Y2160239D01*
X2198161Y2165319D01*
X2218989Y2165319D01*
X2229403Y2160239D01*
X2234483Y2154905D01*
X2239817Y2144491D01*
X2239817Y2134077D01*
X2234483Y2123663D01*
X2224069Y2108169D01*
X2172253Y2056353D01*
X2244897Y2056353D01*
X220593Y3267966D02*
G01*
X210179Y3262632D01*
X199765Y3252218D01*
X194685Y3242058D01*
X194685Y3221230D01*
X199765Y3210816D01*
X210179Y3200402D01*
X220593Y3195068D01*
X236341Y3189988D01*
X262249Y3189988D01*
X277743Y3195068D01*
X288157Y3200402D01*
X298571Y3210816D01*
X303651Y3221230D01*
X303651Y3242058D01*
X298571Y3252218D01*
X288157Y3262632D01*
X277743Y3267966D01*
X194685Y3354072D02*
G01*
X267329Y3302256D01*
X267329Y3380234D01*
X194685Y3354072D02*
G01*
X303651Y3354072D01*
X467964Y4539429D02*
G01*
X462630Y4549843D01*
X452216Y4560257D01*
X442056Y4565337D01*
X421228Y4565337D01*
X410814Y4560257D01*
X400400Y4549843D01*
X395066Y4539429D01*
X389986Y4523681D01*
X389986Y4497773D01*
X395066Y4482279D01*
X400400Y4471865D01*
X410814Y4461451D01*
X421228Y4456371D01*
X442056Y4456371D01*
X452216Y4461451D01*
X462630Y4471865D01*
X467964Y4482279D01*
X564484Y4565337D02*
G01*
X512668Y4565337D01*
X507334Y4518601D01*
X512668Y4523681D01*
X528162Y4529015D01*
X543656Y4529015D01*
X559404Y4523681D01*
X569818Y4513521D01*
X574898Y4497773D01*
X574898Y4487359D01*
X569818Y4471865D01*
X559404Y4461451D01*
X543656Y4456371D01*
X528162Y4456371D01*
X512668Y4461451D01*
X507334Y4466531D01*
X502254Y4476945D01*
X159082Y2752785D02*
G01*
X268048Y2752785D01*
X159082Y2752785D02*
G01*
X159082Y2789107D01*
X164162Y2804855D01*
X174576Y2815015D01*
X184990Y2820349D01*
X200738Y2825429D01*
X226646Y2825429D01*
X242140Y2820349D01*
X252554Y2815015D01*
X262968Y2804855D01*
X268048Y2789107D01*
X268048Y2752785D01*
X159082Y2870133D02*
G01*
X159082Y2927283D01*
X200738Y2896295D01*
X200738Y2911789D01*
X205818Y2922203D01*
X210898Y2927283D01*
X226646Y2932617D01*
X237060Y2932617D01*
X252554Y2927283D01*
X262968Y2916869D01*
X268048Y2901375D01*
X268048Y2885881D01*
X262968Y2870133D01*
X257888Y2865053D01*
X247474Y2859719D01*
X2309992Y5855312D02*
G01*
X2309992Y5746346D01*
X2309992Y5855312D02*
G01*
X2346314Y5855312D01*
X2362062Y5850232D01*
X2372222Y5839818D01*
X2377556Y5829404D01*
X2382636Y5813656D01*
X2382636Y5787748D01*
X2377556Y5772254D01*
X2372222Y5761840D01*
X2362062Y5751426D01*
X2346314Y5746346D01*
X2309992Y5746346D01*
X2468996Y5855312D02*
G01*
X2416926Y5782668D01*
X2494904Y5782668D01*
X2468996Y5855312D02*
G01*
X2468996Y5746346D01*
X1600004Y2155327D02*
G01*
X1600004Y2046361D01*
X1600004Y2046361D02*
G01*
X1662234Y2046361D01*
X1696524Y2134499D02*
G01*
X1706938Y2139833D01*
X1722686Y2155327D01*
X1722686Y2046361D01*
X481248Y1365303D02*
G01*
X470834Y1360223D01*
X460420Y1349809D01*
X455086Y1339395D01*
X450006Y1323647D01*
X450006Y1297739D01*
X455086Y1282245D01*
X460420Y1271831D01*
X470834Y1261417D01*
X481248Y1256337D01*
X502076Y1256337D01*
X512236Y1261417D01*
X522650Y1271831D01*
X527984Y1282245D01*
X533064Y1297739D01*
X533064Y1323647D01*
X527984Y1339395D01*
X522650Y1349809D01*
X512236Y1360223D01*
X502076Y1365303D01*
X481248Y1365303D01*
X496742Y1276911D02*
G01*
X527984Y1245923D01*
X567354Y1344475D02*
G01*
X577768Y1349809D01*
X593516Y1365303D01*
X593516Y1256337D01*
X950013Y2045322D02*
G01*
X950013Y1936356D01*
X950013Y2045322D02*
G01*
X996749Y2045322D01*
X1012243Y2040242D01*
X1017577Y2034908D01*
X1022657Y2024494D01*
X1022657Y2014080D01*
X1017577Y2003666D01*
X1012243Y1998586D01*
X996749Y1993506D01*
X950013Y1993506D01*
X986335Y1993506D02*
G01*
X1022657Y1936356D01*
X1062281Y2019414D02*
G01*
X1062281Y2024494D01*
X1067361Y2034908D01*
X1072695Y2040242D01*
X1083109Y2045322D01*
X1103683Y2045322D01*
X1114097Y2040242D01*
X1119431Y2034908D01*
X1124511Y2024494D01*
X1124511Y2014080D01*
X1119431Y2003666D01*
X1109017Y1988172D01*
X1056947Y1936356D01*
X1129845Y1936356D01*
X1499989Y1315318D02*
G01*
X1499989Y1206352D01*
X1499989Y1315318D02*
G01*
X1546725Y1315318D01*
X1562219Y1310238D01*
X1567553Y1304904D01*
X1572633Y1294490D01*
X1572633Y1284076D01*
X1567553Y1273662D01*
X1562219Y1268582D01*
X1546725Y1263502D01*
X1499989Y1263502D01*
X1536311Y1263502D02*
G01*
X1572633Y1206352D01*
X1617337Y1315318D02*
G01*
X1674487Y1315318D01*
X1643499Y1273662D01*
X1658993Y1273662D01*
X1669407Y1268582D01*
X1674487Y1263502D01*
X1679821Y1247754D01*
X1679821Y1237340D01*
X1674487Y1221846D01*
X1664073Y1211432D01*
X1648579Y1206352D01*
X1633085Y1206352D01*
X1617337Y1211432D01*
X1612257Y1216512D01*
X1606923Y1226926D01*
X3609992Y4465307D02*
G01*
X3609992Y4356341D01*
X3609992Y4465307D02*
G01*
X3656728Y4465307D01*
X3672222Y4460227D01*
X3677556Y4454893D01*
X3682636Y4444479D01*
X3682636Y4434065D01*
X3677556Y4423651D01*
X3672222Y4418571D01*
X3656728Y4413491D01*
X3609992Y4413491D01*
X3646314Y4413491D02*
G01*
X3682636Y4356341D01*
X3779410Y4465307D02*
G01*
X3727340Y4465307D01*
X3722260Y4418571D01*
X3727340Y4423651D01*
X3743088Y4428985D01*
X3758582Y4428985D01*
X3774076Y4423651D01*
X3784490Y4413491D01*
X3789824Y4397743D01*
X3789824Y4387329D01*
X3784490Y4371835D01*
X3774076Y4361421D01*
X3758582Y4356341D01*
X3743088Y4356341D01*
X3727340Y4361421D01*
X3722260Y4366501D01*
X3716926Y4376915D01*
X3199993Y5865304D02*
G01*
X3199993Y5756338D01*
X3199993Y5865304D02*
G01*
X3246729Y5865304D01*
X3262223Y5860224D01*
X3267557Y5854890D01*
X3272637Y5844476D01*
X3272637Y5834062D01*
X3267557Y5823648D01*
X3262223Y5818568D01*
X3246729Y5813488D01*
X3199993Y5813488D01*
X3236315Y5813488D02*
G01*
X3272637Y5756338D01*
X3369411Y5849810D02*
G01*
X3364077Y5860224D01*
X3348583Y5865304D01*
X3338169Y5865304D01*
X3322675Y5860224D01*
X3312261Y5844476D01*
X3306927Y5818568D01*
X3306927Y5792660D01*
X3312261Y5771832D01*
X3322675Y5761418D01*
X3338169Y5756338D01*
X3343503Y5756338D01*
X3358997Y5761418D01*
X3369411Y5771832D01*
X3374491Y5787326D01*
X3374491Y5792660D01*
X3369411Y5808154D01*
X3358997Y5818568D01*
X3343503Y5823648D01*
X3338169Y5823648D01*
X3322675Y5818568D01*
X3312261Y5808154D01*
X3306927Y5792660D01*
X203093Y6344394D02*
G01*
X203093Y6266416D01*
X208173Y6250922D01*
X218587Y6240508D01*
X234335Y6235428D01*
X244749Y6235428D01*
X260243Y6240508D01*
X270657Y6250922D01*
X275737Y6266416D01*
X275737Y6344394D01*
X310027Y6323566D02*
G01*
X320441Y6328900D01*
X336189Y6344394D01*
X336189Y6235428D01*
X2761289Y1155209D02*
G01*
X2761289Y1077231D01*
X2766369Y1061737D01*
X2776783Y1051323D01*
X2792531Y1046243D01*
X2802945Y1046243D01*
X2818439Y1051323D01*
X2828853Y1061737D01*
X2833933Y1077231D01*
X2833933Y1155209D01*
X2873557Y1129301D02*
G01*
X2873557Y1134381D01*
X2878637Y1144795D01*
X2883971Y1150129D01*
X2894385Y1155209D01*
X2914959Y1155209D01*
X2925373Y1150129D01*
X2930707Y1144795D01*
X2935787Y1134381D01*
X2935787Y1123967D01*
X2930707Y1113553D01*
X2920293Y1098059D01*
X2868223Y1046243D01*
X2941121Y1046243D01*
X549996Y4275310D02*
G01*
X549996Y4197332D01*
X555076Y4181838D01*
X565490Y4171424D01*
X581238Y4166344D01*
X591652Y4166344D01*
X607146Y4171424D01*
X617560Y4181838D01*
X622640Y4197332D01*
X622640Y4275310D01*
X667344Y4275310D02*
G01*
X724494Y4275310D01*
X693506Y4233654D01*
X709000Y4233654D01*
X719414Y4228574D01*
X724494Y4223494D01*
X729828Y4207746D01*
X729828Y4197332D01*
X724494Y4181838D01*
X714080Y4171424D01*
X698586Y4166344D01*
X683092Y4166344D01*
X667344Y4171424D01*
X662264Y4176504D01*
X656930Y4186918D01*
X3599992Y5775294D02*
G01*
X3599992Y5697316D01*
X3605072Y5681822D01*
X3615486Y5671408D01*
X3631234Y5666328D01*
X3641648Y5666328D01*
X3657142Y5671408D01*
X3667556Y5681822D01*
X3672636Y5697316D01*
X3672636Y5775294D01*
X3779824Y5759800D02*
G01*
X3769410Y5770214D01*
X3753662Y5775294D01*
X3733088Y5775294D01*
X3717340Y5770214D01*
X3706926Y5759800D01*
X3706926Y5749386D01*
X3712260Y5738972D01*
X3717340Y5733638D01*
X3727754Y5728558D01*
X3758996Y5718144D01*
X3769410Y5713064D01*
X3774490Y5707730D01*
X3779824Y5697316D01*
X3779824Y5681822D01*
X3769410Y5671408D01*
X3753662Y5666328D01*
X3733088Y5666328D01*
X3717340Y5671408D01*
X3706926Y5681822D01*
X3814114Y5775294D02*
G01*
X3814114Y5666328D01*
X3814114Y5775294D02*
G01*
X3860850Y5775294D01*
X3876344Y5770214D01*
X3881678Y5764880D01*
X3886758Y5754466D01*
X3886758Y5744052D01*
X3881678Y5733638D01*
X3876344Y5728558D01*
X3860850Y5723478D01*
X3814114Y5723478D02*
G01*
X3860850Y5723478D01*
X3876344Y5718144D01*
X3881678Y5713064D01*
X3886758Y5702650D01*
X3886758Y5686902D01*
X3881678Y5676488D01*
X3876344Y5671408D01*
X3860850Y5666328D01*
X3814114Y5666328D01*
X3921048Y5754466D02*
G01*
X3931462Y5759800D01*
X3946956Y5775294D01*
X3946956Y5666328D01*
X220598Y3557965D02*
G01*
X210185Y3552631D01*
X199770Y3542217D01*
X194690Y3532057D01*
X194690Y3511229D01*
X199770Y3500815D01*
X210185Y3490401D01*
X220598Y3485067D01*
X236346Y3479987D01*
X262254Y3479987D01*
X277748Y3485067D01*
X288162Y3490401D01*
X298577Y3500815D01*
X303656Y3511229D01*
X303656Y3532057D01*
X298577Y3542217D01*
X288162Y3552631D01*
X277748Y3557965D01*
X194690Y3602669D02*
G01*
X194690Y3659819D01*
X236346Y3628577D01*
X236346Y3644071D01*
X241427Y3654485D01*
X246506Y3659819D01*
X262254Y3664899D01*
X272669Y3664899D01*
X288162Y3659819D01*
X298577Y3649405D01*
X303656Y3633657D01*
X303656Y3618163D01*
X298577Y3602669D01*
X293496Y3597335D01*
X283082Y3592255D01*
X427969Y1919404D02*
G01*
X422635Y1929818D01*
X412221Y1940232D01*
X402061Y1945312D01*
X381233Y1945312D01*
X370819Y1940232D01*
X360405Y1929818D01*
X355071Y1919404D01*
X349991Y1903656D01*
X349991Y1877748D01*
X355071Y1862254D01*
X360405Y1851840D01*
X370819Y1841426D01*
X381233Y1836346D01*
X402061Y1836346D01*
X412221Y1841426D01*
X422635Y1851840D01*
X427969Y1862254D01*
X488167Y1945312D02*
G01*
X472673Y1940232D01*
X467339Y1929818D01*
X467339Y1919404D01*
X472673Y1908990D01*
X483087Y1903656D01*
X503661Y1898576D01*
X519409Y1893496D01*
X529823Y1883082D01*
X534903Y1872668D01*
X534903Y1856920D01*
X529823Y1846506D01*
X524489Y1841426D01*
X508995Y1836346D01*
X488167Y1836346D01*
X472673Y1841426D01*
X467339Y1846506D01*
X462259Y1856920D01*
X462259Y1872668D01*
X467339Y1883082D01*
X477753Y1893496D01*
X493501Y1898576D01*
X514075Y1903656D01*
X524489Y1908990D01*
X529823Y1919404D01*
X529823Y1929818D01*
X524489Y1940232D01*
X508995Y1945312D01*
X488167Y1945312D01*
X1489994Y2355311D02*
G01*
X1489994Y2246345D01*
X1489994Y2355311D02*
G01*
X1526316Y2355311D01*
X1542064Y2350231D01*
X1552224Y2339817D01*
X1557558Y2329403D01*
X1562638Y2313655D01*
X1562638Y2287747D01*
X1557558Y2272253D01*
X1552224Y2261839D01*
X1542064Y2251425D01*
X1526316Y2246345D01*
X1489994Y2246345D01*
X1596928Y2334483D02*
G01*
X1607342Y2339817D01*
X1623090Y2355311D01*
X1623090Y2246345D01*
X304688Y59987D02*
G01*
X413654Y59987D01*
X304688Y59987D02*
G01*
X413654Y101643D01*
X304688Y143045D02*
G01*
X413654Y101643D01*
X304688Y143045D02*
G01*
X413654Y143045D01*
X304688Y218991D02*
G01*
X413654Y177335D01*
X304688Y218991D02*
G01*
X413654Y260647D01*
X377332Y193083D02*
G01*
X377332Y244899D01*
X304688Y294937D02*
G01*
X413654Y294937D01*
X304688Y329227D02*
G01*
X413654Y329227D01*
X304688Y329227D02*
G01*
X413654Y401871D01*
X304688Y401871D02*
G01*
X413654Y401871D01*
X450230Y436161D02*
G01*
X450230Y529633D01*
X330596Y641901D02*
G01*
X320182Y636567D01*
X309768Y626407D01*
X304688Y615993D01*
X304688Y595165D01*
X309768Y584751D01*
X320182Y574337D01*
X330596Y569257D01*
X346344Y563923D01*
X372252Y563923D01*
X387746Y569257D01*
X398160Y574337D01*
X408574Y584751D01*
X413654Y595165D01*
X413654Y615993D01*
X408574Y626407D01*
X398160Y636567D01*
X387746Y641901D01*
X304688Y707433D02*
G01*
X309768Y697019D01*
X320182Y686605D01*
X330596Y681271D01*
X346344Y676191D01*
X372252Y676191D01*
X387746Y681271D01*
X398160Y686605D01*
X408574Y697019D01*
X413654Y707433D01*
X413654Y728007D01*
X408574Y738421D01*
X398160Y748835D01*
X387746Y754169D01*
X372252Y759249D01*
X346344Y759249D01*
X330596Y754169D01*
X320182Y748835D01*
X309768Y738421D01*
X304688Y728007D01*
X304688Y707433D01*
X304688Y793539D02*
G01*
X413654Y793539D01*
X304688Y793539D02*
G01*
X413654Y866437D01*
X304688Y866437D02*
G01*
X413654Y866437D01*
X304688Y900727D02*
G01*
X413654Y900727D01*
X304688Y900727D02*
G01*
X413654Y973371D01*
X304688Y973371D02*
G01*
X413654Y973371D01*
X2894688Y80004D02*
G01*
X3003654Y80004D01*
X3003654Y80004D02*
G01*
X3003654Y142234D01*
X2910182Y249422D02*
G01*
X2899768Y239008D01*
X2894688Y223514D01*
X2894688Y202686D01*
X2899768Y186938D01*
X2910182Y176524D01*
X2920596Y176524D01*
X2931010Y181858D01*
X2936344Y186938D01*
X2941424Y197352D01*
X2951838Y228594D01*
X2956918Y239008D01*
X2962252Y244088D01*
X2972666Y249422D01*
X2988160Y249422D01*
X2998574Y239008D01*
X3003654Y223514D01*
X3003654Y202686D01*
X2998574Y186938D01*
X2988160Y176524D01*
X2894688Y283712D02*
G01*
X3003654Y309620D01*
X2894688Y335528D02*
G01*
X3003654Y309620D01*
X2894688Y335528D02*
G01*
X3003654Y361690D01*
X2894688Y387598D02*
G01*
X3003654Y361690D01*
X3040230Y421888D02*
G01*
X3040230Y515360D01*
X2920596Y627628D02*
G01*
X2910182Y622294D01*
X2899768Y612134D01*
X2894688Y601720D01*
X2894688Y580892D01*
X2899768Y570478D01*
X2910182Y560064D01*
X2920596Y554984D01*
X2936344Y549650D01*
X2962252Y549650D01*
X2977746Y554984D01*
X2988160Y560064D01*
X2998574Y570478D01*
X3003654Y580892D01*
X3003654Y601720D01*
X2998574Y612134D01*
X2988160Y622294D01*
X2977746Y627628D01*
X2894688Y693160D02*
G01*
X2899768Y682746D01*
X2910182Y672332D01*
X2920596Y666998D01*
X2936344Y661918D01*
X2962252Y661918D01*
X2977746Y666998D01*
X2988160Y672332D01*
X2998574Y682746D01*
X3003654Y693160D01*
X3003654Y713734D01*
X2998574Y724148D01*
X2988160Y734562D01*
X2977746Y739896D01*
X2962252Y744976D01*
X2936344Y744976D01*
X2920596Y739896D01*
X2910182Y734562D01*
X2899768Y724148D01*
X2894688Y713734D01*
X2894688Y693160D01*
X2894688Y779266D02*
G01*
X3003654Y779266D01*
X2894688Y779266D02*
G01*
X3003654Y852164D01*
X2894688Y852164D02*
G01*
X3003654Y852164D01*
X2894688Y886454D02*
G01*
X3003654Y886454D01*
X2894688Y886454D02*
G01*
X3003654Y959098D01*
X2894688Y959098D02*
G01*
X3003654Y959098D01*
X2444678Y3419993D02*
G01*
X2553644Y3419993D01*
X2444678Y3419993D02*
G01*
X2444678Y3466729D01*
X2449758Y3482223D01*
X2455092Y3487557D01*
X2465506Y3492637D01*
X2475920Y3492637D01*
X2486334Y3487557D01*
X2491414Y3482223D01*
X2496494Y3466729D01*
X2496494Y3419993D01*
X2496494Y3456315D02*
G01*
X2553644Y3492637D01*
X2444678Y3599825D02*
G01*
X2553644Y3547755D01*
X2444678Y3526927D02*
G01*
X2444678Y3599825D01*
X2209995Y3815308D02*
G01*
X2209995Y3706342D01*
X2209995Y3815308D02*
G01*
X2256731Y3815308D01*
X2272225Y3810228D01*
X2277559Y3804894D01*
X2282639Y3794480D01*
X2282639Y3784066D01*
X2277559Y3773652D01*
X2272225Y3768572D01*
X2256731Y3763492D01*
X2209995Y3763492D01*
X2246317Y3763492D02*
G01*
X2282639Y3706342D01*
X2343091Y3815308D02*
G01*
X2327343Y3810228D01*
X2322263Y3799814D01*
X2322263Y3789400D01*
X2327343Y3778986D01*
X2337757Y3773652D01*
X2358585Y3768572D01*
X2374079Y3763492D01*
X2384493Y3753078D01*
X2389827Y3742664D01*
X2389827Y3726916D01*
X2384493Y3716502D01*
X2379413Y3711422D01*
X2363665Y3706342D01*
X2343091Y3706342D01*
X2327343Y3711422D01*
X2322263Y3716502D01*
X2316929Y3726916D01*
X2316929Y3742664D01*
X2322263Y3753078D01*
X2332677Y3763492D01*
X2348171Y3768572D01*
X2368999Y3773652D01*
X2379413Y3778986D01*
X2384493Y3789400D01*
X2384493Y3799814D01*
X2379413Y3810228D01*
X2363665Y3815308D01*
X2343091Y3815308D01*
X2804678Y3419993D02*
G01*
X2913644Y3419993D01*
X2804678Y3419993D02*
G01*
X2804678Y3466729D01*
X2809758Y3482223D01*
X2815092Y3487557D01*
X2825506Y3492637D01*
X2835920Y3492637D01*
X2846334Y3487557D01*
X2851414Y3482223D01*
X2856494Y3466729D01*
X2856494Y3419993D01*
X2856494Y3456315D02*
G01*
X2913644Y3492637D01*
X2841000Y3594491D02*
G01*
X2856494Y3589411D01*
X2866908Y3578997D01*
X2872242Y3563503D01*
X2872242Y3558169D01*
X2866908Y3542675D01*
X2856494Y3532261D01*
X2841000Y3526927D01*
X2835920Y3526927D01*
X2820172Y3532261D01*
X2809758Y3542675D01*
X2804678Y3558169D01*
X2804678Y3563503D01*
X2809758Y3578997D01*
X2820172Y3589411D01*
X2841000Y3594491D01*
X2866908Y3594491D01*
X2893070Y3589411D01*
X2908564Y3578997D01*
X2913644Y3563503D01*
X2913644Y3553089D01*
X2908564Y3537341D01*
X2898150Y3532261D01*
X3119993Y3815308D02*
G01*
X3119993Y3706342D01*
X3119993Y3815308D02*
G01*
X3166729Y3815308D01*
X3182223Y3810228D01*
X3187557Y3804894D01*
X3192637Y3794480D01*
X3192637Y3784066D01*
X3187557Y3773652D01*
X3182223Y3768572D01*
X3166729Y3763492D01*
X3119993Y3763492D01*
X3156315Y3763492D02*
G01*
X3192637Y3706342D01*
X3226927Y3794480D02*
G01*
X3237341Y3799814D01*
X3253089Y3815308D01*
X3253089Y3706342D01*
X3318367Y3815308D02*
G01*
X3302873Y3810228D01*
X3292459Y3794480D01*
X3287379Y3768572D01*
X3287379Y3753078D01*
X3292459Y3726916D01*
X3302873Y3711422D01*
X3318367Y3706342D01*
X3328781Y3706342D01*
X3344529Y3711422D01*
X3354943Y3726916D01*
X3360023Y3753078D01*
X3360023Y3768572D01*
X3354943Y3794480D01*
X3344529Y3810228D01*
X3328781Y3815308D01*
X3318367Y3815308D01*
X2199995Y3995308D02*
G01*
X2199995Y3886342D01*
X2199995Y3995308D02*
G01*
X2246731Y3995308D01*
X2262225Y3990228D01*
X2267559Y3984894D01*
X2272639Y3974480D01*
X2272639Y3964066D01*
X2267559Y3953652D01*
X2262225Y3948572D01*
X2246731Y3943492D01*
X2199995Y3943492D01*
X2236317Y3943492D02*
G01*
X2272639Y3886342D01*
X2306929Y3974480D02*
G01*
X2317343Y3979814D01*
X2333091Y3995308D01*
X2333091Y3886342D01*
X2367381Y3974480D02*
G01*
X2377795Y3979814D01*
X2393289Y3995308D01*
X2393289Y3886342D01*
X3120003Y3995315D02*
G01*
X3120003Y3886349D01*
X3120003Y3995315D02*
G01*
X3166739Y3995315D01*
X3182233Y3990235D01*
X3187567Y3984901D01*
X3192647Y3974487D01*
X3192647Y3964073D01*
X3187567Y3953659D01*
X3182233Y3948579D01*
X3166739Y3943499D01*
X3120003Y3943499D01*
X3156325Y3943499D02*
G01*
X3192647Y3886349D01*
X3226937Y3974487D02*
G01*
X3237351Y3979821D01*
X3253099Y3995315D01*
X3253099Y3886349D01*
X3292469Y3969407D02*
G01*
X3292469Y3974487D01*
X3297803Y3984901D01*
X3302883Y3990235D01*
X3313297Y3995315D01*
X3334125Y3995315D01*
X3344539Y3990235D01*
X3349619Y3984901D01*
X3354953Y3974487D01*
X3354953Y3964073D01*
X3349619Y3953659D01*
X3339205Y3938165D01*
X3287389Y3886349D01*
X3360033Y3886349D01*
X2209995Y3565309D02*
G01*
X2209995Y3456343D01*
X2209995Y3565309D02*
G01*
X2246317Y3565309D01*
X2262065Y3560229D01*
X2272225Y3549815D01*
X2277559Y3539401D01*
X2282639Y3523653D01*
X2282639Y3497745D01*
X2277559Y3482251D01*
X2272225Y3471837D01*
X2262065Y3461423D01*
X2246317Y3456343D01*
X2209995Y3456343D01*
X2322263Y3539401D02*
G01*
X2322263Y3544481D01*
X2327343Y3554895D01*
X2332677Y3560229D01*
X2343091Y3565309D01*
X2363665Y3565309D01*
X2374079Y3560229D01*
X2379413Y3554895D01*
X2384493Y3544481D01*
X2384493Y3534067D01*
X2379413Y3523653D01*
X2368999Y3508159D01*
X2316929Y3456343D01*
X2389827Y3456343D01*
X912642Y3899814D02*
G01*
X902228Y3910228D01*
X886734Y3915308D01*
X865906Y3915308D01*
X850412Y3910228D01*
X839998Y3899814D01*
X839998Y3889400D01*
X845078Y3878986D01*
X850412Y3873652D01*
X860826Y3868572D01*
X892068Y3858158D01*
X902228Y3853078D01*
X907562Y3847744D01*
X912642Y3837330D01*
X912642Y3821836D01*
X902228Y3811422D01*
X886734Y3806342D01*
X865906Y3806342D01*
X850412Y3811422D01*
X839998Y3821836D01*
X946932Y3915308D02*
G01*
X973094Y3806342D01*
X999002Y3915308D02*
G01*
X973094Y3806342D01*
X999002Y3915308D02*
G01*
X1024910Y3806342D01*
X1050818Y3915308D02*
G01*
X1024910Y3806342D01*
X1085108Y3894480D02*
G01*
X1095522Y3899814D01*
X1111270Y3915308D01*
X1111270Y3806342D01*
G36*
X3087979Y2051557D02*
G01*
X3087979Y2026666D01*
X3187598Y2026666D01*
X3187598Y2051557D01*
G37*
G36*
X2412390Y2051557D02*
G01*
X2412390Y2026666D01*
X2512009Y2026666D01*
X2512009Y2051557D01*
G37*
G36*
X2449728Y2122119D02*
G01*
X2449728Y1956104D01*
X2474620Y1956104D01*
X2474620Y2122119D01*
G37*
G36*
X399288Y3425951D02*
G01*
X399288Y3404768D01*
X445008Y3404768D01*
X445008Y3425951D01*
G37*
G36*
X399288Y3715207D02*
G01*
X399288Y3694023D01*
X445008Y3694023D01*
X445008Y3715207D01*
G37*
G36*
X624992Y2295245D02*
G01*
X624992Y2274062D01*
X670712Y2274062D01*
X670712Y2295245D01*
G37*
G36*
X624992Y2005939D02*
G01*
X624992Y1984756D01*
X670712Y1984756D01*
X670712Y2005939D01*
G37*
D12*
X3799992Y4189991D02*
G01*
X3799992Y2664993D01*
X3539992Y2664993D01*
X3539992Y4189991D01*
X3799992Y4189991D01*
X3796992Y3935641D02*
G01*
X3542992Y3935641D01*
D11*
X3220118Y2151755D02*
G01*
X3220118Y1807372D01*
X2553497Y1807372D01*
X2379870Y1980999D01*
X2379870Y2151755D01*
X3220118Y2308235D02*
G01*
X3220118Y2652618D01*
X2553497Y2652618D01*
X2379870Y2478991D01*
X2379870Y2308235D01*
D12*
X2218014Y1940953D02*
G01*
X2298011Y1940953D01*
X2161969Y1940999D02*
G01*
X2081971Y1940999D01*
X2218014Y1798985D02*
G01*
X2298011Y1798985D01*
X2161969Y1799033D02*
G01*
X2081971Y1799033D01*
X2328986Y1909970D02*
G01*
X2328986Y1829965D01*
X2050994Y1830019D02*
G01*
X2050994Y1910021D01*
X481980Y3209036D02*
G01*
X401982Y3209036D01*
X538025Y3208990D02*
G01*
X618022Y3208990D01*
X481980Y3351004D02*
G01*
X401982Y3351004D01*
X538025Y3350955D02*
G01*
X618022Y3350955D01*
X371007Y3240018D02*
G01*
X371007Y3320023D01*
X649000Y3319970D02*
G01*
X649000Y3239968D01*
X218018Y4550948D02*
G01*
X298015Y4550948D01*
X161973Y4550994D02*
G01*
X81975Y4550994D01*
X218018Y4408980D02*
G01*
X298015Y4408980D01*
X161973Y4409028D02*
G01*
X81975Y4409028D01*
X328990Y4519965D02*
G01*
X328990Y4439960D01*
X50998Y4440013D02*
G01*
X50998Y4520016D01*
X218018Y5440946D02*
G01*
X298015Y5440946D01*
X161973Y5440992D02*
G01*
X81975Y5440992D01*
X218018Y5298978D02*
G01*
X298015Y5298978D01*
X161973Y5299026D02*
G01*
X81975Y5299026D01*
X328990Y5409963D02*
G01*
X328990Y5329958D01*
X50998Y5330012D02*
G01*
X50998Y5410014D01*
X50998Y5510011D02*
G01*
X50998Y5590014D01*
X161973Y5479026D02*
G01*
X81975Y5479026D01*
X161973Y5620992D02*
G01*
X81975Y5620992D01*
X219562Y5478444D02*
G01*
X299562Y5478444D01*
X330545Y5509427D02*
G01*
X330545Y5589424D01*
X219562Y5620405D02*
G01*
X299562Y5620405D01*
X449999Y2942381D02*
G01*
X449999Y2794993D01*
X499998Y2894992D02*
G01*
X399999Y2894992D01*
X499998Y2844993D02*
G01*
X449999Y2894992D01*
X399999Y2844993D01*
X499998Y2844993D01*
X342884Y2659994D02*
G01*
X319999Y2659994D01*
X579998Y2659994D02*
G01*
X557113Y2659994D01*
X579998Y3079993D02*
G01*
X579998Y2659994D01*
X557113Y3079993D02*
G01*
X579998Y3079993D01*
X319999Y3079993D02*
G01*
X342884Y3079993D01*
X319999Y2659994D02*
G01*
X319999Y3079993D01*
D11*
X2488915Y5703907D02*
G01*
X2311074Y5703907D01*
X2488915Y5396069D02*
G01*
X2311074Y5396069D01*
D12*
X1424995Y1549996D02*
G01*
X1424995Y1949996D01*
X1894997Y1549996D02*
G01*
X1894997Y1949996D01*
D11*
X1060246Y1542628D02*
G01*
X795009Y1542628D01*
X795009Y1427746D01*
X1060246Y1077391D02*
G01*
X795009Y1077391D01*
X795009Y1192273D01*
X963937Y1717375D02*
G01*
X963937Y1621487D01*
X1096058Y1621487D01*
X1096058Y1717375D01*
X963937Y1802617D02*
G01*
X963937Y1898505D01*
X1096058Y1898505D01*
X1096058Y1802617D01*
X1446057Y1292618D02*
G01*
X1446057Y1388506D01*
X1313936Y1388506D01*
X1313936Y1292618D01*
X1446057Y1207376D02*
G01*
X1446057Y1111488D01*
X1313936Y1111488D01*
X1313936Y1207376D01*
X3546053Y4452612D02*
G01*
X3546053Y4548499D01*
X3413932Y4548499D01*
X3413932Y4452612D01*
X3546053Y4367369D02*
G01*
X3546053Y4271482D01*
X3413932Y4271482D01*
X3413932Y4367369D01*
X3546053Y5852609D02*
G01*
X3546053Y5948497D01*
X3413932Y5948497D01*
X3413932Y5852609D01*
X3546053Y5767367D02*
G01*
X3546053Y5671479D01*
X3413932Y5671479D01*
X3413932Y5767367D01*
D12*
X1729999Y4869990D02*
G01*
X1730001Y6529994D01*
X1730001Y5989988D02*
G01*
X409994Y5989988D01*
X409994Y6529992D02*
G01*
X1730001Y6529992D01*
X409996Y4869990D02*
G01*
X409994Y6529992D01*
X409996Y4869990D02*
G01*
X1729999Y4869990D01*
X2699994Y1699996D02*
G01*
X2699994Y1199997D01*
X2999993Y1699996D02*
G01*
X2999993Y1199997D01*
X2699994Y1699996D02*
G01*
X2777337Y1699996D01*
X2999993Y1699996D02*
G01*
X2922623Y1699996D01*
X2999993Y1199997D02*
G01*
X2699994Y1199997D01*
X491190Y4169953D02*
G01*
X211282Y4169953D01*
X211282Y4169953D02*
G01*
X211282Y4270029D01*
X491190Y4270029D01*
X491190Y4169953D01*
X3531420Y5557984D02*
G01*
X3384313Y5557984D01*
X3804528Y4662985D02*
G01*
X3923111Y4662985D01*
X3923111Y5557984D01*
X3804328Y5557984D01*
X3384519Y4662985D02*
G01*
X3531219Y4662985D01*
D11*
X802617Y3412373D02*
G01*
X437380Y3412373D01*
X802617Y3707612D02*
G01*
X437380Y3707612D01*
X529567Y3412373D02*
G01*
X529567Y3707612D01*
X802617Y3412373D02*
G01*
X802617Y3420869D01*
X802617Y3707612D02*
G01*
X802617Y3699116D01*
X267380Y2287615D02*
G01*
X632617Y2287615D01*
X267380Y1992376D02*
G01*
X632617Y1992376D01*
X540430Y2287615D02*
G01*
X540430Y1992376D01*
X267380Y2287615D02*
G01*
X267380Y2279119D01*
X267380Y1992376D02*
G01*
X267380Y2000872D01*
D12*
X1079997Y2964992D02*
G01*
X1959996Y2964992D01*
X1959996Y2394993D01*
X1079997Y2394993D01*
X1079997Y2964992D01*
X1229768Y2949994D02*
G01*
X1229768Y2409995D01*
X1270408Y2949994D02*
G01*
X1270408Y2425994D01*
X2832996Y616762D02*
G01*
X534398Y616762D01*
X546996Y68999D02*
G01*
X534093Y68999D01*
X534093Y142151D01*
X497111Y142151D01*
X497111Y222669D01*
X534398Y222669D01*
X534398Y830999D01*
X546996Y830999D02*
G01*
X1308996Y830999D01*
X1639196Y830999D01*
X2007496Y830999D01*
X2832996Y830999D01*
X2832996Y68999D01*
X2007496Y68999D01*
X2007496Y68999D02*
G01*
X1639196Y68999D01*
X1308996Y68999D01*
X546996Y68999D01*
X1966407Y68999D02*
G01*
X1966407Y286169D01*
X1794601Y286169D01*
X1794601Y68999D01*
X2728407Y68999D02*
G01*
X2728407Y286169D01*
X2556601Y286169D01*
X2556601Y68999D01*
X822799Y68991D02*
G01*
X822799Y286161D01*
X650994Y286161D01*
X650994Y68991D01*
X1203799Y68991D02*
G01*
X1203799Y286164D01*
X1031994Y286164D01*
X1031994Y68991D01*
X1584799Y68991D02*
G01*
X1584799Y286164D01*
X1412994Y286164D01*
X1412994Y68991D01*
X2346799Y68991D02*
G01*
X2346799Y286164D01*
X2174994Y286164D01*
X2174994Y68991D01*
X3108993Y249999D02*
G01*
X3108993Y899998D01*
X3108993Y249999D02*
G01*
X3870993Y249999D01*
X3870993Y249999D02*
G01*
X3870993Y890198D01*
X3108993Y899998D02*
G01*
X3870993Y899998D01*
X3743993Y255198D02*
G01*
X3616993Y255198D01*
X3616993Y305998D01*
X3743993Y305998D01*
X3743993Y255198D01*
X3365533Y255198D02*
G01*
X3238533Y255198D01*
X3238533Y305998D01*
X3365533Y305998D01*
X3365533Y255198D01*
D11*
X2726054Y3532614D02*
G01*
X2726054Y3628501D01*
X2593934Y3628501D01*
X2593934Y3532614D01*
X2726054Y3447371D02*
G01*
X2726054Y3351484D01*
X2593934Y3351484D01*
X2593934Y3447371D01*
X2632616Y3693932D02*
G01*
X2728503Y3693932D01*
X2728503Y3826052D01*
X2632616Y3826052D01*
X2547373Y3693932D02*
G01*
X2451486Y3693932D01*
X2451486Y3826052D01*
X2547373Y3826052D01*
X3076054Y3532614D02*
G01*
X3076054Y3628501D01*
X2943933Y3628501D01*
X2943933Y3532614D01*
X3076054Y3447371D02*
G01*
X3076054Y3351484D01*
X2943933Y3351484D01*
X2943933Y3447371D01*
X2972615Y3693932D02*
G01*
X3068502Y3693932D01*
X3068502Y3826052D01*
X2972615Y3826052D01*
X2887372Y3693932D02*
G01*
X2791485Y3693932D01*
X2791485Y3826052D01*
X2887372Y3826052D01*
X2547373Y4016052D02*
G01*
X2451486Y4016052D01*
X2451486Y3883931D01*
X2547373Y3883931D01*
X2632616Y4016052D02*
G01*
X2728503Y4016052D01*
X2728503Y3883931D01*
X2632616Y3883931D01*
X2972615Y3883931D02*
G01*
X3068502Y3883931D01*
X3068502Y4016052D01*
X2972615Y4016052D01*
X2887372Y3883931D02*
G01*
X2791485Y3883931D01*
X2791485Y4016052D01*
X2887372Y4016052D01*
D12*
X39042Y4858009D02*
G01*
X39042Y4938006D01*
X38996Y4801963D02*
G01*
X38996Y4721966D01*
X181010Y4858009D02*
G01*
X181010Y4938006D01*
X180962Y4801963D02*
G01*
X180962Y4721966D01*
X70025Y4968981D02*
G01*
X150030Y4968981D01*
X149976Y4690988D02*
G01*
X69974Y4690988D01*
X2039995Y3487605D02*
G01*
X2039995Y3634994D01*
X1989996Y3534994D02*
G01*
X2089995Y3534994D01*
X1989996Y3584994D02*
G01*
X2039995Y3534994D01*
X2089995Y3584994D01*
X1989996Y3584994D01*
X2147110Y3769992D02*
G01*
X2169995Y3769992D01*
X1909996Y3769992D02*
G01*
X1932881Y3769992D01*
X1909996Y3349993D02*
G01*
X1909996Y3769992D01*
X1932881Y3349993D02*
G01*
X1909996Y3349993D01*
X2169995Y3349993D02*
G01*
X2147110Y3349993D01*
X2169995Y3769992D02*
G01*
X2169995Y3349993D01*
D11*
X386059Y5072611D02*
G01*
X386059Y5168498D01*
X253939Y5168498D01*
X253939Y5072611D01*
X386059Y4987368D02*
G01*
X386059Y4891481D01*
X253939Y4891481D01*
X253939Y4987368D01*
D12*
X1783105Y4149991D02*
G01*
X1789993Y4149991D01*
X1333119Y4149991D02*
G01*
X1626875Y4149991D01*
X1170000Y4149991D02*
G01*
X1176888Y4149991D01*
X1783105Y3529995D02*
G01*
X1789993Y3529995D01*
X1333119Y3529995D02*
G01*
X1626875Y3529995D01*
X1170000Y3529995D02*
G01*
X1176888Y3529995D01*
X1170000Y3529995D02*
G01*
X1170000Y4149991D01*
X1789993Y3529995D02*
G01*
X1789993Y4149991D01*
G75*
G01*
X2081977Y1799034D02*
G02*
X2050994Y1830019I0J30983D01*
G75*
G01*
X2050994Y1910017D02*
G02*
X2081977Y1940999I30983J0D01*
G75*
G01*
X2298007Y1940954D02*
G02*
X2328987Y1909971I-3J-30983D01*
G75*
G01*
X2328987Y1829973D02*
G02*
X2298007Y1798985I-30983J-5D01*
G75*
G01*
X618018Y3350956D02*
G02*
X649000Y3319970I0J-30983D01*
G75*
G01*
X649000Y3239973D02*
G02*
X618018Y3208990I-30982J0D01*
G75*
G01*
X401988Y3209036D02*
G02*
X371008Y3240019I3J30983D01*
G75*
G01*
X371008Y3320016D02*
G02*
X401988Y3351004I30983J5D01*
G75*
G01*
X81981Y4409029D02*
G02*
X50998Y4440014I0J30982D01*
G75*
G01*
X50998Y4520011D02*
G02*
X81981Y4550994I30983J0D01*
G75*
G01*
X298011Y4550948D02*
G02*
X328991Y4519966I-3J-30982D01*
G75*
G01*
X328991Y4439968D02*
G02*
X298011Y4408980I-30983J-5D01*
G75*
G01*
X81981Y5299027D02*
G02*
X50998Y5330012I0J30983D01*
G75*
G01*
X50998Y5410009D02*
G02*
X81981Y5440992I30983J0D01*
G75*
G01*
X298011Y5440947D02*
G02*
X328991Y5409964I-3J-30983D01*
G75*
G01*
X328991Y5329966D02*
G02*
X298011Y5298978I-30983J-5D01*
G75*
G01*
X330551Y5509428D02*
G02*
X299568Y5478445I-30983J0D01*
G75*
G01*
X299568Y5620410D02*
G02*
X330551Y5589425I0J-30983D01*
G75*
G01*
X81981Y5479026D02*
G02*
X50998Y5510012I0J30983D01*
G75*
G01*
X50998Y5590009D02*
G02*
X81981Y5620992I30983J0D01*
G75*
G01*
X2777338Y1699997D02*
G03*
X2922623Y1699506I72657J3980D01*
D13*
G75*
G01*
X172042Y4067846D02*
G02*
X172296Y4067846I127J12445D01*
D12*
G75*
G01*
X180962Y4721972D02*
G02*
X149977Y4690989I-30983J0D01*
G75*
G01*
X69980Y4690989D02*
G02*
X38997Y4721972I0J30983D01*
G75*
G01*
X39042Y4938001D02*
G02*
X70025Y4968982I30983J-2D01*
G75*
G01*
X150023Y4968982D02*
G02*
X181011Y4938001I5J-30983D01*
D14*
G75*
G01
X2545156Y5383149D02*
G03X2545156Y5383149I-15011J0D01*
D12*
G75*
G01
X380009Y5829986D02*
G03X380009Y5829986I-10008J0D01*
D14*
G75*
G01
X2763418Y1627784D02*
G03X2763418Y1627784I-15011J0D01*
D12*
G75*
G01
X1673860Y3839997D02*
G03X1673860Y3839997I-193853J0D01*
G75*
G01
X1628115Y3839997D02*
G03X1628115Y3839997I-148107J0D01*
M02*
