G04 Layer: TopSolderMaskLayer*
G04 EasyEDA v6.5.50, 2025-07-27 16:18:48*
G04 6265f8cd8a4c44cf81f9f4f73efdf9d8,5db155e37078497989a25cdeaf243bf5,10*
G04 Gerber Generator version 0.2*
G04 Scale: 100 percent, Rotated: No, Reflected: No *
G04 Dimensions in millimeters *
G04 leading zeros omitted , absolute positions ,4 integer and 5 decimal *
%FSLAX45Y45*%
%MOMM*%

%AMMACRO1*4,1,8,-0.8711,-0.9008,-0.9008,-0.871,-0.9008,0.8711,-0.8711,0.9008,0.871,0.9008,0.9008,0.8711,0.9008,-0.871,0.871,-0.9008,-0.8711,-0.9008,0*%
%AMMACRO2*4,1,8,-0.4243,-0.4828,-0.454,-0.453,-0.454,0.4531,-0.4243,0.4828,0.4243,0.4828,0.454,0.4531,0.454,-0.453,0.4243,-0.4828,-0.4243,-0.4828,0*%
%AMMACRO3*4,1,8,-2.1211,-0.7508,-2.1508,-0.721,-2.1508,0.7211,-2.1211,0.7508,2.121,0.7508,2.1508,0.7211,2.1508,-0.721,2.121,-0.7508,-2.1211,-0.7508,0*%
%AMMACRO4*4,1,8,-0.4211,-0.5008,-0.4508,-0.471,-0.4508,0.4711,-0.4211,0.5008,0.421,0.5008,0.4508,0.4711,0.4508,-0.471,0.421,-0.5008,-0.4211,-0.5008,0*%
%AMMACRO5*4,1,8,-0.8611,-0.8108,-0.8908,-0.781,-0.8908,0.7811,-0.8611,0.8108,0.861,0.8108,0.8908,0.7811,0.8908,-0.781,0.861,-0.8108,-0.8611,-0.8108,0*%
%AMMACRO6*4,1,8,-0.557,-0.3168,-0.5868,-0.287,-0.5868,0.287,-0.557,0.3168,0.557,0.3168,0.5868,0.287,0.5868,-0.287,0.557,-0.3168,-0.557,-0.3168,0*%
%AMMACRO7*4,1,8,-2.1211,-1.0258,-2.1508,-0.996,-2.1508,0.9961,-2.1211,1.0258,2.121,1.0258,2.1508,0.9961,2.1508,-0.996,2.121,-1.0258,-2.1211,-1.0258,0*%
%AMMACRO8*4,1,8,-0.8086,-0.3868,-0.8383,-0.357,-0.8383,0.357,-0.8086,0.3868,0.8085,0.3868,0.8383,0.357,0.8383,-0.357,0.8085,-0.3868,-0.8086,-0.3868,0*%
%AMMACRO9*4,1,8,-0.4531,-0.454,-0.4828,-0.4243,-0.4828,0.4243,-0.4531,0.454,0.453,0.454,0.4828,0.4243,0.4828,-0.4243,0.453,-0.454,-0.4531,-0.454,0*%
%AMMACRO10*4,1,8,-0.4207,-0.25,-0.45,-0.2207,-0.45,0.2207,-0.4207,0.25,0.4207,0.25,0.45,0.2207,0.45,-0.2207,0.4207,-0.25,-0.4207,-0.25,0*%
%AMMACRO11*4,1,8,-0.2207,-0.45,-0.25,-0.4207,-0.25,0.4207,-0.2207,0.45,0.2207,0.45,0.25,0.4207,0.25,-0.4207,0.2207,-0.45,-0.2207,-0.45,0*%
%AMMACRO12*4,1,8,-0.3707,-0.4,-0.4,-0.3707,-0.4,0.3707,-0.3707,0.4,0.3707,0.4,0.4,0.3707,0.4,-0.3707,0.3707,-0.4,-0.3707,-0.4,0*%
%AMMACRO13*4,1,8,-0.7457,-0.775,-0.775,-0.7457,-0.775,0.7457,-0.7457,0.775,0.7457,0.775,0.775,0.7457,0.775,-0.7457,0.7457,-0.775,-0.7457,-0.775,0*%
%AMMACRO14*4,1,8,-0.3322,-0.6033,-0.3619,-0.5735,-0.3619,0.5735,-0.3322,0.6033,0.3322,0.6033,0.3619,0.5735,0.3619,-0.5735,0.3322,-0.6033,-0.3322,-0.6033,0*%
%AMMACRO15*4,1,8,-0.3322,-0.6033,-0.362,-0.5735,-0.362,0.5735,-0.3322,0.6033,0.3322,0.6033,0.362,0.5735,0.362,-0.5735,0.3322,-0.6033,-0.3322,-0.6033,0*%
%AMMACRO16*4,1,8,-0.6257,-0.2,-0.655,-0.1707,-0.655,0.1707,-0.6257,0.2,0.6257,0.2,0.655,0.1707,0.655,-0.1707,0.6257,-0.2,-0.6257,-0.2,0*%
%AMMACRO17*4,1,8,-0.7742,-1.2388,-0.8039,-1.209,-0.8039,1.2091,-0.7742,1.2388,0.7742,1.2388,0.8039,1.2091,0.8039,-1.209,0.7742,-1.2388,-0.7742,-1.2388,0*%
%AMMACRO18*4,1,8,-1.0207,-1.05,-1.05,-1.0207,-1.05,1.0207,-1.0207,1.05,1.0207,1.05,1.05,1.0207,1.05,-1.0207,1.0207,-1.05,-1.0207,-1.05,0*%
%AMMACRO19*4,1,8,-0.4711,-0.4508,-0.5008,-0.421,-0.5008,0.4211,-0.4711,0.4508,0.471,0.4508,0.5008,0.4211,0.5008,-0.421,0.471,-0.4508,-0.4711,-0.4508,0*%
%AMMACRO20*4,1,8,-0.5711,-1.3008,-0.6008,-1.271,-0.6008,1.2711,-0.5711,1.3008,0.571,1.3008,0.6008,1.2711,0.6008,-1.271,0.571,-1.3008,-0.5711,-1.3008,0*%
%ADD10MACRO1*%
%ADD11C,1.8016*%
%ADD12MACRO2*%
%ADD13MACRO3*%
%ADD14MACRO4*%
%ADD15MACRO5*%
%ADD16MACRO6*%
%ADD17MACRO7*%
%ADD18MACRO8*%
%ADD19MACRO9*%
%ADD20MACRO10*%
%ADD21MACRO11*%
%ADD22MACRO12*%
%ADD23MACRO13*%
%ADD24O,2.051812X0.6700012*%
%ADD25MACRO14*%
%ADD26MACRO15*%
%ADD27MACRO16*%
%ADD28O,2.3015956X1.2015978000000003*%
%ADD29O,2.4015954X1.2015978000000003*%
%ADD30MACRO17*%
%ADD31C,2.5016*%
%ADD32C,2.1000*%
%ADD33C,2.1000*%
%ADD34MACRO18*%
%ADD35MACRO19*%
%ADD36MACRO20*%
%ADD37C,0.0178*%

%LPD*%
D10*
G01*
X3669992Y4064993D03*
D11*
G01*
X3669995Y3810990D03*
G01*
X3669995Y3556990D03*
G01*
X3669995Y3302990D03*
G01*
X3669995Y3048990D03*
G01*
X3669995Y2794990D03*
D12*
G01*
X2774669Y4519990D03*
G01*
X2925319Y4519990D03*
D13*
G01*
X2473285Y2229995D03*
G01*
X3126703Y2229995D03*
D14*
G01*
X2119995Y1869996D03*
G01*
X2259995Y1869996D03*
G01*
X579998Y3279993D03*
G01*
X439999Y3279993D03*
G01*
X119999Y4479991D03*
G01*
X259999Y4479991D03*
G01*
X119999Y5369989D03*
G01*
X259999Y5369989D03*
G01*
X119997Y5549990D03*
G01*
X259976Y5549990D03*
D15*
G01*
X449999Y2673494D03*
G01*
X449999Y3066493D03*
D16*
G01*
X2514904Y5454992D03*
G01*
X2514904Y5549988D03*
G01*
X2514904Y5644984D03*
G01*
X2285085Y5644984D03*
G01*
X2285085Y5549988D03*
G01*
X2285085Y5454992D03*
D17*
G01*
X1659996Y1602496D03*
G01*
X1659996Y1897496D03*
D18*
G01*
X795629Y1320010D03*
G01*
X795629Y1620009D03*
G36*
X431678Y1369976D02*
G01*
X431558Y1369979D01*
X427106Y1370086D01*
X426874Y1370096D01*
X422432Y1370408D01*
X422198Y1370429D01*
X417774Y1370949D01*
X417542Y1370982D01*
X413148Y1371709D01*
X412915Y1371754D01*
X408559Y1372689D01*
X408332Y1372743D01*
X404027Y1373878D01*
X403801Y1373944D01*
X399552Y1375280D01*
X399331Y1375356D01*
X395150Y1376890D01*
X394929Y1376977D01*
X390824Y1378706D01*
X390613Y1378800D01*
X386593Y1380718D01*
X386382Y1380825D01*
X382457Y1382930D01*
X382254Y1383047D01*
X378432Y1385336D01*
X378233Y1385460D01*
X374522Y1387924D01*
X374332Y1388056D01*
X370740Y1390690D01*
X370552Y1390835D01*
X367090Y1393634D01*
X366910Y1393786D01*
X363580Y1396748D01*
X363410Y1396908D01*
X360225Y1400020D01*
X360062Y1400185D01*
X357024Y1403443D01*
X356867Y1403619D01*
X353987Y1407015D01*
X353839Y1407198D01*
X351121Y1410726D01*
X350984Y1410916D01*
X348434Y1414569D01*
X348302Y1414764D01*
X345927Y1418531D01*
X345808Y1418732D01*
X343611Y1422608D01*
X343501Y1422814D01*
X341487Y1426786D01*
X341386Y1426999D01*
X339562Y1431063D01*
X339470Y1431277D01*
X337837Y1435420D01*
X337756Y1435643D01*
X336321Y1439859D01*
X336250Y1440080D01*
X335013Y1444360D01*
X334954Y1444589D01*
X333921Y1448922D01*
X333872Y1449151D01*
X333042Y1453525D01*
X333001Y1453756D01*
X332376Y1458168D01*
X332351Y1458401D01*
X331934Y1462836D01*
X331917Y1463070D01*
X331708Y1467518D01*
X331703Y1467751D01*
X331703Y1472206D01*
X331708Y1472440D01*
X331917Y1476888D01*
X331934Y1477121D01*
X332351Y1481556D01*
X332376Y1481790D01*
X333001Y1486202D01*
X333042Y1486433D01*
X333872Y1490807D01*
X333921Y1491035D01*
X334954Y1495369D01*
X335013Y1495597D01*
X336250Y1499877D01*
X336321Y1500098D01*
X337756Y1504314D01*
X337837Y1504538D01*
X339470Y1508681D01*
X339562Y1508894D01*
X341386Y1512958D01*
X341487Y1513171D01*
X343501Y1517144D01*
X343611Y1517350D01*
X345808Y1521226D01*
X345927Y1521426D01*
X348302Y1525193D01*
X348434Y1525389D01*
X350984Y1529041D01*
X351121Y1529232D01*
X353839Y1532760D01*
X353987Y1532943D01*
X356867Y1536339D01*
X357024Y1536514D01*
X360062Y1539773D01*
X360225Y1539938D01*
X363410Y1543050D01*
X363580Y1543210D01*
X366910Y1546171D01*
X367090Y1546324D01*
X370552Y1549123D01*
X370740Y1549267D01*
X374332Y1551901D01*
X374522Y1552033D01*
X378233Y1554497D01*
X378432Y1554622D01*
X382254Y1556910D01*
X382457Y1557027D01*
X386382Y1559133D01*
X386593Y1559239D01*
X390613Y1561157D01*
X390824Y1561251D01*
X394929Y1562981D01*
X395150Y1563067D01*
X399331Y1564601D01*
X399552Y1564678D01*
X403801Y1566014D01*
X404027Y1566080D01*
X408332Y1567215D01*
X408559Y1567268D01*
X412915Y1568203D01*
X413148Y1568249D01*
X417542Y1568975D01*
X417774Y1569008D01*
X422198Y1569529D01*
X422432Y1569549D01*
X426874Y1569862D01*
X427106Y1569872D01*
X431558Y1569979D01*
X431678Y1569981D01*
X617098Y1569981D01*
X617217Y1569979D01*
X621670Y1569872D01*
X621901Y1569862D01*
X626343Y1569549D01*
X626577Y1569529D01*
X631002Y1569008D01*
X631233Y1568975D01*
X635627Y1568249D01*
X635861Y1568203D01*
X640217Y1567268D01*
X640443Y1567215D01*
X644748Y1566080D01*
X644974Y1566014D01*
X649223Y1564678D01*
X649444Y1564601D01*
X653625Y1563067D01*
X653846Y1562981D01*
X657951Y1561251D01*
X658162Y1561157D01*
X662183Y1559239D01*
X662393Y1559133D01*
X666318Y1557027D01*
X666521Y1556910D01*
X670344Y1554622D01*
X670542Y1554497D01*
X674253Y1552033D01*
X674443Y1551901D01*
X678035Y1549267D01*
X678223Y1549123D01*
X681685Y1546324D01*
X681865Y1546171D01*
X685195Y1543210D01*
X685365Y1543050D01*
X688550Y1539938D01*
X688713Y1539773D01*
X691751Y1536514D01*
X691908Y1536339D01*
X694789Y1532943D01*
X694936Y1532760D01*
X697654Y1529232D01*
X697791Y1529041D01*
X700341Y1525389D01*
X700473Y1525193D01*
X702848Y1521426D01*
X702967Y1521226D01*
X705164Y1517350D01*
X705274Y1517144D01*
X707288Y1513171D01*
X707392Y1512953D01*
X707486Y1512730D01*
X707570Y1512501D01*
X707641Y1512267D01*
X707702Y1512031D01*
X708634Y1507982D01*
X874384Y1507982D01*
X874875Y1507959D01*
X875360Y1507886D01*
X875837Y1507766D01*
X876300Y1507601D01*
X876741Y1507393D01*
X877163Y1507139D01*
X877557Y1506847D01*
X877920Y1506517D01*
X878250Y1506153D01*
X878542Y1505760D01*
X878796Y1505338D01*
X879005Y1504896D01*
X879170Y1504434D01*
X879289Y1503956D01*
X879363Y1503471D01*
X879386Y1502981D01*
X879386Y1436982D01*
X879363Y1436491D01*
X879289Y1436006D01*
X879170Y1435529D01*
X879005Y1435066D01*
X878796Y1434625D01*
X878542Y1434203D01*
X878250Y1433809D01*
X877920Y1433446D01*
X877557Y1433116D01*
X877163Y1432824D01*
X876741Y1432570D01*
X876300Y1432361D01*
X875837Y1432196D01*
X875360Y1432077D01*
X874875Y1432003D01*
X874384Y1431980D01*
X708634Y1431980D01*
X707702Y1427927D01*
X707641Y1427690D01*
X707570Y1427459D01*
X707486Y1427228D01*
X707392Y1427005D01*
X707288Y1426786D01*
X705274Y1422814D01*
X705164Y1422608D01*
X702967Y1418732D01*
X702848Y1418531D01*
X700473Y1414764D01*
X700341Y1414569D01*
X697791Y1410916D01*
X697654Y1410726D01*
X694936Y1407198D01*
X694789Y1407015D01*
X691908Y1403619D01*
X691751Y1403443D01*
X688713Y1400185D01*
X688550Y1400020D01*
X685365Y1396908D01*
X685195Y1396748D01*
X681865Y1393786D01*
X681685Y1393634D01*
X678223Y1390835D01*
X678035Y1390690D01*
X674443Y1388056D01*
X674253Y1387924D01*
X670542Y1385460D01*
X670344Y1385336D01*
X666521Y1383047D01*
X666318Y1382930D01*
X662393Y1380825D01*
X662183Y1380718D01*
X658162Y1378800D01*
X657951Y1378706D01*
X653846Y1376977D01*
X653625Y1376890D01*
X649444Y1375356D01*
X649223Y1375280D01*
X644974Y1373944D01*
X644748Y1373878D01*
X640443Y1372743D01*
X640217Y1372689D01*
X635861Y1371754D01*
X635627Y1371709D01*
X631233Y1370982D01*
X631002Y1370949D01*
X626577Y1370429D01*
X626343Y1370408D01*
X621901Y1370096D01*
X621670Y1370086D01*
X617217Y1369979D01*
X617098Y1369976D01*
G37*
D12*
G01*
X3205318Y4339991D03*
G01*
X3054668Y4339991D03*
D19*
G01*
X1119997Y1465322D03*
G01*
X1119997Y1314672D03*
G01*
X3479993Y4485316D03*
G01*
X3479993Y4334666D03*
G01*
X3479993Y5885313D03*
G01*
X3479993Y5734663D03*
D20*
G01*
X479999Y5829988D03*
G01*
X479999Y5749988D03*
G01*
X479999Y5669988D03*
G01*
X479999Y5589988D03*
G01*
X479999Y5509988D03*
G01*
X479999Y5429989D03*
G01*
X479999Y5349989D03*
G01*
X479999Y5269989D03*
G01*
X479999Y5189989D03*
G01*
X479999Y5109989D03*
G01*
X479999Y5029989D03*
D21*
G01*
X589998Y4939990D03*
G01*
X669998Y4939990D03*
G01*
X749998Y4939990D03*
G01*
X829998Y4939990D03*
G01*
X909998Y4939990D03*
G01*
X989998Y4939990D03*
G01*
X1069997Y4939990D03*
G01*
X1149997Y4939990D03*
G01*
X1229997Y4939990D03*
G01*
X1309997Y4939990D03*
G01*
X1389997Y4939990D03*
G01*
X1469997Y4939990D03*
G01*
X1549996Y4939990D03*
D20*
G01*
X1659996Y5029989D03*
G01*
X1659996Y5109989D03*
G01*
X1659996Y5189989D03*
G01*
X1659996Y5269989D03*
G01*
X1659996Y5349989D03*
G01*
X1659996Y5429989D03*
G01*
X1659996Y5509988D03*
G01*
X1659996Y5589988D03*
G01*
X1659996Y5669988D03*
G01*
X1659996Y5749988D03*
G01*
X1659996Y5829988D03*
D21*
G01*
X1549996Y5919988D03*
G01*
X1469997Y5919988D03*
G01*
X1389997Y5919988D03*
G01*
X1309997Y5919988D03*
G01*
X1229997Y5919988D03*
G01*
X1149997Y5919988D03*
G01*
X1069997Y5919988D03*
G01*
X989998Y5919988D03*
G01*
X909998Y5919988D03*
G01*
X829998Y5919988D03*
G01*
X749998Y5919988D03*
G01*
X669998Y5919988D03*
G01*
X589998Y5919988D03*
D22*
G01*
X1664997Y5924989D03*
G01*
X1664997Y4934988D03*
G01*
X474997Y4934988D03*
G01*
X474997Y5924989D03*
G36*
X799985Y5549983D02*
G01*
X799495Y5550006D01*
X799010Y5550080D01*
X798532Y5550199D01*
X798070Y5550364D01*
X797628Y5550573D01*
X797206Y5550827D01*
X796813Y5551119D01*
X796450Y5551449D01*
X796119Y5551812D01*
X795827Y5552206D01*
X795573Y5552627D01*
X795365Y5553069D01*
X795200Y5553532D01*
X795080Y5554009D01*
X795007Y5554494D01*
X794984Y5554985D01*
X794984Y5639983D01*
X795014Y5640542D01*
X795108Y5641096D01*
X795263Y5641634D01*
X795479Y5642152D01*
X795751Y5642645D01*
X796076Y5643102D01*
X796450Y5643519D01*
X856449Y5703519D01*
X856866Y5703892D01*
X857323Y5704217D01*
X857816Y5704489D01*
X858334Y5704705D01*
X858873Y5704860D01*
X859426Y5704954D01*
X859985Y5704984D01*
X944984Y5704984D01*
X945474Y5704961D01*
X945959Y5704888D01*
X946437Y5704768D01*
X946899Y5704603D01*
X947341Y5704395D01*
X947762Y5704141D01*
X948156Y5703849D01*
X948519Y5703519D01*
X948850Y5703155D01*
X949142Y5702762D01*
X949396Y5702340D01*
X949604Y5701898D01*
X949769Y5701436D01*
X949888Y5700958D01*
X949962Y5700473D01*
X949985Y5699983D01*
X949985Y5554985D01*
X949962Y5554494D01*
X949888Y5554009D01*
X949769Y5553532D01*
X949604Y5553069D01*
X949396Y5552627D01*
X949142Y5552206D01*
X948850Y5551812D01*
X948519Y5551449D01*
X948156Y5551119D01*
X947762Y5550827D01*
X947341Y5550573D01*
X946899Y5550364D01*
X946437Y5550199D01*
X945959Y5550080D01*
X945474Y5550006D01*
X944984Y5549983D01*
G37*
D23*
G01*
X1267485Y5232483D03*
G01*
X1069985Y5232483D03*
G01*
X872484Y5232483D03*
G01*
X872484Y5429984D03*
G01*
X1069985Y5627484D03*
G01*
X1267485Y5627484D03*
G01*
X1267485Y5429984D03*
G01*
X1069985Y5429984D03*
D24*
G01*
X2579497Y1640484D03*
G01*
X2579497Y1513484D03*
G01*
X2579497Y1386484D03*
G01*
X2579497Y1259484D03*
G01*
X3120516Y1640484D03*
G01*
X3120516Y1513484D03*
G01*
X3120516Y1386484D03*
G01*
X3120516Y1259484D03*
D25*
G01*
X444972Y4349993D03*
G01*
X255023Y4349993D03*
G01*
X255021Y4089989D03*
D26*
G01*
X349935Y4089989D03*
D25*
G01*
X444967Y4089991D03*
D27*
G01*
X3192362Y5284970D03*
G01*
X3192362Y5234932D03*
G01*
X3192362Y5184970D03*
G01*
X3192362Y5134957D03*
G01*
X3192362Y5084970D03*
G01*
X3192362Y5034958D03*
G01*
X3192362Y4984970D03*
G01*
X3192362Y4934958D03*
G36*
X3131860Y4754963D02*
G01*
X3131370Y4754989D01*
X3130885Y4755060D01*
X3130410Y4755179D01*
X3129948Y4755344D01*
X3129503Y4755555D01*
X3129081Y4755807D01*
X3128688Y4756099D01*
X3128324Y4756429D01*
X3127994Y4756792D01*
X3127702Y4757186D01*
X3127451Y4757607D01*
X3127240Y4758052D01*
X3127075Y4758514D01*
X3126955Y4758989D01*
X3126884Y4759474D01*
X3126859Y4759965D01*
X3126861Y4759965D01*
X3126861Y4819962D01*
X3126859Y4819962D01*
X3126884Y4820452D01*
X3126955Y4820937D01*
X3127075Y4821412D01*
X3127240Y4821875D01*
X3127451Y4822319D01*
X3127702Y4822741D01*
X3127994Y4823134D01*
X3128324Y4823498D01*
X3128688Y4823828D01*
X3129081Y4824120D01*
X3129503Y4824371D01*
X3129948Y4824582D01*
X3130410Y4824747D01*
X3130885Y4824867D01*
X3131370Y4824938D01*
X3131860Y4824963D01*
X3131860Y4824961D01*
X3252861Y4824961D01*
X3252861Y4824963D01*
X3253351Y4824938D01*
X3253836Y4824867D01*
X3254311Y4824747D01*
X3254773Y4824582D01*
X3255218Y4824371D01*
X3255639Y4824120D01*
X3256033Y4823828D01*
X3256396Y4823498D01*
X3256727Y4823134D01*
X3257019Y4822741D01*
X3257270Y4822319D01*
X3257481Y4821875D01*
X3257646Y4821412D01*
X3257765Y4820937D01*
X3257837Y4820452D01*
X3257862Y4819962D01*
X3257862Y4759965D01*
X3257837Y4759474D01*
X3257765Y4758989D01*
X3257646Y4758514D01*
X3257481Y4758052D01*
X3257270Y4757607D01*
X3257019Y4757186D01*
X3256727Y4756792D01*
X3256396Y4756429D01*
X3256033Y4756099D01*
X3255639Y4755807D01*
X3255218Y4755555D01*
X3254773Y4755344D01*
X3254311Y4755179D01*
X3253836Y4755060D01*
X3253351Y4754989D01*
X3252861Y4754963D01*
G37*
G36*
X3131860Y4834973D02*
G01*
X3131370Y4834999D01*
X3130885Y4835070D01*
X3130410Y4835189D01*
X3129948Y4835354D01*
X3129503Y4835565D01*
X3129081Y4835817D01*
X3128688Y4836109D01*
X3128324Y4836439D01*
X3127994Y4836802D01*
X3127702Y4837196D01*
X3127451Y4837617D01*
X3127240Y4838062D01*
X3127075Y4838524D01*
X3126955Y4838999D01*
X3126884Y4839484D01*
X3126859Y4839975D01*
X3126861Y4839975D01*
X3126861Y4899972D01*
X3126859Y4899972D01*
X3126884Y4900462D01*
X3126955Y4900947D01*
X3127075Y4901422D01*
X3127240Y4901885D01*
X3127451Y4902329D01*
X3127702Y4902751D01*
X3127994Y4903144D01*
X3128324Y4903508D01*
X3128688Y4903838D01*
X3129081Y4904130D01*
X3129503Y4904381D01*
X3129948Y4904592D01*
X3130410Y4904757D01*
X3130885Y4904877D01*
X3131370Y4904948D01*
X3131860Y4904973D01*
X3131860Y4904971D01*
X3252861Y4904971D01*
X3252861Y4904973D01*
X3253351Y4904948D01*
X3253836Y4904877D01*
X3254311Y4904757D01*
X3254773Y4904592D01*
X3255218Y4904381D01*
X3255639Y4904130D01*
X3256033Y4903838D01*
X3256396Y4903508D01*
X3256727Y4903144D01*
X3257019Y4902751D01*
X3257270Y4902329D01*
X3257481Y4901885D01*
X3257646Y4901422D01*
X3257765Y4900947D01*
X3257837Y4900462D01*
X3257862Y4899972D01*
X3257862Y4839975D01*
X3257837Y4839484D01*
X3257765Y4838999D01*
X3257646Y4838524D01*
X3257481Y4838062D01*
X3257270Y4837617D01*
X3257019Y4837196D01*
X3256727Y4836802D01*
X3256396Y4836439D01*
X3256033Y4836109D01*
X3255639Y4835817D01*
X3255218Y4835565D01*
X3254773Y4835354D01*
X3254311Y4835189D01*
X3253836Y4835070D01*
X3253351Y4834999D01*
X3252861Y4834973D01*
G37*
G36*
X3131860Y5314960D02*
G01*
X3131370Y5314985D01*
X3130885Y5315056D01*
X3130410Y5315176D01*
X3129948Y5315341D01*
X3129503Y5315551D01*
X3129081Y5315803D01*
X3128688Y5316095D01*
X3128324Y5316425D01*
X3127994Y5316788D01*
X3127702Y5317182D01*
X3127451Y5317604D01*
X3127240Y5318048D01*
X3127075Y5318511D01*
X3126955Y5318986D01*
X3126884Y5319471D01*
X3126859Y5319961D01*
X3126861Y5319961D01*
X3126861Y5379956D01*
X3126859Y5379956D01*
X3126884Y5380446D01*
X3126955Y5380931D01*
X3127075Y5381406D01*
X3127240Y5381868D01*
X3127451Y5382313D01*
X3127702Y5382734D01*
X3127994Y5383128D01*
X3128324Y5383491D01*
X3128688Y5383822D01*
X3129081Y5384114D01*
X3129503Y5384365D01*
X3129948Y5384576D01*
X3130410Y5384741D01*
X3130885Y5384860D01*
X3131370Y5384932D01*
X3131860Y5384957D01*
X3131860Y5384954D01*
X3252863Y5384954D01*
X3252863Y5384957D01*
X3253353Y5384932D01*
X3253839Y5384860D01*
X3254314Y5384741D01*
X3254776Y5384576D01*
X3255220Y5384365D01*
X3255642Y5384114D01*
X3256036Y5383822D01*
X3256399Y5383491D01*
X3256729Y5383128D01*
X3257021Y5382734D01*
X3257273Y5382313D01*
X3257483Y5381868D01*
X3257649Y5381406D01*
X3257768Y5380931D01*
X3257839Y5380446D01*
X3257864Y5379956D01*
X3257864Y5319961D01*
X3257839Y5319471D01*
X3257768Y5318986D01*
X3257649Y5318511D01*
X3257483Y5318048D01*
X3257273Y5317604D01*
X3257021Y5317182D01*
X3256729Y5316788D01*
X3256399Y5316425D01*
X3256036Y5316095D01*
X3255642Y5315803D01*
X3255220Y5315551D01*
X3254776Y5315341D01*
X3254314Y5315176D01*
X3253839Y5315056D01*
X3253353Y5314985D01*
X3252863Y5314960D01*
G37*
G36*
X3131614Y5394985D02*
G01*
X3131124Y5395010D01*
X3130638Y5395081D01*
X3130163Y5395201D01*
X3129701Y5395366D01*
X3129257Y5395577D01*
X3128835Y5395828D01*
X3128441Y5396120D01*
X3128078Y5396450D01*
X3127748Y5396814D01*
X3127456Y5397207D01*
X3127204Y5397629D01*
X3126993Y5398074D01*
X3126828Y5398536D01*
X3126709Y5399011D01*
X3126638Y5399496D01*
X3126613Y5399986D01*
X3126615Y5399986D01*
X3126615Y5459984D01*
X3126613Y5459984D01*
X3126638Y5460474D01*
X3126709Y5460959D01*
X3126828Y5461434D01*
X3126993Y5461896D01*
X3127204Y5462341D01*
X3127456Y5462762D01*
X3127748Y5463156D01*
X3128078Y5463519D01*
X3128441Y5463849D01*
X3128835Y5464141D01*
X3129257Y5464393D01*
X3129701Y5464604D01*
X3130163Y5464769D01*
X3130638Y5464888D01*
X3131124Y5464959D01*
X3131614Y5464985D01*
X3131614Y5464982D01*
X3252614Y5464982D01*
X3252614Y5464985D01*
X3253104Y5464959D01*
X3253590Y5464888D01*
X3254065Y5464769D01*
X3254527Y5464604D01*
X3254971Y5464393D01*
X3255393Y5464141D01*
X3255787Y5463849D01*
X3256150Y5463519D01*
X3256480Y5463156D01*
X3256772Y5462762D01*
X3257024Y5462341D01*
X3257235Y5461896D01*
X3257400Y5461434D01*
X3257519Y5460959D01*
X3257590Y5460474D01*
X3257616Y5459984D01*
X3257616Y5399986D01*
X3257590Y5399496D01*
X3257519Y5399011D01*
X3257400Y5398536D01*
X3257235Y5398074D01*
X3257024Y5397629D01*
X3256772Y5397207D01*
X3256480Y5396814D01*
X3256150Y5396450D01*
X3255787Y5396120D01*
X3255393Y5395828D01*
X3254971Y5395577D01*
X3254527Y5395366D01*
X3254065Y5395201D01*
X3253590Y5395081D01*
X3253104Y5395010D01*
X3252614Y5394985D01*
G37*
D28*
G01*
X3252850Y4677994D03*
G01*
X3252850Y5541975D03*
D29*
G01*
X3667861Y5542000D03*
G01*
X3667861Y4677994D03*
D30*
G01*
X433936Y3559992D03*
G01*
X806061Y3559992D03*
G01*
X636061Y2139995D03*
G01*
X263936Y2139995D03*
D31*
G01*
X2200020Y2680004D03*
G01*
X840003Y2680004D03*
D32*
G01*
X1499514Y679983D03*
G01*
X2642514Y679983D03*
G01*
X2261514Y679983D03*
G01*
X1880514Y679983D03*
G01*
X1118514Y679983D03*
G01*
X737514Y679983D03*
D33*
G01*
X3149498Y609980D03*
D34*
G01*
X3530493Y609998D03*
D19*
G01*
X2659994Y3565317D03*
G01*
X2659994Y3414668D03*
D12*
G01*
X2665319Y3759992D03*
G01*
X2514669Y3759992D03*
D19*
G01*
X3009993Y3565317D03*
G01*
X3009993Y3414668D03*
D12*
G01*
X3005319Y3759992D03*
G01*
X2854669Y3759992D03*
G01*
X2514669Y3949992D03*
G01*
X2665319Y3949992D03*
G01*
X3005319Y3949992D03*
G01*
X2854669Y3949992D03*
D35*
G01*
X109999Y4759990D03*
G01*
X109999Y4899990D03*
D15*
G01*
X2039995Y3756492D03*
G01*
X2039995Y3363493D03*
D19*
G01*
X319999Y5105314D03*
G01*
X319999Y4954664D03*
D36*
G01*
X1704990Y4264991D03*
G01*
X1704990Y3414993D03*
G01*
X1255003Y4264991D03*
G01*
X1255003Y3414993D03*
M02*
