G04 Layer: TopPasteMaskLayer*
G04 EasyEDA v6.5.50, 2025-07-27 16:18:48*
G04 6265f8cd8a4c44cf81f9f4f73efdf9d8,5db155e37078497989a25cdeaf243bf5,10*
G04 Gerber Generator version 0.2*
G04 Scale: 100 percent, Rotated: No, Reflected: No *
G04 Dimensions in millimeters *
G04 leading zeros omitted , absolute positions ,4 integer and 5 decimal *
%FSLAX45Y45*%
%MOMM*%

%AMMACRO1*21,1,$1,$2,0,0,$3*%
%AMMACRO2*4,1,5,-0.725,0.125,-0.125,0.725,0.725,0.725,0.725,-0.725,-0.725,-0.725,-0.725,0.125,0*%
%ADD10R,4.2000X1.4000*%
%ADD11R,0.8000X0.9000*%
%ADD12R,1.6800X1.5200*%
%ADD13R,1.0720X0.5320*%
%ADD14R,4.2000X1.9500*%
%ADD15MACRO1,0.672X1.575X90.0000*%
%ADD16R,0.8000X0.4000*%
%ADD17R,0.4000X0.8000*%
%ADD18R,0.7000X0.7000*%
%ADD19MACRO2*%
%ADD20R,1.4500X1.4500*%
%ADD21O,1.950212X0.5684012*%
%ADD22MACRO1,0.6223X1.1049X0.0000*%
%ADD23MACRO1,2.376X1.5063X-90.0000*%
%ADD24MACRO1,2.376X1.5063X90.0000*%
%ADD25R,0.9000X0.8000*%
%ADD26R,1.1000X2.5000*%
%ADD27R,0.0128X2.5000*%

%LPD*%
G36*
X2730500Y4564989D02*
G01*
X2725470Y4560011D01*
X2725470Y4480001D01*
X2730500Y4474972D01*
X2810510Y4474972D01*
X2815488Y4480001D01*
X2815488Y4502810D01*
X2778506Y4502810D01*
X2778506Y4535779D01*
X2815488Y4535779D01*
X2815488Y4560011D01*
X2810510Y4564989D01*
G37*
G36*
X2889504Y4564989D02*
G01*
X2884474Y4560011D01*
X2884474Y4537202D01*
X2921508Y4537202D01*
X2921508Y4504182D01*
X2884474Y4504182D01*
X2884474Y4480001D01*
X2889504Y4474972D01*
X2969514Y4474972D01*
X2974492Y4480001D01*
X2974492Y4560011D01*
X2969514Y4564989D01*
G37*
G36*
X3169513Y4385005D02*
G01*
X3164484Y4379976D01*
X3164484Y4357217D01*
X3201517Y4357217D01*
X3201517Y4324197D01*
X3164484Y4324197D01*
X3164484Y4299966D01*
X3169513Y4294987D01*
X3249472Y4294987D01*
X3254502Y4299966D01*
X3254502Y4379976D01*
X3249472Y4385005D01*
G37*
G36*
X3010509Y4385005D02*
G01*
X3005480Y4379976D01*
X3005480Y4300016D01*
X3010509Y4294987D01*
X3090468Y4294987D01*
X3095498Y4300016D01*
X3095498Y4322775D01*
X3058515Y4322775D01*
X3058515Y4355795D01*
X3095498Y4355795D01*
X3095498Y4379976D01*
X3090468Y4385005D01*
G37*
G36*
X1080008Y1514500D02*
G01*
X1074978Y1509522D01*
X1074978Y1429512D01*
X1080008Y1424482D01*
X1102817Y1424482D01*
X1102817Y1461516D01*
X1135786Y1461516D01*
X1135786Y1424482D01*
X1160018Y1424482D01*
X1164996Y1429512D01*
X1164996Y1509522D01*
X1160018Y1514500D01*
G37*
G36*
X1080008Y1355496D02*
G01*
X1074978Y1350518D01*
X1074978Y1270508D01*
X1080008Y1265478D01*
X1160018Y1265478D01*
X1164996Y1270508D01*
X1164996Y1350518D01*
X1160018Y1355496D01*
X1137208Y1355496D01*
X1137208Y1318514D01*
X1104188Y1318514D01*
X1104188Y1355496D01*
G37*
G36*
X3439972Y4534509D02*
G01*
X3434994Y4529480D01*
X3434994Y4449470D01*
X3439972Y4444492D01*
X3462782Y4444492D01*
X3462782Y4481474D01*
X3495801Y4481474D01*
X3495801Y4444492D01*
X3519982Y4444492D01*
X3525012Y4449470D01*
X3525012Y4529480D01*
X3519982Y4534509D01*
G37*
G36*
X3439972Y4375505D02*
G01*
X3434994Y4370476D01*
X3434994Y4290466D01*
X3439972Y4285488D01*
X3519982Y4285488D01*
X3525012Y4290466D01*
X3525012Y4370476D01*
X3519982Y4375505D01*
X3497173Y4375505D01*
X3497173Y4338472D01*
X3464204Y4338472D01*
X3464204Y4375505D01*
G37*
G36*
X3439972Y5934506D02*
G01*
X3434994Y5929477D01*
X3434994Y5849467D01*
X3439972Y5844489D01*
X3462782Y5844489D01*
X3462782Y5881471D01*
X3495801Y5881471D01*
X3495801Y5844489D01*
X3519982Y5844489D01*
X3525012Y5849467D01*
X3525012Y5929477D01*
X3519982Y5934506D01*
G37*
G36*
X3439972Y5775502D02*
G01*
X3434994Y5770473D01*
X3434994Y5690463D01*
X3439972Y5685485D01*
X3519982Y5685485D01*
X3525012Y5690463D01*
X3525012Y5770473D01*
X3519982Y5775502D01*
X3497173Y5775502D01*
X3497173Y5738469D01*
X3464204Y5738469D01*
X3464204Y5775502D01*
G37*
G36*
X3131870Y5379974D02*
G01*
X3131870Y5319979D01*
X3252876Y5319979D01*
X3252876Y5379974D01*
G37*
G36*
X3131870Y5249926D02*
G01*
X3131870Y5219954D01*
X3252876Y5219954D01*
X3252876Y5249926D01*
G37*
G36*
X3131870Y5299964D02*
G01*
X3131870Y5269992D01*
X3252876Y5269992D01*
X3252876Y5299964D01*
G37*
G36*
X3131870Y5199989D02*
G01*
X3131870Y5169966D01*
X3252876Y5169966D01*
X3252876Y5199989D01*
G37*
G36*
X3131870Y4899964D02*
G01*
X3131870Y4839970D01*
X3252876Y4839970D01*
X3252876Y4899964D01*
G37*
G36*
X3131870Y4949952D02*
G01*
X3131870Y4919980D01*
X3252876Y4919980D01*
X3252876Y4949952D01*
G37*
G36*
X3131870Y5149951D02*
G01*
X3131870Y5119979D01*
X3252876Y5119979D01*
X3252876Y5149951D01*
G37*
G36*
X3131870Y4999990D02*
G01*
X3131870Y4969967D01*
X3252876Y4969967D01*
X3252876Y4999990D01*
G37*
G36*
X3131870Y4819954D02*
G01*
X3131870Y4759960D01*
X3252876Y4759960D01*
X3252876Y4819954D01*
G37*
G36*
X3131870Y5049977D02*
G01*
X3131870Y5019954D01*
X3252876Y5019954D01*
X3252876Y5049977D01*
G37*
G36*
X3131870Y5099964D02*
G01*
X3131870Y5069992D01*
X3252876Y5069992D01*
X3252876Y5099964D01*
G37*
G36*
X3131870Y5459984D02*
G01*
X3131870Y5399989D01*
X3252876Y5399989D01*
X3252876Y5459984D01*
G37*
G36*
X3197860Y4732985D02*
G01*
X3192373Y4732731D01*
X3186988Y4731918D01*
X3181654Y4730546D01*
X3176524Y4728667D01*
X3171545Y4726279D01*
X3166872Y4723434D01*
X3162503Y4720132D01*
X3158490Y4716373D01*
X3154883Y4712258D01*
X3151682Y4707839D01*
X3148939Y4703064D01*
X3146653Y4698085D01*
X3144926Y4692904D01*
X3143707Y4687519D01*
X3142996Y4682083D01*
X3142894Y4676597D01*
X3143300Y4671161D01*
X3144266Y4665726D01*
X3145739Y4660493D01*
X3147720Y4655362D01*
X3150209Y4650486D01*
X3153206Y4645863D01*
X3156610Y4641596D01*
X3160471Y4637684D01*
X3164636Y4634128D01*
X3169208Y4631029D01*
X3173984Y4628438D01*
X3179064Y4626305D01*
X3184296Y4624679D01*
X3189681Y4623612D01*
X3195116Y4623054D01*
X3307842Y4623003D01*
X3313328Y4623257D01*
X3318764Y4624070D01*
X3324098Y4625441D01*
X3329228Y4627321D01*
X3334156Y4629708D01*
X3338829Y4632553D01*
X3343198Y4635855D01*
X3347212Y4639564D01*
X3350869Y4643678D01*
X3354070Y4648149D01*
X3356813Y4652873D01*
X3359048Y4657902D01*
X3360826Y4663084D01*
X3362045Y4668418D01*
X3362706Y4673854D01*
X3362858Y4679340D01*
X3362451Y4684826D01*
X3361486Y4690211D01*
X3360013Y4695494D01*
X3357981Y4700625D01*
X3355492Y4705502D01*
X3352546Y4710074D01*
X3349091Y4714392D01*
X3345281Y4718304D01*
X3341065Y4721809D01*
X3336544Y4724908D01*
X3331718Y4727549D01*
X3326688Y4729683D01*
X3321456Y4731308D01*
X3316071Y4732375D01*
X3310585Y4732934D01*
G37*
G36*
X3197860Y5596991D02*
G01*
X3192373Y5596686D01*
X3186988Y5595874D01*
X3181654Y5594502D01*
X3176524Y5592673D01*
X3171545Y5590286D01*
X3166872Y5587390D01*
X3162503Y5584088D01*
X3158490Y5580380D01*
X3154883Y5576265D01*
X3151682Y5571794D01*
X3148939Y5567070D01*
X3146653Y5562041D01*
X3144926Y5556859D01*
X3143707Y5551525D01*
X3142996Y5546090D01*
X3142894Y5540603D01*
X3143300Y5535117D01*
X3144266Y5529732D01*
X3145739Y5524449D01*
X3147720Y5519369D01*
X3150209Y5514492D01*
X3153206Y5509869D01*
X3156610Y5505551D01*
X3160471Y5501640D01*
X3164636Y5498134D01*
X3169208Y5495036D01*
X3173984Y5492394D01*
X3179064Y5490260D01*
X3184296Y5488686D01*
X3189681Y5487568D01*
X3195116Y5487060D01*
X3307842Y5486958D01*
X3313328Y5487263D01*
X3318764Y5488076D01*
X3324098Y5489397D01*
X3329228Y5491276D01*
X3334156Y5493664D01*
X3338829Y5496509D01*
X3343198Y5499811D01*
X3347212Y5503570D01*
X3350869Y5507685D01*
X3354070Y5512104D01*
X3356813Y5516880D01*
X3359048Y5521858D01*
X3360826Y5527090D01*
X3362045Y5532424D01*
X3362706Y5537860D01*
X3362858Y5543346D01*
X3362451Y5548782D01*
X3361486Y5554218D01*
X3360013Y5559501D01*
X3357981Y5564581D01*
X3355492Y5569458D01*
X3352546Y5574080D01*
X3349091Y5578348D01*
X3345281Y5582310D01*
X3341065Y5585815D01*
X3336544Y5588914D01*
X3331718Y5591505D01*
X3326688Y5593638D01*
X3321456Y5595264D01*
X3316071Y5596331D01*
X3310585Y5596890D01*
G37*
G36*
X3607866Y4732985D02*
G01*
X3602380Y4732731D01*
X3596995Y4731918D01*
X3591661Y4730546D01*
X3586530Y4728667D01*
X3581552Y4726279D01*
X3576878Y4723434D01*
X3572510Y4720132D01*
X3568496Y4716373D01*
X3564890Y4712258D01*
X3561689Y4707839D01*
X3558946Y4703064D01*
X3556660Y4698085D01*
X3554933Y4692904D01*
X3553714Y4687519D01*
X3553002Y4682083D01*
X3552901Y4676597D01*
X3553307Y4671161D01*
X3554272Y4665726D01*
X3555746Y4660493D01*
X3557727Y4655362D01*
X3560267Y4650486D01*
X3563213Y4645863D01*
X3566617Y4641596D01*
X3570478Y4637684D01*
X3574643Y4634128D01*
X3579215Y4631029D01*
X3583990Y4628438D01*
X3589070Y4626305D01*
X3594303Y4624679D01*
X3599687Y4623612D01*
X3605123Y4623054D01*
X3727856Y4623003D01*
X3733342Y4623257D01*
X3738778Y4624070D01*
X3744061Y4625441D01*
X3749243Y4627321D01*
X3754170Y4629708D01*
X3758844Y4632553D01*
X3763213Y4635855D01*
X3767226Y4639564D01*
X3770884Y4643678D01*
X3774084Y4648149D01*
X3776827Y4652873D01*
X3779062Y4657902D01*
X3780840Y4663084D01*
X3782060Y4668418D01*
X3782720Y4673854D01*
X3782872Y4679340D01*
X3782466Y4684826D01*
X3781501Y4690211D01*
X3780028Y4695494D01*
X3777996Y4700625D01*
X3775506Y4705502D01*
X3772509Y4710074D01*
X3769106Y4714392D01*
X3765296Y4718304D01*
X3761079Y4721809D01*
X3756558Y4724908D01*
X3751732Y4727549D01*
X3746703Y4729683D01*
X3741470Y4731308D01*
X3736086Y4732375D01*
X3730599Y4732934D01*
G37*
G36*
X3607866Y5596991D02*
G01*
X3602380Y5596737D01*
X3596995Y5595924D01*
X3591661Y5594553D01*
X3586530Y5592673D01*
X3581552Y5590286D01*
X3576878Y5587441D01*
X3572510Y5584139D01*
X3568496Y5580380D01*
X3564890Y5576265D01*
X3561689Y5571845D01*
X3558946Y5567070D01*
X3556660Y5562092D01*
X3554933Y5556910D01*
X3553714Y5551525D01*
X3553002Y5546090D01*
X3552901Y5540603D01*
X3553307Y5535168D01*
X3554272Y5529732D01*
X3555746Y5524449D01*
X3557727Y5519369D01*
X3560267Y5514492D01*
X3563213Y5509869D01*
X3566617Y5505602D01*
X3570478Y5501690D01*
X3574643Y5498134D01*
X3579215Y5495036D01*
X3583990Y5492445D01*
X3589070Y5490311D01*
X3594303Y5488686D01*
X3599687Y5487619D01*
X3605123Y5487060D01*
X3727856Y5487009D01*
X3733342Y5487263D01*
X3738778Y5488076D01*
X3744061Y5489448D01*
X3749243Y5491327D01*
X3754170Y5493664D01*
X3758844Y5496560D01*
X3763213Y5499862D01*
X3767226Y5503570D01*
X3770884Y5507685D01*
X3774084Y5512155D01*
X3776827Y5516880D01*
X3779062Y5521909D01*
X3780840Y5527090D01*
X3782060Y5532424D01*
X3782720Y5537860D01*
X3782872Y5543346D01*
X3782466Y5548833D01*
X3781501Y5554218D01*
X3780028Y5559501D01*
X3777996Y5564632D01*
X3775506Y5569508D01*
X3772509Y5574080D01*
X3769106Y5578398D01*
X3765296Y5582310D01*
X3761079Y5585815D01*
X3756558Y5588914D01*
X3751732Y5591556D01*
X3746703Y5593689D01*
X3741470Y5595315D01*
X3736086Y5596382D01*
X3730599Y5596940D01*
G37*
G36*
X2620010Y3614470D02*
G01*
X2614980Y3609492D01*
X2614980Y3529482D01*
X2620010Y3524504D01*
X2642768Y3524504D01*
X2642768Y3561486D01*
X2675788Y3561486D01*
X2675788Y3524504D01*
X2700020Y3524504D01*
X2704998Y3529482D01*
X2704998Y3609492D01*
X2700020Y3614470D01*
G37*
G36*
X2620010Y3455517D02*
G01*
X2614980Y3450488D01*
X2614980Y3370478D01*
X2620010Y3365500D01*
X2699969Y3365500D01*
X2704998Y3370478D01*
X2704998Y3450488D01*
X2699969Y3455517D01*
X2677210Y3455517D01*
X2677210Y3418484D01*
X2644190Y3418484D01*
X2644190Y3455517D01*
G37*
G36*
X2629509Y3804970D02*
G01*
X2624480Y3799992D01*
X2624480Y3777183D01*
X2661513Y3777183D01*
X2661513Y3744214D01*
X2624480Y3744214D01*
X2624480Y3719982D01*
X2629509Y3715004D01*
X2709519Y3715004D01*
X2714498Y3719982D01*
X2714498Y3799992D01*
X2709519Y3804970D01*
G37*
G36*
X2470505Y3804970D02*
G01*
X2465476Y3799992D01*
X2465476Y3719982D01*
X2470505Y3715004D01*
X2550515Y3715004D01*
X2555494Y3719982D01*
X2555494Y3742791D01*
X2518511Y3742791D01*
X2518511Y3775811D01*
X2555494Y3775811D01*
X2555494Y3799992D01*
X2550515Y3804970D01*
G37*
G36*
X2970022Y3614470D02*
G01*
X2964992Y3609492D01*
X2964992Y3529482D01*
X2970022Y3524504D01*
X2992780Y3524504D01*
X2992780Y3561486D01*
X3025800Y3561486D01*
X3025800Y3524504D01*
X3049981Y3524504D01*
X3055010Y3529482D01*
X3055010Y3609492D01*
X3049981Y3614470D01*
G37*
G36*
X2969971Y3455517D02*
G01*
X2964992Y3450488D01*
X2964992Y3370478D01*
X2969971Y3365500D01*
X3049981Y3365500D01*
X3055010Y3370478D01*
X3055010Y3450488D01*
X3049981Y3455517D01*
X3027172Y3455517D01*
X3027172Y3418484D01*
X2994202Y3418484D01*
X2994202Y3455517D01*
G37*
G36*
X2969514Y3804970D02*
G01*
X2964484Y3799992D01*
X2964484Y3777183D01*
X3001518Y3777183D01*
X3001518Y3744214D01*
X2964484Y3744214D01*
X2964484Y3719982D01*
X2969514Y3715004D01*
X3049473Y3715004D01*
X3054502Y3719982D01*
X3054502Y3799992D01*
X3049473Y3804970D01*
G37*
G36*
X2810510Y3804970D02*
G01*
X2805480Y3799992D01*
X2805480Y3719982D01*
X2810510Y3715004D01*
X2890469Y3715004D01*
X2895498Y3719982D01*
X2895498Y3742791D01*
X2858516Y3742791D01*
X2858516Y3775811D01*
X2895498Y3775811D01*
X2895498Y3799992D01*
X2890469Y3804970D01*
G37*
G36*
X2470505Y3995013D02*
G01*
X2465476Y3989984D01*
X2465476Y3909974D01*
X2470505Y3904996D01*
X2550515Y3904996D01*
X2555494Y3909974D01*
X2555494Y3932783D01*
X2518511Y3932783D01*
X2518511Y3965803D01*
X2555494Y3965803D01*
X2555494Y3989984D01*
X2550515Y3995013D01*
G37*
G36*
X2629509Y3995013D02*
G01*
X2624480Y3989984D01*
X2624480Y3967175D01*
X2661513Y3967175D01*
X2661513Y3934206D01*
X2624480Y3934206D01*
X2624480Y3909974D01*
X2629509Y3904996D01*
X2709519Y3904996D01*
X2714498Y3909974D01*
X2714498Y3989984D01*
X2709519Y3995013D01*
G37*
G36*
X2969514Y3995013D02*
G01*
X2964484Y3989984D01*
X2964484Y3967175D01*
X3001518Y3967175D01*
X3001518Y3934206D01*
X2964484Y3934206D01*
X2964484Y3909974D01*
X2969514Y3904996D01*
X3049473Y3904996D01*
X3054502Y3909974D01*
X3054502Y3989984D01*
X3049473Y3995013D01*
G37*
G36*
X2810510Y3995013D02*
G01*
X2805480Y3989984D01*
X2805480Y3909974D01*
X2810510Y3904996D01*
X2890469Y3904996D01*
X2895498Y3909974D01*
X2895498Y3932783D01*
X2858516Y3932783D01*
X2858516Y3965803D01*
X2895498Y3965803D01*
X2895498Y3989984D01*
X2890469Y3995013D01*
G37*
G36*
X280009Y5154472D02*
G01*
X274980Y5149494D01*
X274980Y5069484D01*
X280009Y5064506D01*
X302818Y5064506D01*
X302818Y5101488D01*
X335788Y5101488D01*
X335788Y5064506D01*
X360019Y5064506D01*
X364998Y5069484D01*
X364998Y5149494D01*
X360019Y5154472D01*
G37*
G36*
X280009Y4995468D02*
G01*
X274980Y4990490D01*
X274980Y4910480D01*
X280009Y4905502D01*
X360019Y4905502D01*
X364998Y4910480D01*
X364998Y4990490D01*
X360019Y4995468D01*
X337210Y4995468D01*
X337210Y4958486D01*
X304190Y4958486D01*
X304190Y4995468D01*
G37*
D10*
G01*
X2473274Y2229993D03*
G01*
X3126714Y2229993D03*
D11*
G01*
X2119985Y1869998D03*
G01*
X2259990Y1869998D03*
G01*
X580009Y3280003D03*
G01*
X440004Y3280003D03*
G01*
X119989Y4480001D03*
G01*
X259994Y4480001D03*
G01*
X119989Y5369991D03*
G01*
X259994Y5369991D03*
G01*
X119989Y5550001D03*
G01*
X259969Y5550001D03*
D12*
G01*
X450011Y2673502D03*
G01*
X450011Y3066491D03*
D13*
G01*
X2514904Y5454980D03*
G01*
X2514904Y5549976D03*
G01*
X2514904Y5644972D03*
G01*
X2285085Y5644972D03*
G01*
X2285085Y5549976D03*
G01*
X2285085Y5454980D03*
D14*
G01*
X1659991Y1602486D03*
G01*
X1659991Y1897506D03*
D15*
G01*
X795629Y1320010D03*
G01*
X795629Y1620009D03*
G36*
X617098Y1564980D02*
G01*
X621550Y1564873D01*
X625993Y1564561D01*
X630417Y1564040D01*
X634812Y1563314D01*
X639168Y1562379D01*
X643473Y1561244D01*
X647722Y1559907D01*
X651903Y1558373D01*
X656008Y1556644D01*
X660029Y1554726D01*
X663953Y1552620D01*
X667776Y1550332D01*
X671487Y1547868D01*
X675078Y1545234D01*
X678540Y1542435D01*
X681870Y1539473D01*
X685055Y1536362D01*
X688093Y1533103D01*
X690973Y1529707D01*
X693691Y1526179D01*
X696241Y1522526D01*
X698616Y1518759D01*
X700813Y1514883D01*
X702828Y1510911D01*
X704651Y1502981D01*
X874384Y1502981D01*
X874384Y1436982D01*
X704651Y1436982D01*
X702828Y1429047D01*
X700813Y1425074D01*
X698616Y1421198D01*
X696241Y1417431D01*
X693691Y1413779D01*
X690973Y1410251D01*
X688093Y1406855D01*
X685055Y1403596D01*
X681870Y1400484D01*
X678540Y1397523D01*
X675078Y1394724D01*
X671487Y1392090D01*
X667776Y1389626D01*
X663953Y1387337D01*
X660029Y1385232D01*
X656008Y1383314D01*
X651903Y1381584D01*
X647722Y1380050D01*
X643473Y1378714D01*
X639168Y1377579D01*
X634812Y1376644D01*
X630417Y1375918D01*
X625993Y1375397D01*
X621550Y1375084D01*
X617098Y1374978D01*
X431678Y1374978D01*
X427225Y1375084D01*
X422782Y1375397D01*
X418358Y1375918D01*
X413964Y1376644D01*
X409608Y1377579D01*
X405302Y1378714D01*
X401053Y1380050D01*
X396872Y1381584D01*
X392767Y1383314D01*
X388746Y1385232D01*
X384822Y1387337D01*
X381000Y1389626D01*
X377289Y1392090D01*
X373697Y1394724D01*
X370235Y1397523D01*
X366905Y1400484D01*
X363720Y1403596D01*
X360682Y1406855D01*
X357802Y1410251D01*
X355084Y1413779D01*
X352534Y1417431D01*
X350159Y1421198D01*
X347962Y1425074D01*
X345947Y1429047D01*
X344124Y1433111D01*
X342491Y1437253D01*
X341055Y1441470D01*
X339818Y1445750D01*
X338785Y1450083D01*
X337954Y1454457D01*
X337329Y1458869D01*
X336913Y1463304D01*
X336704Y1467751D01*
X336704Y1472206D01*
X336913Y1476654D01*
X337329Y1481089D01*
X337954Y1485501D01*
X338785Y1489875D01*
X339818Y1494208D01*
X341055Y1498488D01*
X342491Y1502704D01*
X344124Y1506847D01*
X345947Y1510911D01*
X347962Y1514883D01*
X350159Y1518759D01*
X352534Y1522526D01*
X355084Y1526179D01*
X357802Y1529707D01*
X360682Y1533103D01*
X363720Y1536362D01*
X366905Y1539473D01*
X370235Y1542435D01*
X373697Y1545234D01*
X377289Y1547868D01*
X381000Y1550332D01*
X384822Y1552620D01*
X388746Y1554726D01*
X392767Y1556644D01*
X396872Y1558373D01*
X401053Y1559907D01*
X405302Y1561244D01*
X409608Y1562379D01*
X413964Y1563314D01*
X418358Y1564040D01*
X422782Y1564561D01*
X427225Y1564873D01*
X431678Y1564980D01*
G37*
D16*
G01*
X480009Y5829985D03*
G01*
X480009Y5749975D03*
G01*
X480009Y5669991D03*
G01*
X480009Y5589981D03*
G01*
X480009Y5509996D03*
G01*
X480009Y5429986D03*
G01*
X480009Y5349976D03*
G01*
X480009Y5269992D03*
G01*
X480009Y5189981D03*
G01*
X480009Y5109997D03*
G01*
X480009Y5029987D03*
D17*
G01*
X589991Y4939995D03*
G01*
X670001Y4939995D03*
G01*
X750011Y4939995D03*
G01*
X829995Y4939995D03*
G01*
X910005Y4939995D03*
G01*
X989990Y4939995D03*
G01*
X1070000Y4939995D03*
G01*
X1149985Y4939995D03*
G01*
X1229995Y4939995D03*
G01*
X1310004Y4939995D03*
G01*
X1389989Y4939995D03*
G01*
X1469999Y4939995D03*
G01*
X1550009Y4939995D03*
D16*
G01*
X1659991Y5029987D03*
G01*
X1659991Y5109997D03*
G01*
X1659991Y5189981D03*
G01*
X1659991Y5269992D03*
G01*
X1659991Y5349976D03*
G01*
X1659991Y5429986D03*
G01*
X1659991Y5509996D03*
G01*
X1659991Y5589981D03*
G01*
X1659991Y5669991D03*
G01*
X1659991Y5749975D03*
G01*
X1659991Y5829985D03*
D17*
G01*
X1550009Y5919978D03*
G01*
X1469999Y5919978D03*
G01*
X1389989Y5919978D03*
G01*
X1310004Y5919978D03*
G01*
X1229995Y5919978D03*
G01*
X1149985Y5919978D03*
G01*
X1070000Y5919978D03*
G01*
X989990Y5919978D03*
G01*
X910005Y5919978D03*
G01*
X829995Y5919978D03*
G01*
X750011Y5919978D03*
G01*
X670001Y5919978D03*
G01*
X589991Y5919978D03*
D18*
G01*
X1664995Y5924981D03*
G01*
X1664995Y4934991D03*
G01*
X475005Y4934991D03*
G01*
X475005Y5924981D03*
D19*
G01*
X872484Y5627484D03*
D20*
G01*
X1267485Y5232476D03*
G01*
X1069975Y5232476D03*
G01*
X872489Y5232476D03*
G01*
X872489Y5429986D03*
G01*
X1069975Y5627471D03*
G01*
X1267485Y5627471D03*
G01*
X1267485Y5429986D03*
G01*
X1069975Y5429986D03*
D21*
G01*
X2579497Y1640484D03*
G01*
X2579497Y1513484D03*
G01*
X2579497Y1386484D03*
G01*
X2579497Y1259484D03*
G01*
X3120516Y1640484D03*
G01*
X3120516Y1513484D03*
G01*
X3120516Y1386484D03*
G01*
X3120516Y1259484D03*
D22*
G01*
X444972Y4349993D03*
G01*
X255023Y4349993D03*
G01*
X255021Y4089989D03*
G01*
X349935Y4089989D03*
G01*
X444967Y4089991D03*
D23*
G01*
X433936Y3559992D03*
G01*
X806061Y3559992D03*
D24*
G01*
X636061Y2139995D03*
G01*
X263936Y2139995D03*
D25*
G01*
X110007Y4759985D03*
G01*
X110007Y4899990D03*
D12*
G01*
X2040000Y3756482D03*
G01*
X2040000Y3363493D03*
D26*
G01*
X1705000Y4264990D03*
G01*
X1705000Y3415004D03*
G01*
X1255013Y4264990D03*
G01*
X1255013Y3415004D03*
M02*
