G04 Layer: BottomLayer*
G04 EasyEDA v6.5.50, 2025-07-26 22:59:10*
G04 d3ad3de2fa044d29b599307ff273c28a,5db155e37078497989a25cdeaf243bf5,10*
G04 Gerber Generator version 0.2*
G04 Scale: 100 percent, Rotated: No, Reflected: No *
G04 Dimensions in millimeters *
G04 leading zeros omitted , absolute positions ,4 integer and 5 decimal *
%FSLAX45Y45*%
%MOMM*%

%ADD10C,0.4000*%
%ADD11C,1.0000*%
%ADD12C,0.6200*%
%ADD13C,0.6000*%
%ADD14R,1.7000X1.7000*%
%ADD15C,1.7000*%
%ADD16O,2.1999956000000003X1.0999978000000001*%
%ADD17O,2.2999954X1.0999978000000001*%
%ADD18C,2.4000*%
%ADD19C,2.0000*%
%ADD20R,2.0000X2.0000*%
%ADD21C,0.6200*%
%ADD22C,0.8000*%
%ADD23C,0.0103*%

%LPD*%
G36*
X36068Y25908D02*
G01*
X32156Y26670D01*
X28905Y28905D01*
X26670Y32156D01*
X25908Y36068D01*
X25908Y5963920D01*
X26670Y5967831D01*
X28905Y5971082D01*
X32156Y5973318D01*
X36068Y5974080D01*
X3963924Y5974080D01*
X3967835Y5973318D01*
X3971086Y5971082D01*
X3973322Y5967831D01*
X3974084Y5963920D01*
X3974084Y36068D01*
X3973322Y32156D01*
X3971086Y28905D01*
X3967835Y26670D01*
X3963924Y25908D01*
G37*

%LPC*%
G36*
X737514Y324104D02*
G01*
X752652Y325018D01*
X767638Y327761D01*
X782116Y332282D01*
X795985Y338531D01*
X808990Y346405D01*
X820978Y355752D01*
X831748Y366522D01*
X841095Y378510D01*
X848969Y391515D01*
X855218Y405333D01*
X859739Y419862D01*
X862482Y434848D01*
X863396Y449986D01*
X862482Y465175D01*
X859739Y480110D01*
X855218Y494639D01*
X848969Y508508D01*
X841095Y521512D01*
X831748Y533501D01*
X820978Y544220D01*
X808990Y553618D01*
X795985Y561492D01*
X782116Y567690D01*
X767638Y572211D01*
X752652Y574954D01*
X737514Y575868D01*
X722325Y574954D01*
X707390Y572211D01*
X692861Y567690D01*
X678992Y561492D01*
X665988Y553618D01*
X653999Y544220D01*
X643280Y533501D01*
X633882Y521512D01*
X626008Y508508D01*
X619810Y494639D01*
X615289Y480110D01*
X612546Y465175D01*
X611632Y449986D01*
X612546Y434848D01*
X615289Y419862D01*
X619810Y405333D01*
X626008Y391515D01*
X633882Y378510D01*
X643280Y366522D01*
X653999Y355752D01*
X665988Y346405D01*
X678992Y338531D01*
X692861Y332282D01*
X707390Y327761D01*
X722325Y325018D01*
G37*
G36*
X1118514Y324104D02*
G01*
X1133652Y325018D01*
X1148638Y327761D01*
X1163116Y332282D01*
X1176985Y338531D01*
X1189990Y346405D01*
X1201978Y355752D01*
X1212748Y366522D01*
X1222095Y378510D01*
X1229969Y391515D01*
X1236218Y405333D01*
X1240739Y419862D01*
X1243482Y434848D01*
X1244396Y449986D01*
X1243482Y465175D01*
X1240739Y480110D01*
X1236218Y494639D01*
X1229969Y508508D01*
X1222095Y521512D01*
X1212748Y533501D01*
X1201978Y544220D01*
X1189990Y553618D01*
X1176985Y561492D01*
X1163116Y567690D01*
X1148638Y572211D01*
X1133652Y574954D01*
X1118514Y575868D01*
X1103325Y574954D01*
X1088390Y572211D01*
X1073861Y567690D01*
X1059992Y561492D01*
X1046987Y553618D01*
X1034999Y544220D01*
X1024280Y533501D01*
X1014882Y521512D01*
X1007008Y508508D01*
X1000810Y494639D01*
X996289Y480110D01*
X993546Y465175D01*
X992632Y449986D01*
X993546Y434848D01*
X996289Y419862D01*
X1000810Y405333D01*
X1007008Y391515D01*
X1014882Y378510D01*
X1024280Y366522D01*
X1034999Y355752D01*
X1046987Y346405D01*
X1059992Y338531D01*
X1073861Y332282D01*
X1088390Y327761D01*
X1103325Y325018D01*
G37*
G36*
X1880514Y324104D02*
G01*
X1895652Y325018D01*
X1910638Y327761D01*
X1925116Y332282D01*
X1938985Y338531D01*
X1951989Y346405D01*
X1963978Y355752D01*
X1974748Y366522D01*
X1984095Y378510D01*
X1991969Y391515D01*
X1998218Y405333D01*
X2002739Y419862D01*
X2005482Y434848D01*
X2006396Y449986D01*
X2005482Y465175D01*
X2002739Y480110D01*
X1998218Y494639D01*
X1991969Y508508D01*
X1984095Y521512D01*
X1974748Y533501D01*
X1963978Y544220D01*
X1951989Y553618D01*
X1938985Y561492D01*
X1925116Y567690D01*
X1910638Y572211D01*
X1895652Y574954D01*
X1880514Y575868D01*
X1865325Y574954D01*
X1850389Y572211D01*
X1835861Y567690D01*
X1821992Y561492D01*
X1808988Y553618D01*
X1796999Y544220D01*
X1786280Y533501D01*
X1776882Y521512D01*
X1769008Y508508D01*
X1762810Y494639D01*
X1758289Y480110D01*
X1755546Y465175D01*
X1754632Y449986D01*
X1755546Y434848D01*
X1758289Y419862D01*
X1762810Y405333D01*
X1769008Y391515D01*
X1776882Y378510D01*
X1786280Y366522D01*
X1796999Y355752D01*
X1808988Y346405D01*
X1821992Y338531D01*
X1835861Y332282D01*
X1850389Y327761D01*
X1865325Y325018D01*
G37*
G36*
X1499514Y324104D02*
G01*
X1514652Y325018D01*
X1529638Y327761D01*
X1544116Y332282D01*
X1557985Y338531D01*
X1570990Y346405D01*
X1582978Y355752D01*
X1593748Y366522D01*
X1603095Y378510D01*
X1610969Y391515D01*
X1617218Y405333D01*
X1621739Y419862D01*
X1624482Y434848D01*
X1625396Y449986D01*
X1624482Y465175D01*
X1621739Y480110D01*
X1617218Y494639D01*
X1610969Y508508D01*
X1603095Y521512D01*
X1593748Y533501D01*
X1582978Y544220D01*
X1570990Y553618D01*
X1557985Y561492D01*
X1544116Y567690D01*
X1529638Y572211D01*
X1514652Y574954D01*
X1499514Y575868D01*
X1484325Y574954D01*
X1469390Y572211D01*
X1454861Y567690D01*
X1440992Y561492D01*
X1427988Y553618D01*
X1415999Y544220D01*
X1405280Y533501D01*
X1395882Y521512D01*
X1388008Y508508D01*
X1381810Y494639D01*
X1377289Y480110D01*
X1374546Y465175D01*
X1373632Y449986D01*
X1374546Y434848D01*
X1377289Y419862D01*
X1381810Y405333D01*
X1388008Y391515D01*
X1395882Y378510D01*
X1405280Y366522D01*
X1415999Y355752D01*
X1427988Y346405D01*
X1440992Y338531D01*
X1454861Y332282D01*
X1469390Y327761D01*
X1484325Y325018D01*
G37*
G36*
X2317851Y337566D02*
G01*
X2319985Y338531D01*
X2332990Y346405D01*
X2344978Y355752D01*
X2355748Y366522D01*
X2365095Y378510D01*
X2372969Y391515D01*
X2373934Y393649D01*
X2317851Y393649D01*
G37*
G36*
X2698851Y337566D02*
G01*
X2700985Y338531D01*
X2713990Y346405D01*
X2725978Y355752D01*
X2736748Y366522D01*
X2746095Y378510D01*
X2753969Y391515D01*
X2754934Y393649D01*
X2698851Y393649D01*
G37*
G36*
X2205126Y337566D02*
G01*
X2205126Y393649D01*
X2149043Y393649D01*
X2150008Y391515D01*
X2157882Y378510D01*
X2167280Y366522D01*
X2177999Y355752D01*
X2189988Y346405D01*
X2202992Y338531D01*
G37*
G36*
X2586126Y337566D02*
G01*
X2586126Y393649D01*
X2530043Y393649D01*
X2531008Y391515D01*
X2538882Y378510D01*
X2548280Y366522D01*
X2558999Y355752D01*
X2570988Y346405D01*
X2583992Y338531D01*
G37*
G36*
X3299510Y434085D02*
G01*
X3314649Y435051D01*
X3329635Y437743D01*
X3344113Y442315D01*
X3357981Y448513D01*
X3370986Y456387D01*
X3382975Y465785D01*
X3393744Y476504D01*
X3403092Y488492D01*
X3410965Y501497D01*
X3417214Y515366D01*
X3421735Y529894D01*
X3424478Y544830D01*
X3425393Y560019D01*
X3424478Y575157D01*
X3421735Y590143D01*
X3417214Y604621D01*
X3410965Y618490D01*
X3403092Y631494D01*
X3393744Y643483D01*
X3382975Y654253D01*
X3370986Y663600D01*
X3357981Y671474D01*
X3344113Y677722D01*
X3329635Y682244D01*
X3314649Y684987D01*
X3299510Y685901D01*
X3284321Y684987D01*
X3269386Y682244D01*
X3254857Y677722D01*
X3240989Y671474D01*
X3227984Y663600D01*
X3215995Y654253D01*
X3205276Y643483D01*
X3195878Y631494D01*
X3188004Y618490D01*
X3181807Y604621D01*
X3177286Y590143D01*
X3174542Y575157D01*
X3173628Y560019D01*
X3174542Y544830D01*
X3177286Y529894D01*
X3181807Y515366D01*
X3188004Y501497D01*
X3195878Y488492D01*
X3205276Y476504D01*
X3215995Y465785D01*
X3227984Y456387D01*
X3240989Y448513D01*
X3254857Y442315D01*
X3269386Y437743D01*
X3284321Y435051D01*
G37*
G36*
X3581044Y434085D02*
G01*
X3779926Y434085D01*
X3786225Y434797D01*
X3791712Y436727D01*
X3796588Y439775D01*
X3800703Y443890D01*
X3803802Y448767D01*
X3805682Y454253D01*
X3806393Y460552D01*
X3806393Y659434D01*
X3805682Y665734D01*
X3803802Y671220D01*
X3800703Y676097D01*
X3796588Y680212D01*
X3791712Y683260D01*
X3786225Y685190D01*
X3779926Y685901D01*
X3581044Y685901D01*
X3574745Y685190D01*
X3569258Y683260D01*
X3564382Y680212D01*
X3560267Y676097D01*
X3557219Y671220D01*
X3555288Y665734D01*
X3554577Y659434D01*
X3554577Y460552D01*
X3555288Y454253D01*
X3557219Y448767D01*
X3560267Y443890D01*
X3564382Y439775D01*
X3569258Y436727D01*
X3574745Y434797D01*
G37*
G36*
X2530043Y506323D02*
G01*
X2586126Y506323D01*
X2586126Y562457D01*
X2583992Y561492D01*
X2570988Y553618D01*
X2558999Y544220D01*
X2548280Y533501D01*
X2538882Y521512D01*
X2531008Y508508D01*
G37*
G36*
X2149043Y506323D02*
G01*
X2205126Y506323D01*
X2205126Y562457D01*
X2202992Y561492D01*
X2189988Y553618D01*
X2177999Y544220D01*
X2167280Y533501D01*
X2157882Y521512D01*
X2150008Y508508D01*
G37*
G36*
X2317851Y506323D02*
G01*
X2373934Y506323D01*
X2372969Y508508D01*
X2365095Y521512D01*
X2355748Y533501D01*
X2344978Y544220D01*
X2332990Y553618D01*
X2319985Y561492D01*
X2317851Y562457D01*
G37*
G36*
X2698851Y506323D02*
G01*
X2754934Y506323D01*
X2753969Y508508D01*
X2746095Y521512D01*
X2736748Y533501D01*
X2725978Y544220D01*
X2713990Y553618D01*
X2700985Y561492D01*
X2698851Y562457D01*
G37*
G36*
X1622806Y924153D02*
G01*
X1634083Y925423D01*
X1645056Y928369D01*
X1655419Y932891D01*
X1665020Y938936D01*
X1673910Y946607D01*
X2525522Y1798269D01*
X2531160Y1805076D01*
X2537206Y1814728D01*
X2538323Y1816912D01*
X2541727Y1825142D01*
X2542489Y1827479D01*
X2544622Y1836064D01*
X2545029Y1838502D01*
X2545842Y1847342D01*
X2545892Y2374341D01*
X2546705Y2378252D01*
X2548890Y2381554D01*
X3475482Y3308197D01*
X3481171Y3315055D01*
X3482594Y3317087D01*
X3487165Y3324707D01*
X3488283Y3326892D01*
X3491687Y3335070D01*
X3492449Y3337407D01*
X3494582Y3346043D01*
X3494989Y3348482D01*
X3495852Y3357321D01*
X3495903Y3439617D01*
X3495040Y3451301D01*
X3492500Y3462375D01*
X3488334Y3472942D01*
X3482695Y3482695D01*
X3474618Y3492652D01*
X3465982Y3500323D01*
X3456228Y3506673D01*
X3445560Y3511448D01*
X3434638Y3514496D01*
X3425444Y3515715D01*
X3414115Y3515664D01*
X3411474Y3515410D01*
X3402939Y3513937D01*
X3400044Y3513226D01*
X3392119Y3510584D01*
X3389071Y3509314D01*
X3381908Y3505657D01*
X3378809Y3503777D01*
X3372561Y3499256D01*
X3369564Y3496716D01*
X3364280Y3491534D01*
X3361486Y3488334D01*
X3357219Y3482695D01*
X3354781Y3478834D01*
X3351580Y3472891D01*
X3349599Y3468420D01*
X3347465Y3462324D01*
X3346094Y3457295D01*
X3344926Y3451301D01*
X3344316Y3445814D01*
X3344062Y3439820D01*
X3344062Y3395624D01*
X3343300Y3391763D01*
X3341115Y3388461D01*
X2416505Y2463850D01*
X2411425Y2458262D01*
X2407310Y2452827D01*
X2402890Y2445461D01*
X2399588Y2438349D01*
X2397506Y2432456D01*
X2395423Y2424125D01*
X2394305Y2415743D01*
X2394102Y2409799D01*
X2394102Y1885645D01*
X2393340Y1881784D01*
X2391105Y1878482D01*
X1566468Y1053846D01*
X1561338Y1048207D01*
X1559001Y1045159D01*
X1554683Y1038656D01*
X1552956Y1035558D01*
X1549552Y1028242D01*
X1548384Y1025194D01*
X1546047Y1017117D01*
X1545437Y1014272D01*
X1544269Y1005636D01*
X1544320Y994003D01*
X1544523Y991768D01*
X1546707Y980338D01*
X1550416Y969670D01*
X1555750Y959612D01*
X1562506Y950468D01*
X1569466Y943406D01*
X1578762Y936294D01*
X1588922Y930757D01*
X1599895Y926846D01*
X1611274Y924610D01*
G37*
G36*
X1382420Y1413154D02*
G01*
X1391970Y1414424D01*
X1401216Y1417218D01*
X1409801Y1421587D01*
X1417574Y1427327D01*
X1424279Y1434287D01*
X1429664Y1442262D01*
X1433626Y1451051D01*
X1436065Y1460398D01*
X1436878Y1469999D01*
X1436065Y1479600D01*
X1433626Y1488948D01*
X1429664Y1497736D01*
X1427632Y1500733D01*
X1426311Y1503426D01*
X1425905Y1506423D01*
X1425854Y2981655D01*
X1424635Y2990392D01*
X1421942Y2998419D01*
X1417828Y3005836D01*
X1412138Y3012694D01*
X1118971Y3306114D01*
X1116787Y3309365D01*
X1116025Y3313277D01*
X1116025Y4753762D01*
X1116431Y4756708D01*
X1117752Y4759452D01*
X1119632Y4762246D01*
X1123645Y4771034D01*
X1126032Y4780381D01*
X1126896Y4789982D01*
X1126032Y4799584D01*
X1123645Y4808931D01*
X1119632Y4817719D01*
X1114247Y4825695D01*
X1107592Y4832654D01*
X1099820Y4838395D01*
X1091184Y4842764D01*
X1081989Y4845558D01*
X1072438Y4846828D01*
X1062786Y4846370D01*
X1053338Y4844338D01*
X1044397Y4840782D01*
X1036167Y4835702D01*
X1028953Y4829352D01*
X1022858Y4821834D01*
X1018184Y4813401D01*
X1014984Y4804308D01*
X1013358Y4794808D01*
X1013358Y4785156D01*
X1014984Y4775657D01*
X1018184Y4766564D01*
X1022908Y4758080D01*
X1023874Y4755692D01*
X1024178Y4753152D01*
X1024229Y3288334D01*
X1025448Y3279597D01*
X1028141Y3271570D01*
X1032256Y3264153D01*
X1037945Y3257296D01*
X1331112Y2963875D01*
X1333296Y2960624D01*
X1334058Y2956712D01*
X1334058Y1506626D01*
X1333754Y1504035D01*
X1332788Y1501648D01*
X1328166Y1493418D01*
X1324965Y1484325D01*
X1323340Y1474825D01*
X1323340Y1465173D01*
X1324965Y1455674D01*
X1328166Y1446580D01*
X1332890Y1438148D01*
X1338935Y1430629D01*
X1346200Y1424279D01*
X1354378Y1419199D01*
X1363370Y1415643D01*
X1372768Y1413611D01*
G37*
G36*
X839978Y2534107D02*
G01*
X856335Y2535021D01*
X872439Y2537764D01*
X888187Y2542286D01*
X903274Y2548534D01*
X917600Y2556459D01*
X930960Y2565908D01*
X943152Y2576830D01*
X954074Y2589022D01*
X963523Y2602382D01*
X971448Y2616708D01*
X977696Y2631795D01*
X982218Y2647543D01*
X984961Y2663647D01*
X985875Y2680004D01*
X984961Y2696311D01*
X982218Y2712466D01*
X977696Y2728163D01*
X971448Y2743301D01*
X963523Y2757627D01*
X954074Y2770936D01*
X943152Y2783179D01*
X930960Y2794050D01*
X917600Y2803499D01*
X903274Y2811424D01*
X888187Y2817723D01*
X872439Y2822244D01*
X856335Y2824988D01*
X839978Y2825902D01*
X823671Y2824988D01*
X807516Y2822244D01*
X791819Y2817723D01*
X776681Y2811424D01*
X762355Y2803499D01*
X749046Y2794050D01*
X736854Y2783179D01*
X725932Y2770936D01*
X716483Y2757627D01*
X708558Y2743301D01*
X702310Y2728163D01*
X697738Y2712466D01*
X695045Y2696311D01*
X694080Y2680004D01*
X695045Y2663647D01*
X697738Y2647543D01*
X702310Y2631795D01*
X708558Y2616708D01*
X716483Y2602382D01*
X725932Y2589022D01*
X736854Y2576830D01*
X749046Y2565908D01*
X762355Y2556459D01*
X776681Y2548534D01*
X791819Y2542286D01*
X807516Y2537764D01*
X823671Y2535021D01*
G37*
G36*
X2266340Y2550210D02*
G01*
X2277618Y2556459D01*
X2290978Y2565908D01*
X2303170Y2576830D01*
X2314041Y2589022D01*
X2323541Y2602382D01*
X2329738Y2613660D01*
X2266340Y2613660D01*
G37*
G36*
X2133650Y2550210D02*
G01*
X2133650Y2613660D01*
X2070252Y2613660D01*
X2076450Y2602382D01*
X2085949Y2589022D01*
X2096820Y2576830D01*
X2109012Y2565908D01*
X2122373Y2556459D01*
G37*
G36*
X3621125Y2695702D02*
G01*
X3621125Y2746146D01*
X3570681Y2746146D01*
X3575151Y2737510D01*
X3583279Y2725877D01*
X3592829Y2715361D01*
X3603650Y2706116D01*
X3615588Y2698394D01*
G37*
G36*
X3718864Y2695702D02*
G01*
X3724401Y2698394D01*
X3736340Y2706116D01*
X3747109Y2715361D01*
X3756710Y2725877D01*
X3764838Y2737510D01*
X3769309Y2746146D01*
X3718864Y2746146D01*
G37*
G36*
X2266340Y2746349D02*
G01*
X2329738Y2746349D01*
X2323541Y2757627D01*
X2314041Y2770936D01*
X2303170Y2783179D01*
X2290978Y2794050D01*
X2277618Y2803499D01*
X2266340Y2809748D01*
G37*
G36*
X2070252Y2746349D02*
G01*
X2133650Y2746349D01*
X2133650Y2809748D01*
X2122373Y2803499D01*
X2109012Y2794050D01*
X2096820Y2783179D01*
X2085949Y2770936D01*
X2076450Y2757627D01*
G37*
G36*
X3570579Y2843834D02*
G01*
X3621125Y2843834D01*
X3621125Y2894482D01*
X3609492Y2887929D01*
X3598113Y2879445D01*
X3587902Y2869539D01*
X3579063Y2858414D01*
X3571697Y2846273D01*
G37*
G36*
X3718864Y2843834D02*
G01*
X3769360Y2843834D01*
X3768293Y2846273D01*
X3760927Y2858414D01*
X3752087Y2869539D01*
X3741877Y2879445D01*
X3730498Y2887929D01*
X3718864Y2894482D01*
G37*
G36*
X3621125Y2949702D02*
G01*
X3621125Y3000146D01*
X3570681Y3000146D01*
X3575151Y2991510D01*
X3583279Y2979877D01*
X3592829Y2969361D01*
X3603650Y2960116D01*
X3615588Y2952394D01*
G37*
G36*
X3718864Y2949702D02*
G01*
X3724401Y2952394D01*
X3736340Y2960116D01*
X3747109Y2969361D01*
X3756710Y2979877D01*
X3764838Y2991510D01*
X3769309Y3000146D01*
X3718864Y3000146D01*
G37*
G36*
X3570579Y3097834D02*
G01*
X3621125Y3097834D01*
X3621125Y3148482D01*
X3609492Y3141929D01*
X3598113Y3133445D01*
X3587902Y3123539D01*
X3579063Y3112414D01*
X3571697Y3100273D01*
G37*
G36*
X3718864Y3097834D02*
G01*
X3769360Y3097834D01*
X3768293Y3100273D01*
X3760927Y3112414D01*
X3752087Y3123539D01*
X3741877Y3133445D01*
X3730498Y3141929D01*
X3718864Y3148482D01*
G37*
G36*
X3669995Y3192119D02*
G01*
X3684168Y3193034D01*
X3698138Y3195726D01*
X3711600Y3200196D01*
X3724401Y3206394D01*
X3736340Y3214116D01*
X3747109Y3223361D01*
X3756710Y3233877D01*
X3764838Y3245510D01*
X3771392Y3258108D01*
X3776319Y3271418D01*
X3779469Y3285286D01*
X3780840Y3299460D01*
X3780383Y3313633D01*
X3778097Y3327654D01*
X3774033Y3341268D01*
X3768293Y3354273D01*
X3760927Y3366414D01*
X3752087Y3377539D01*
X3741877Y3387445D01*
X3730498Y3395929D01*
X3718102Y3402888D01*
X3704945Y3408222D01*
X3691178Y3411829D01*
X3677107Y3413658D01*
X3662883Y3413658D01*
X3648811Y3411829D01*
X3635044Y3408222D01*
X3621887Y3402888D01*
X3609492Y3395929D01*
X3598113Y3387445D01*
X3587902Y3377539D01*
X3579063Y3366414D01*
X3571697Y3354273D01*
X3565906Y3341268D01*
X3561892Y3327654D01*
X3559606Y3313633D01*
X3559149Y3299460D01*
X3560521Y3285286D01*
X3563670Y3271418D01*
X3568598Y3258108D01*
X3575151Y3245510D01*
X3583279Y3233877D01*
X3592829Y3223361D01*
X3603650Y3214116D01*
X3615588Y3206394D01*
X3628390Y3200196D01*
X3641851Y3195726D01*
X3655822Y3193034D01*
G37*
G36*
X3669995Y3446119D02*
G01*
X3684168Y3447034D01*
X3698138Y3449726D01*
X3711600Y3454196D01*
X3724401Y3460394D01*
X3736340Y3468115D01*
X3747109Y3477361D01*
X3756710Y3487877D01*
X3764838Y3499510D01*
X3771392Y3512108D01*
X3776319Y3525418D01*
X3779469Y3539286D01*
X3780840Y3553460D01*
X3780383Y3567633D01*
X3778097Y3581654D01*
X3774033Y3595268D01*
X3768293Y3608273D01*
X3760927Y3620414D01*
X3752087Y3631539D01*
X3741877Y3641445D01*
X3730498Y3649929D01*
X3718102Y3656888D01*
X3704945Y3662222D01*
X3691178Y3665829D01*
X3677107Y3667658D01*
X3662883Y3667658D01*
X3648811Y3665829D01*
X3635044Y3662222D01*
X3621887Y3656888D01*
X3609492Y3649929D01*
X3598113Y3641445D01*
X3587902Y3631539D01*
X3579063Y3620414D01*
X3571697Y3608273D01*
X3565906Y3595268D01*
X3561892Y3581654D01*
X3559606Y3567633D01*
X3559149Y3553460D01*
X3560521Y3539286D01*
X3563670Y3525418D01*
X3568598Y3512108D01*
X3575151Y3499510D01*
X3583279Y3487877D01*
X3592829Y3477361D01*
X3603650Y3468115D01*
X3615588Y3460394D01*
X3628390Y3454196D01*
X3641851Y3449726D01*
X3655822Y3447034D01*
G37*
G36*
X3669995Y3700119D02*
G01*
X3684168Y3701034D01*
X3698138Y3703726D01*
X3711600Y3708196D01*
X3724401Y3714394D01*
X3736340Y3722115D01*
X3747109Y3731361D01*
X3756710Y3741877D01*
X3764838Y3753510D01*
X3771392Y3766108D01*
X3776319Y3779418D01*
X3779469Y3793286D01*
X3780840Y3807460D01*
X3780383Y3821633D01*
X3778097Y3835654D01*
X3774033Y3849268D01*
X3768293Y3862273D01*
X3760927Y3874414D01*
X3752087Y3885539D01*
X3741877Y3895445D01*
X3730498Y3903929D01*
X3718102Y3910888D01*
X3704945Y3916222D01*
X3691178Y3919829D01*
X3677107Y3921658D01*
X3662883Y3921658D01*
X3648811Y3919829D01*
X3635044Y3916222D01*
X3621887Y3910888D01*
X3609492Y3903929D01*
X3598113Y3895445D01*
X3587902Y3885539D01*
X3579063Y3874414D01*
X3571697Y3862273D01*
X3565906Y3849268D01*
X3561892Y3835654D01*
X3559606Y3821633D01*
X3559149Y3807460D01*
X3560521Y3793286D01*
X3563670Y3779418D01*
X3568598Y3766108D01*
X3575151Y3753510D01*
X3583279Y3741877D01*
X3592829Y3731361D01*
X3603650Y3722115D01*
X3615588Y3714394D01*
X3628390Y3708196D01*
X3641851Y3703726D01*
X3655822Y3701034D01*
G37*
G36*
X3585565Y3954068D02*
G01*
X3754424Y3954068D01*
X3760724Y3954779D01*
X3766210Y3956710D01*
X3771087Y3959809D01*
X3775201Y3963873D01*
X3778300Y3968800D01*
X3780180Y3974236D01*
X3780891Y3980586D01*
X3780891Y4149445D01*
X3780180Y4155744D01*
X3778300Y4161231D01*
X3775201Y4166108D01*
X3771087Y4170222D01*
X3766210Y4173270D01*
X3760724Y4175201D01*
X3754424Y4175912D01*
X3585565Y4175912D01*
X3579266Y4175201D01*
X3573779Y4173270D01*
X3568903Y4170222D01*
X3564788Y4166108D01*
X3561689Y4161231D01*
X3559810Y4155744D01*
X3559098Y4149445D01*
X3559098Y3980586D01*
X3559810Y3974236D01*
X3561689Y3968800D01*
X3564788Y3963873D01*
X3568903Y3959809D01*
X3573779Y3956710D01*
X3579266Y3954779D01*
G37*
G36*
X2042820Y4284167D02*
G01*
X2054098Y4285437D01*
X2065070Y4288383D01*
X2075434Y4292904D01*
X2085035Y4298950D01*
X2093925Y4306570D01*
X2235504Y4448251D01*
X2241194Y4455058D01*
X2242616Y4457090D01*
X2247188Y4464710D01*
X2248306Y4466894D01*
X2251710Y4475124D01*
X2252472Y4477461D01*
X2254605Y4486046D01*
X2255012Y4488484D01*
X2255875Y4497324D01*
X2255875Y5552643D01*
X2255012Y5561482D01*
X2254605Y5563920D01*
X2252472Y5572506D01*
X2251710Y5574893D01*
X2248306Y5583072D01*
X2247188Y5585307D01*
X2242616Y5592876D01*
X2241194Y5594908D01*
X2235504Y5601766D01*
X2168855Y5668467D01*
X2166670Y5671769D01*
X2165908Y5675630D01*
X2165908Y5694426D01*
X2166670Y5698286D01*
X2168855Y5701588D01*
X2218436Y5751169D01*
X2221738Y5753404D01*
X2225649Y5754166D01*
X2694330Y5754166D01*
X2698242Y5753404D01*
X2701544Y5751169D01*
X2971139Y5481574D01*
X2973374Y5478272D01*
X2974136Y5474360D01*
X2974136Y5385663D01*
X2973374Y5381752D01*
X2971139Y5378450D01*
X2804515Y5211775D01*
X2797454Y5202936D01*
X2792831Y5195316D01*
X2791714Y5193131D01*
X2787548Y5182565D01*
X2785414Y5173929D01*
X2785008Y5171490D01*
X2784195Y5162651D01*
X2784195Y5057292D01*
X2785008Y5048453D01*
X2785414Y5046014D01*
X2787548Y5037378D01*
X2791714Y5026812D01*
X2792831Y5024628D01*
X2797454Y5017008D01*
X2804515Y5008168D01*
X2916072Y4896561D01*
X2924962Y4888941D01*
X2934563Y4882896D01*
X2944926Y4878374D01*
X2955899Y4875428D01*
X2967177Y4874158D01*
X2978505Y4874564D01*
X2989630Y4876698D01*
X3000349Y4880406D01*
X3010357Y4885740D01*
X3019501Y4892446D01*
X3027527Y4900472D01*
X3034233Y4909616D01*
X3039567Y4919624D01*
X3043275Y4930343D01*
X3045409Y4941468D01*
X3045815Y4952796D01*
X3044545Y4964074D01*
X3041599Y4975047D01*
X3037078Y4985410D01*
X3031032Y4995011D01*
X3023412Y5003901D01*
X2938932Y5088382D01*
X2936748Y5091684D01*
X2935935Y5095595D01*
X2935935Y5124348D01*
X2936748Y5128260D01*
X2938932Y5131562D01*
X3105556Y5298236D01*
X3112617Y5307076D01*
X3117240Y5314696D01*
X3118358Y5316880D01*
X3121761Y5325110D01*
X3122523Y5327446D01*
X3124657Y5336082D01*
X3125063Y5338521D01*
X3125876Y5347360D01*
X3125927Y5475274D01*
X3126689Y5479186D01*
X3128924Y5482437D01*
X3132226Y5484672D01*
X3136087Y5485434D01*
X3139998Y5484672D01*
X3143300Y5482437D01*
X3144875Y5480862D01*
X3154121Y5473954D01*
X3164281Y5468416D01*
X3175101Y5464352D01*
X3186379Y5461914D01*
X3191510Y5461558D01*
X3191510Y5508142D01*
X3135579Y5508142D01*
X3131972Y5508802D01*
X3128822Y5510682D01*
X3126587Y5513527D01*
X3125470Y5517032D01*
X3124606Y5524144D01*
X3122523Y5532577D01*
X3121761Y5534914D01*
X3118358Y5543143D01*
X3117240Y5545328D01*
X3112617Y5552948D01*
X3107690Y5559196D01*
X3106267Y5561787D01*
X3103626Y5563768D01*
X2781757Y5885586D01*
X2772918Y5892647D01*
X2765298Y5897270D01*
X2763113Y5898388D01*
X2754884Y5901791D01*
X2752547Y5902553D01*
X2743911Y5904687D01*
X2741472Y5905093D01*
X2732633Y5905906D01*
X2187346Y5905906D01*
X2178507Y5905093D01*
X2176068Y5904687D01*
X2167432Y5902553D01*
X2165096Y5901791D01*
X2156866Y5898388D01*
X2154682Y5897270D01*
X2147062Y5892647D01*
X2138222Y5885586D01*
X2036368Y5783783D01*
X2028901Y5775096D01*
X2022805Y5765444D01*
X2018284Y5755030D01*
X2015337Y5744108D01*
X2014067Y5732678D01*
X2014118Y5637326D01*
X2014982Y5628487D01*
X2015388Y5626049D01*
X2017522Y5617413D01*
X2018284Y5615076D01*
X2021687Y5606897D01*
X2022805Y5604713D01*
X2027377Y5597093D01*
X2028799Y5595061D01*
X2034489Y5588203D01*
X2101138Y5521502D01*
X2103323Y5518200D01*
X2104085Y5514340D01*
X2104085Y4535627D01*
X2103323Y4531766D01*
X2101138Y4528464D01*
X1986483Y4413808D01*
X1981352Y4408220D01*
X1979015Y4405172D01*
X1974697Y4398670D01*
X1972970Y4395571D01*
X1969566Y4388205D01*
X1968398Y4385208D01*
X1966061Y4377131D01*
X1965452Y4374286D01*
X1964283Y4365599D01*
X1964334Y4353966D01*
X1964537Y4351782D01*
X1966722Y4340352D01*
X1970430Y4329633D01*
X1975764Y4319625D01*
X1982520Y4310430D01*
X1989480Y4303369D01*
X1998776Y4296308D01*
X2008936Y4290771D01*
X2019909Y4286808D01*
X2031288Y4284624D01*
G37*
G36*
X1252931Y4394149D02*
G01*
X1264462Y4395520D01*
X1275638Y4398568D01*
X1286256Y4403344D01*
X1296009Y4409643D01*
X1304696Y4417364D01*
X1312062Y4426356D01*
X1318006Y4436313D01*
X1322374Y4447082D01*
X1325016Y4458411D01*
X1325880Y4469993D01*
X1325016Y4481576D01*
X1322374Y4492904D01*
X1318006Y4503674D01*
X1312062Y4513630D01*
X1308252Y4518304D01*
X1306525Y4521301D01*
X1305915Y4524756D01*
X1305915Y4552645D01*
X1306677Y4556506D01*
X1308912Y4559808D01*
X1502410Y4753356D01*
X1507591Y4757318D01*
X1514246Y4764278D01*
X1519631Y4772253D01*
X1523644Y4781042D01*
X1526032Y4790389D01*
X1526895Y4799990D01*
X1526032Y4809591D01*
X1523644Y4818938D01*
X1519631Y4827727D01*
X1514246Y4835702D01*
X1507591Y4842662D01*
X1499819Y4848402D01*
X1491183Y4852771D01*
X1481988Y4855565D01*
X1472438Y4856835D01*
X1462786Y4856378D01*
X1453337Y4854346D01*
X1444396Y4850790D01*
X1436166Y4845710D01*
X1428953Y4839360D01*
X1422958Y4831994D01*
X1210614Y4619701D01*
X1207211Y4615942D01*
X1204214Y4612081D01*
X1201623Y4607966D01*
X1199337Y4603648D01*
X1197508Y4599127D01*
X1196035Y4594453D01*
X1194968Y4589729D01*
X1194308Y4584903D01*
X1194104Y4579772D01*
X1194104Y4525111D01*
X1193596Y4522012D01*
X1192225Y4519218D01*
X1184757Y4508754D01*
X1179626Y4498340D01*
X1176121Y4487265D01*
X1174343Y4475784D01*
X1174343Y4464202D01*
X1176121Y4452721D01*
X1179626Y4441647D01*
X1184808Y4431233D01*
X1191463Y4421733D01*
X1199540Y4413351D01*
X1208786Y4406290D01*
X1218946Y4400753D01*
X1229918Y4396841D01*
X1241298Y4394606D01*
G37*
G36*
X257352Y4554169D02*
G01*
X267919Y4554575D01*
X278333Y4556709D01*
X288239Y4560468D01*
X297434Y4565751D01*
X305612Y4572457D01*
X312674Y4580382D01*
X318312Y4589373D01*
X322478Y4599127D01*
X325018Y4609388D01*
X325882Y4619955D01*
X325018Y4630572D01*
X322478Y4640834D01*
X318312Y4650587D01*
X312674Y4659579D01*
X305612Y4667504D01*
X300634Y4671568D01*
X297891Y4675073D01*
X296926Y4679442D01*
X296926Y5039563D01*
X296113Y5049367D01*
X293776Y5058460D01*
X290017Y5067046D01*
X284835Y5075021D01*
X280009Y5080457D01*
X167690Y5192623D01*
X163017Y5196332D01*
X159918Y5198364D01*
X154940Y5201107D01*
X151282Y5202732D01*
X146202Y5204510D01*
X142036Y5205577D01*
X137007Y5206441D01*
X132435Y5206847D01*
X127660Y5206847D01*
X122732Y5206390D01*
X118364Y5205679D01*
X113283Y5204358D01*
X109372Y5203037D01*
X104343Y5200751D01*
X100939Y5198922D01*
X96113Y5195671D01*
X93319Y5193487D01*
X88849Y5189270D01*
X86664Y5186832D01*
X82804Y5181752D01*
X81178Y5179212D01*
X78079Y5173268D01*
X77063Y5170830D01*
X74879Y5164124D01*
X74371Y5161940D01*
X73152Y5152339D01*
X73558Y5142941D01*
X75488Y5133746D01*
X78892Y5125008D01*
X83718Y5116931D01*
X90068Y5109464D01*
X180136Y5019395D01*
X182321Y5016093D01*
X183083Y5012232D01*
X183083Y4640427D01*
X183896Y4630623D01*
X186232Y4621530D01*
X189992Y4612944D01*
X195580Y4604359D01*
X196697Y4602073D01*
X199390Y4594199D01*
X204317Y4584750D01*
X210667Y4576318D01*
X218338Y4568952D01*
X227075Y4562906D01*
X236626Y4558385D01*
X246837Y4555439D01*
G37*
G36*
X3604006Y4597349D02*
G01*
X3604006Y4644085D01*
X3534410Y4644085D01*
X3539845Y4634230D01*
X3546754Y4624984D01*
X3554882Y4616805D01*
X3564128Y4609896D01*
X3574287Y4604359D01*
X3585057Y4600346D01*
X3596335Y4597908D01*
G37*
G36*
X3731717Y4597349D02*
G01*
X3739387Y4597908D01*
X3750665Y4600346D01*
X3761486Y4604359D01*
X3771595Y4609896D01*
X3780840Y4616805D01*
X3788968Y4624984D01*
X3795928Y4634230D01*
X3801313Y4644085D01*
X3731717Y4644085D01*
G37*
G36*
X3314192Y4597552D02*
G01*
X3319373Y4597908D01*
X3330651Y4600346D01*
X3341471Y4604359D01*
X3351580Y4609896D01*
X3360826Y4616805D01*
X3369005Y4624984D01*
X3375914Y4634230D01*
X3381298Y4644085D01*
X3314192Y4644085D01*
G37*
G36*
X3191510Y4597552D02*
G01*
X3191510Y4644085D01*
X3124454Y4644085D01*
X3129838Y4634230D01*
X3136747Y4624984D01*
X3144875Y4616805D01*
X3154121Y4609896D01*
X3164281Y4604359D01*
X3175101Y4600346D01*
X3186379Y4597908D01*
G37*
G36*
X3124454Y4711801D02*
G01*
X3191510Y4711801D01*
X3191510Y4758385D01*
X3186379Y4758029D01*
X3175101Y4755540D01*
X3164281Y4751527D01*
X3154121Y4745990D01*
X3144875Y4739081D01*
X3136747Y4730902D01*
X3129838Y4721707D01*
G37*
G36*
X3731717Y4711801D02*
G01*
X3801313Y4711801D01*
X3795928Y4721656D01*
X3788968Y4730902D01*
X3780840Y4739081D01*
X3771595Y4745990D01*
X3761486Y4751527D01*
X3750665Y4755540D01*
X3739387Y4758029D01*
X3731717Y4758537D01*
G37*
G36*
X3534410Y4711801D02*
G01*
X3604006Y4711801D01*
X3604006Y4758537D01*
X3596335Y4758029D01*
X3585057Y4755540D01*
X3574287Y4751527D01*
X3564128Y4745990D01*
X3554882Y4739081D01*
X3546754Y4730902D01*
X3539845Y4721656D01*
G37*
G36*
X3314192Y4711801D02*
G01*
X3381298Y4711801D01*
X3375914Y4721707D01*
X3369005Y4730902D01*
X3360826Y4739081D01*
X3351580Y4745990D01*
X3341471Y4751527D01*
X3339592Y4752238D01*
X3336290Y4754270D01*
X3333953Y4757420D01*
X3332987Y4761179D01*
X3333546Y4765040D01*
X3335477Y4768443D01*
X3347465Y4777181D01*
X3354324Y4784344D01*
X3359861Y4792522D01*
X3363925Y4801565D01*
X3366465Y4811115D01*
X3367278Y4820970D01*
X3366465Y4830876D01*
X3363925Y4840427D01*
X3359861Y4849469D01*
X3354324Y4857648D01*
X3347465Y4864811D01*
X3339490Y4870704D01*
X3330651Y4875174D01*
X3321202Y4878070D01*
X3311398Y4879289D01*
X3301492Y4878882D01*
X3291840Y4876800D01*
X3282645Y4873091D01*
X3274212Y4867910D01*
X3266744Y4861407D01*
X3260547Y4853686D01*
X3255721Y4845050D01*
X3252419Y4835702D01*
X3250742Y4825949D01*
X3250742Y4816043D01*
X3252419Y4806289D01*
X3255721Y4796942D01*
X3260547Y4788306D01*
X3266744Y4780584D01*
X3274212Y4774082D01*
X3282645Y4768900D01*
X3291840Y4765192D01*
X3301492Y4763109D01*
X3304489Y4762957D01*
X3308248Y4762093D01*
X3311398Y4759858D01*
X3313480Y4756607D01*
X3314192Y4752797D01*
G37*
G36*
X1942439Y4903165D02*
G01*
X1951989Y4904384D01*
X1961184Y4907229D01*
X1969820Y4911547D01*
X1977593Y4917287D01*
X1984248Y4924247D01*
X1989632Y4932273D01*
X1993646Y4941062D01*
X1996033Y4950358D01*
X1996897Y4959959D01*
X1996033Y4969611D01*
X1993646Y4978908D01*
X1989632Y4987696D01*
X1984248Y4995722D01*
X1977593Y5002682D01*
X1969820Y5008422D01*
X1961184Y5012740D01*
X1951989Y5015585D01*
X1942439Y5016804D01*
X1932787Y5016398D01*
X1923338Y5014366D01*
X1914398Y5010759D01*
X1909114Y5007508D01*
X1906574Y5006390D01*
X1903831Y5006035D01*
X1823262Y5006035D01*
X1819402Y5006797D01*
X1816100Y5008981D01*
X1731213Y5093614D01*
X1724152Y5098948D01*
X1716582Y5102707D01*
X1708454Y5104993D01*
X1699564Y5105857D01*
X813206Y5105857D01*
X809294Y5106619D01*
X805992Y5108803D01*
X718921Y5196078D01*
X716737Y5199380D01*
X715975Y5203240D01*
X715924Y5351780D01*
X714705Y5360517D01*
X712012Y5368544D01*
X707898Y5375910D01*
X702157Y5382818D01*
X648208Y5436768D01*
X646582Y5438902D01*
X645566Y5441391D01*
X643636Y5448909D01*
X639622Y5457698D01*
X634238Y5465724D01*
X627583Y5472684D01*
X619810Y5478424D01*
X611174Y5482742D01*
X601980Y5485587D01*
X592429Y5486806D01*
X582777Y5486400D01*
X573328Y5484368D01*
X564388Y5480761D01*
X556158Y5475732D01*
X548944Y5469331D01*
X542848Y5461812D01*
X538175Y5453430D01*
X534974Y5444337D01*
X533349Y5434787D01*
X533349Y5425186D01*
X534974Y5415635D01*
X538175Y5406542D01*
X542848Y5398160D01*
X548944Y5390642D01*
X556158Y5384241D01*
X564388Y5379212D01*
X573328Y5375605D01*
X578307Y5374538D01*
X580999Y5373522D01*
X583336Y5371795D01*
X621182Y5333949D01*
X623366Y5330647D01*
X624128Y5326786D01*
X624179Y5178348D01*
X625398Y5169611D01*
X628091Y5161584D01*
X632206Y5154218D01*
X637895Y5147310D01*
X758748Y5026253D01*
X765810Y5020919D01*
X773379Y5017160D01*
X781507Y5014874D01*
X790397Y5014010D01*
X1676857Y5014010D01*
X1680718Y5013248D01*
X1684020Y5011064D01*
X1768906Y4926431D01*
X1775968Y4921097D01*
X1783537Y4917338D01*
X1791665Y4915052D01*
X1800555Y4914188D01*
X1903374Y4914188D01*
X1906168Y4913833D01*
X1908708Y4912715D01*
X1914398Y4909210D01*
X1923338Y4905603D01*
X1932787Y4903571D01*
G37*
G36*
X3311347Y5340654D02*
G01*
X3321151Y5341924D01*
X3330600Y5344820D01*
X3339439Y5349290D01*
X3347415Y5355132D01*
X3354273Y5362295D01*
X3359810Y5370525D01*
X3363874Y5379516D01*
X3366414Y5389118D01*
X3367227Y5398973D01*
X3366414Y5408828D01*
X3363874Y5418429D01*
X3359810Y5427421D01*
X3354273Y5435650D01*
X3347415Y5442813D01*
X3335528Y5451500D01*
X3333546Y5454904D01*
X3333038Y5458764D01*
X3333953Y5462524D01*
X3336290Y5465673D01*
X3339592Y5467705D01*
X3341471Y5468416D01*
X3351580Y5473954D01*
X3360826Y5480862D01*
X3369005Y5488990D01*
X3375914Y5498236D01*
X3381298Y5508142D01*
X3314192Y5508142D01*
X3314192Y5467146D01*
X3313480Y5463387D01*
X3311398Y5460136D01*
X3308248Y5457901D01*
X3304489Y5456986D01*
X3301441Y5456885D01*
X3291789Y5454802D01*
X3282594Y5451094D01*
X3274161Y5445912D01*
X3266694Y5439359D01*
X3260496Y5431637D01*
X3255670Y5423001D01*
X3252368Y5413705D01*
X3250692Y5403900D01*
X3250692Y5394045D01*
X3252368Y5384241D01*
X3255670Y5374944D01*
X3260496Y5366308D01*
X3266694Y5358587D01*
X3274161Y5352034D01*
X3282594Y5346852D01*
X3291789Y5343144D01*
X3301441Y5341061D01*
G37*
G36*
X3731717Y5461355D02*
G01*
X3739387Y5461914D01*
X3750665Y5464352D01*
X3761435Y5468416D01*
X3771595Y5473954D01*
X3780840Y5480862D01*
X3788968Y5488990D01*
X3795877Y5498236D01*
X3801313Y5508142D01*
X3731717Y5508142D01*
G37*
G36*
X3604006Y5461355D02*
G01*
X3604006Y5508142D01*
X3534410Y5508142D01*
X3539794Y5498236D01*
X3546754Y5488990D01*
X3554882Y5480862D01*
X3564128Y5473954D01*
X3574237Y5468416D01*
X3585057Y5464352D01*
X3596335Y5461914D01*
G37*
G36*
X3314192Y5575808D02*
G01*
X3381298Y5575808D01*
X3375914Y5585714D01*
X3369005Y5594959D01*
X3360826Y5603087D01*
X3351580Y5609996D01*
X3341471Y5615533D01*
X3330651Y5619597D01*
X3319373Y5622036D01*
X3314192Y5622391D01*
G37*
G36*
X3124454Y5575808D02*
G01*
X3191510Y5575808D01*
X3191510Y5622391D01*
X3186379Y5622036D01*
X3175101Y5619597D01*
X3164281Y5615533D01*
X3154121Y5609996D01*
X3144875Y5603087D01*
X3136747Y5594959D01*
X3129838Y5585714D01*
G37*
G36*
X3534410Y5575808D02*
G01*
X3604006Y5575808D01*
X3604006Y5622594D01*
X3596335Y5622036D01*
X3585057Y5619597D01*
X3574237Y5615533D01*
X3564128Y5609996D01*
X3554882Y5603087D01*
X3546754Y5594959D01*
X3539794Y5585714D01*
G37*
G36*
X3731717Y5575808D02*
G01*
X3801313Y5575808D01*
X3795877Y5585714D01*
X3788968Y5594959D01*
X3780840Y5603087D01*
X3771595Y5609996D01*
X3761435Y5615533D01*
X3750665Y5619597D01*
X3739387Y5622036D01*
X3731717Y5622594D01*
G37*

%LPD*%
D10*
X1070102Y4789931D02*
G01*
X1070102Y3290062D01*
X1379981Y2979928D01*
X1379981Y1469897D01*
D11*
X3050034Y5349999D02*
G01*
X2860042Y5160007D01*
X2860042Y5059931D01*
X2969996Y4949977D01*
X2089911Y5729986D02*
G01*
X2189988Y5830062D01*
X2729991Y5830062D01*
X3050031Y5510021D01*
X3050031Y5350002D01*
D12*
X129999Y5149989D02*
G01*
X239999Y5039989D01*
X239999Y4639990D01*
X259999Y4619990D01*
D11*
X2179995Y5549988D02*
G01*
X2089993Y5639991D01*
X2089993Y5729993D01*
X2180008Y5549973D02*
G01*
X2180008Y4499993D01*
X2040000Y4359986D01*
D13*
X1469994Y4799992D02*
G01*
X1250010Y4580008D01*
X1250010Y4469993D01*
D10*
X590042Y5430012D02*
G01*
X670052Y5350002D01*
X670052Y5180076D01*
X789939Y5059934D01*
X1700021Y5059934D01*
X1800097Y4960112D01*
X1940052Y4960112D01*
D11*
X2470000Y2410005D02*
G01*
X3419983Y3359985D01*
X3419983Y3439998D01*
X1619986Y999997D02*
G01*
X2470000Y1850011D01*
X2470000Y2410005D01*
D14*
G01*
X3669995Y4064990D03*
D15*
G01*
X3669995Y3810990D03*
G01*
X3669995Y3556990D03*
G01*
X3669995Y3302990D03*
G01*
X3669995Y3048990D03*
G01*
X3669995Y2794990D03*
D16*
G01*
X3252850Y4677994D03*
G01*
X3252850Y5541975D03*
D17*
G01*
X3667861Y5542000D03*
G01*
X3667861Y4677994D03*
D18*
G01*
X2200020Y2680004D03*
G01*
X840003Y2680004D03*
D19*
G01*
X1499514Y449986D03*
G01*
X2642514Y449986D03*
G01*
X2261514Y449986D03*
G01*
X1880514Y449986D03*
G01*
X1118514Y449986D03*
G01*
X737514Y449986D03*
G01*
X3299485Y559993D03*
D20*
G01*
X3680485Y559993D03*
D21*
G01*
X589991Y5429986D03*
G01*
X1070000Y4789982D03*
G01*
X1380007Y1469999D03*
D11*
G01*
X1619986Y999997D03*
G01*
X2469997Y2410002D03*
G01*
X3419983Y3439998D03*
G01*
X2040000Y4359986D03*
D21*
G01*
X2180005Y5549976D03*
G01*
X3049981Y5349976D03*
G01*
X2969996Y4949977D03*
G01*
X1940001Y4959985D03*
D11*
G01*
X2199995Y3029991D03*
G01*
X2199995Y2399995D03*
D21*
G01*
X350012Y3980002D03*
D11*
G01*
X3119983Y1140002D03*
G01*
X3429990Y2229993D03*
G01*
X119989Y2140000D03*
G01*
X950010Y3559987D03*
G01*
X470001Y4789982D03*
G01*
X1659991Y4789982D03*
G01*
X329996Y5919978D03*
G01*
X1810004Y5919978D03*
D21*
G01*
X2619984Y5549976D03*
G01*
X2850006Y3639997D03*
G01*
X2510002Y3649979D03*
G01*
X3369995Y4329988D03*
G01*
X3049981Y4789982D03*
G01*
X3039999Y5799988D03*
G01*
X3599992Y5889980D03*
G01*
X119989Y5689980D03*
G01*
X110007Y4619980D03*
G01*
X1129995Y1549984D03*
G01*
X2119985Y1999995D03*
G01*
X729995Y3280003D03*
G01*
X750011Y4799990D03*
D22*
G01*
X259994Y4619980D03*
D21*
G01*
X129997Y5149977D03*
G01*
X1469999Y4799990D03*
D11*
G01*
X1250010Y4469993D03*
G01*
X1529994Y4380001D03*
D21*
G01*
X2580004Y1159992D03*
M02*
