G04 Layer: TopLayer*
G04 EasyEDA v6.5.50, 2025-07-26 22:56:47*
G04 19dcf52f1c7e4662a813e58eb1d4b948,5db155e37078497989a25cdeaf243bf5,10*
G04 Gerber Generator version 0.2*
G04 Scale: 100 percent, Rotated: No, Reflected: No *
G04 Dimensions in millimeters *
G04 leading zeros omitted , absolute positions ,4 integer and 5 decimal *
%FSLAX45Y45*%
%MOMM*%

%AMMACRO1*21,1,$1,$2,0,0,$3*%
%AMMACRO2*4,1,5,-0.725,0.125,-0.125,0.725,0.725,0.725,0.725,-0.725,-0.725,-0.725,-0.725,0.125,0*%
%AMMACRO3*4,1,8,0.605,0.3,-0.605,0.3,-0.605,0,-0.605,0,-0.605,-0.3,0.605,-0.3,0.605,0,0.605,0,0.605,0.3,0*%
%ADD10C,0.2540*%
%ADD11C,0.4000*%
%ADD12C,1.0000*%
%ADD13C,0.6000*%
%ADD14C,0.6200*%
%ADD15MACRO1,0.864X0.8065X-90.0000*%
%ADD16R,4.2000X1.4000*%
%ADD17R,0.8000X0.9000*%
%ADD18R,1.6800X1.5200*%
%ADD19R,1.0720X0.5320*%
%ADD20R,4.2000X1.9500*%
%ADD21MACRO1,0.672X1.575X90.0000*%
%ADD22MACRO1,0.864X0.8065X90.0000*%
%ADD23MACRO1,0.864X0.8065X0.0000*%
%ADD24R,0.8640X0.8065*%
%ADD25R,0.8000X0.4000*%
%ADD26R,0.4000X0.8000*%
%ADD27R,0.7000X0.7000*%
%ADD28MACRO2*%
%ADD29R,1.4500X1.4500*%
%ADD30O,1.950212X0.5684012*%
%ADD31MACRO1,0.6223X1.1049X0.0000*%
%ADD32R,1.2100X0.3000*%
%ADD33MACRO3*%
%ADD34MACRO1,2.376X1.5063X-90.0000*%
%ADD35MACRO1,2.376X1.5063X90.0000*%
%ADD36R,0.9000X0.8000*%
%ADD37R,1.1000X2.5000*%
%ADD38R,1.7000X1.7000*%
%ADD39C,1.7000*%
%ADD40O,2.1999956000000003X1.0999978000000001*%
%ADD41O,2.2999954X1.0999978000000001*%
%ADD42C,2.4000*%
%ADD43C,2.0000*%
%ADD44R,2.0000X2.0000*%
%ADD45C,0.6200*%
%ADD46C,0.8000*%
%ADD47C,0.0182*%

%LPD*%
G36*
X290169Y5869990D02*
G01*
X286258Y5870752D01*
X282956Y5872988D01*
X280771Y5876239D01*
X280009Y5880150D01*
X280009Y5959805D01*
X280771Y5963716D01*
X282956Y5967018D01*
X286258Y5969203D01*
X290169Y5969965D01*
X403910Y5969965D01*
X407822Y5969203D01*
X411124Y5967018D01*
X413308Y5963716D01*
X414070Y5959805D01*
X414070Y5948832D01*
X451154Y5948832D01*
X451154Y5959805D01*
X451916Y5963716D01*
X454101Y5967018D01*
X457403Y5969203D01*
X461314Y5969965D01*
X488696Y5969965D01*
X492556Y5969203D01*
X495858Y5967018D01*
X498093Y5963716D01*
X498856Y5959805D01*
X498856Y5948832D01*
X546049Y5948832D01*
X549605Y5948172D01*
X552754Y5946343D01*
X573633Y5946343D01*
X573633Y5959805D01*
X574446Y5963716D01*
X576630Y5967018D01*
X579932Y5969203D01*
X583793Y5969965D01*
X596188Y5969965D01*
X600100Y5969203D01*
X603351Y5967018D01*
X605586Y5963716D01*
X606348Y5959805D01*
X606348Y5946343D01*
X653643Y5946343D01*
X653643Y5959805D01*
X654405Y5963716D01*
X656640Y5967018D01*
X659942Y5969203D01*
X663803Y5969965D01*
X676198Y5969965D01*
X680059Y5969203D01*
X683361Y5967018D01*
X685596Y5963716D01*
X686358Y5959805D01*
X686358Y5946343D01*
X733653Y5946343D01*
X733653Y5959805D01*
X734415Y5963716D01*
X736600Y5967018D01*
X739902Y5969203D01*
X743813Y5969965D01*
X756208Y5969965D01*
X760069Y5969203D01*
X763371Y5967018D01*
X765556Y5963716D01*
X766368Y5959805D01*
X766368Y5946343D01*
X813663Y5946343D01*
X813663Y5959805D01*
X814425Y5963716D01*
X816610Y5967018D01*
X819912Y5969203D01*
X823823Y5969965D01*
X836168Y5969965D01*
X840079Y5969203D01*
X843381Y5967018D01*
X845566Y5963716D01*
X846328Y5959805D01*
X846328Y5946343D01*
X893673Y5946343D01*
X893673Y5959805D01*
X894435Y5963716D01*
X896619Y5967018D01*
X899921Y5969203D01*
X903833Y5969965D01*
X916178Y5969965D01*
X920089Y5969203D01*
X923391Y5967018D01*
X925576Y5963716D01*
X926337Y5959805D01*
X926337Y5946343D01*
X973632Y5946343D01*
X973632Y5959805D01*
X974445Y5963716D01*
X976630Y5967018D01*
X979932Y5969203D01*
X983792Y5969965D01*
X996187Y5969965D01*
X1000099Y5969203D01*
X1003350Y5967018D01*
X1005586Y5963716D01*
X1006348Y5959805D01*
X1006348Y5946343D01*
X1053642Y5946343D01*
X1053642Y5959805D01*
X1054404Y5963716D01*
X1056640Y5967018D01*
X1059942Y5969203D01*
X1063802Y5969965D01*
X1076198Y5969965D01*
X1080058Y5969203D01*
X1083360Y5967018D01*
X1085596Y5963716D01*
X1086358Y5959805D01*
X1086358Y5946343D01*
X1133652Y5946343D01*
X1133652Y5959805D01*
X1134414Y5963716D01*
X1136599Y5967018D01*
X1139901Y5969203D01*
X1143812Y5969965D01*
X1156208Y5969965D01*
X1160068Y5969203D01*
X1163370Y5967018D01*
X1165555Y5963716D01*
X1166368Y5959805D01*
X1166368Y5946343D01*
X1213662Y5946343D01*
X1213662Y5959805D01*
X1214424Y5963716D01*
X1216609Y5967018D01*
X1219911Y5969203D01*
X1223822Y5969965D01*
X1236167Y5969965D01*
X1240078Y5969203D01*
X1243380Y5967018D01*
X1245565Y5963716D01*
X1246327Y5959805D01*
X1246327Y5946343D01*
X1293672Y5946343D01*
X1293672Y5959805D01*
X1294434Y5963716D01*
X1296619Y5967018D01*
X1299921Y5969203D01*
X1303832Y5969965D01*
X1316177Y5969965D01*
X1320088Y5969203D01*
X1323390Y5967018D01*
X1325575Y5963716D01*
X1326337Y5959805D01*
X1326337Y5946343D01*
X1373632Y5946343D01*
X1373632Y5959805D01*
X1374444Y5963716D01*
X1376629Y5967018D01*
X1379931Y5969203D01*
X1383792Y5969965D01*
X1396187Y5969965D01*
X1400098Y5969203D01*
X1403350Y5967018D01*
X1405585Y5963716D01*
X1406347Y5959805D01*
X1406347Y5946343D01*
X1453642Y5946343D01*
X1453642Y5959805D01*
X1454404Y5963716D01*
X1456639Y5967018D01*
X1459941Y5969203D01*
X1463802Y5969965D01*
X1476197Y5969965D01*
X1480058Y5969203D01*
X1483360Y5967018D01*
X1485595Y5963716D01*
X1486357Y5959805D01*
X1486357Y5946343D01*
X1533652Y5946343D01*
X1533652Y5959805D01*
X1534414Y5963716D01*
X1536598Y5967018D01*
X1539900Y5969203D01*
X1543812Y5969965D01*
X1556207Y5969965D01*
X1560068Y5969203D01*
X1563370Y5967018D01*
X1565554Y5963716D01*
X1566367Y5959805D01*
X1566367Y5946343D01*
X1587246Y5946343D01*
X1590344Y5948172D01*
X1593951Y5948832D01*
X1641144Y5948832D01*
X1641144Y5959805D01*
X1641906Y5963716D01*
X1644142Y5967018D01*
X1647443Y5969203D01*
X1651304Y5969965D01*
X1678686Y5969965D01*
X1682597Y5969203D01*
X1685848Y5967018D01*
X1688084Y5963716D01*
X1688846Y5959805D01*
X1688846Y5948832D01*
X1725930Y5948832D01*
X1725930Y5959805D01*
X1726692Y5963716D01*
X1728876Y5967018D01*
X1732178Y5969203D01*
X1736089Y5969965D01*
X1849831Y5969965D01*
X1853742Y5969203D01*
X1857044Y5967018D01*
X1859229Y5963716D01*
X1859991Y5959805D01*
X1859991Y5880150D01*
X1859229Y5876239D01*
X1857044Y5872988D01*
X1853742Y5870752D01*
X1849831Y5869990D01*
X1734515Y5869990D01*
X1730756Y5870702D01*
X1727504Y5872784D01*
X1725269Y5875934D01*
X1724355Y5879693D01*
X1725218Y5884214D01*
X1725930Y5890564D01*
X1725930Y5901131D01*
X1688846Y5901131D01*
X1688846Y5886043D01*
X1688084Y5882182D01*
X1685848Y5878880D01*
X1682597Y5876645D01*
X1678686Y5875883D01*
X1651304Y5875883D01*
X1647443Y5876645D01*
X1644142Y5878880D01*
X1641906Y5882182D01*
X1641144Y5886043D01*
X1641144Y5901131D01*
X1615846Y5901131D01*
X1613814Y5897270D01*
X1610360Y5894578D01*
X1606042Y5893612D01*
X1566367Y5893612D01*
X1566367Y5880150D01*
X1565554Y5876239D01*
X1563370Y5872988D01*
X1560068Y5870752D01*
X1556207Y5869990D01*
X1543812Y5869990D01*
X1539900Y5870752D01*
X1536598Y5872988D01*
X1534414Y5876239D01*
X1533652Y5880150D01*
X1533652Y5893612D01*
X1486357Y5893612D01*
X1486357Y5880150D01*
X1485595Y5876239D01*
X1483360Y5872988D01*
X1480058Y5870752D01*
X1476197Y5869990D01*
X1463802Y5869990D01*
X1459941Y5870752D01*
X1456639Y5872988D01*
X1454404Y5876239D01*
X1453642Y5880150D01*
X1453642Y5893612D01*
X1406347Y5893612D01*
X1406347Y5880150D01*
X1405585Y5876239D01*
X1403350Y5872988D01*
X1400098Y5870752D01*
X1396187Y5869990D01*
X1383792Y5869990D01*
X1379931Y5870752D01*
X1376629Y5872988D01*
X1374444Y5876239D01*
X1373632Y5880150D01*
X1373632Y5893612D01*
X1326337Y5893612D01*
X1326337Y5880150D01*
X1325575Y5876239D01*
X1323390Y5872988D01*
X1320088Y5870752D01*
X1316177Y5869990D01*
X1303832Y5869990D01*
X1299921Y5870752D01*
X1296619Y5872988D01*
X1294434Y5876239D01*
X1293672Y5880150D01*
X1293672Y5893612D01*
X1246327Y5893612D01*
X1246327Y5880150D01*
X1245565Y5876239D01*
X1243380Y5872988D01*
X1240078Y5870752D01*
X1236167Y5869990D01*
X1223822Y5869990D01*
X1219911Y5870752D01*
X1216609Y5872988D01*
X1214424Y5876239D01*
X1213662Y5880150D01*
X1213662Y5893612D01*
X1166368Y5893612D01*
X1166368Y5880150D01*
X1165555Y5876239D01*
X1163370Y5872988D01*
X1160068Y5870752D01*
X1156208Y5869990D01*
X1143812Y5869990D01*
X1139901Y5870752D01*
X1136599Y5872988D01*
X1134414Y5876239D01*
X1133652Y5880150D01*
X1133652Y5893612D01*
X1086358Y5893612D01*
X1086358Y5880150D01*
X1085596Y5876239D01*
X1083360Y5872988D01*
X1080058Y5870752D01*
X1076198Y5869990D01*
X1063802Y5869990D01*
X1059942Y5870752D01*
X1056640Y5872988D01*
X1054404Y5876239D01*
X1053642Y5880150D01*
X1053642Y5893612D01*
X1006348Y5893612D01*
X1006348Y5880150D01*
X1005586Y5876239D01*
X1003350Y5872988D01*
X1000099Y5870752D01*
X996187Y5869990D01*
X983792Y5869990D01*
X979932Y5870752D01*
X976630Y5872988D01*
X974445Y5876239D01*
X973632Y5880150D01*
X973632Y5893612D01*
X926337Y5893612D01*
X926337Y5880150D01*
X925576Y5876239D01*
X923391Y5872988D01*
X920089Y5870752D01*
X916178Y5869990D01*
X903833Y5869990D01*
X899921Y5870752D01*
X896619Y5872988D01*
X894435Y5876239D01*
X893673Y5880150D01*
X893673Y5893612D01*
X846328Y5893612D01*
X846328Y5880150D01*
X845566Y5876239D01*
X843381Y5872988D01*
X840079Y5870752D01*
X836168Y5869990D01*
X823823Y5869990D01*
X819912Y5870752D01*
X816610Y5872988D01*
X814425Y5876239D01*
X813663Y5880150D01*
X813663Y5893612D01*
X766368Y5893612D01*
X766368Y5880150D01*
X765556Y5876239D01*
X763371Y5872988D01*
X760069Y5870752D01*
X756208Y5869990D01*
X743813Y5869990D01*
X739902Y5870752D01*
X736600Y5872988D01*
X734415Y5876239D01*
X733653Y5880150D01*
X733653Y5893612D01*
X686358Y5893612D01*
X686358Y5880150D01*
X685596Y5876239D01*
X683361Y5872988D01*
X680059Y5870752D01*
X676198Y5869990D01*
X663803Y5869990D01*
X659942Y5870752D01*
X656640Y5872988D01*
X654405Y5876239D01*
X653643Y5880150D01*
X653643Y5893612D01*
X606348Y5893612D01*
X606348Y5880150D01*
X605586Y5876239D01*
X603351Y5872988D01*
X600100Y5870752D01*
X596188Y5869990D01*
X583793Y5869990D01*
X579932Y5870752D01*
X576630Y5872988D01*
X574446Y5876239D01*
X573633Y5880150D01*
X573633Y5893612D01*
X533908Y5893612D01*
X529640Y5894578D01*
X526135Y5897270D01*
X524103Y5901131D01*
X498856Y5901131D01*
X498856Y5895848D01*
X502716Y5893816D01*
X505409Y5890361D01*
X506374Y5886043D01*
X506374Y5880150D01*
X505561Y5876239D01*
X503377Y5872988D01*
X500075Y5870752D01*
X496214Y5869990D01*
X461314Y5869990D01*
X457403Y5870752D01*
X454101Y5872988D01*
X451916Y5876239D01*
X451154Y5880150D01*
X451154Y5901131D01*
X414070Y5901131D01*
X414070Y5890564D01*
X415594Y5879693D01*
X414731Y5875934D01*
X412496Y5872784D01*
X409244Y5870702D01*
X405485Y5869990D01*
G37*

%LPD*%
G36*
X840028Y5160010D02*
G01*
X836168Y5160772D01*
X832866Y5162956D01*
X830630Y5166258D01*
X829868Y5170170D01*
X829868Y5189880D01*
X810158Y5189880D01*
X806246Y5190642D01*
X802995Y5192877D01*
X800760Y5196128D01*
X799998Y5200040D01*
X799998Y5264912D01*
X800760Y5268823D01*
X802995Y5272125D01*
X806246Y5274310D01*
X810158Y5275072D01*
X829868Y5275072D01*
X829868Y5387390D01*
X810158Y5387390D01*
X806246Y5388152D01*
X802995Y5390337D01*
X800760Y5393639D01*
X799998Y5397550D01*
X799998Y5462422D01*
X800760Y5466334D01*
X802995Y5469585D01*
X806246Y5471820D01*
X810158Y5472582D01*
X829868Y5472582D01*
X829868Y5584901D01*
X810158Y5584901D01*
X806246Y5585663D01*
X802995Y5587847D01*
X800760Y5591149D01*
X799998Y5595061D01*
X799998Y5659932D01*
X800760Y5663793D01*
X802995Y5667095D01*
X806246Y5669330D01*
X810158Y5670092D01*
X829868Y5670092D01*
X829868Y5689803D01*
X830681Y5693714D01*
X832866Y5697016D01*
X836168Y5699201D01*
X840028Y5699963D01*
X904900Y5699963D01*
X908812Y5699201D01*
X912114Y5697016D01*
X914298Y5693714D01*
X915060Y5689803D01*
X915060Y5670092D01*
X1027379Y5670092D01*
X1027379Y5689803D01*
X1028141Y5693714D01*
X1030376Y5697016D01*
X1033678Y5699201D01*
X1037539Y5699963D01*
X1102410Y5699963D01*
X1106322Y5699201D01*
X1109624Y5697016D01*
X1111808Y5693714D01*
X1112570Y5689803D01*
X1112570Y5670092D01*
X1224889Y5670092D01*
X1224889Y5689803D01*
X1225651Y5693714D01*
X1227886Y5697016D01*
X1231138Y5699201D01*
X1235049Y5699963D01*
X1299921Y5699963D01*
X1303832Y5699201D01*
X1307134Y5697016D01*
X1309319Y5693714D01*
X1310081Y5689803D01*
X1310081Y5670092D01*
X1329842Y5670092D01*
X1333703Y5669330D01*
X1337005Y5667095D01*
X1339240Y5663793D01*
X1340002Y5659932D01*
X1340002Y5595061D01*
X1339240Y5591149D01*
X1337005Y5587847D01*
X1333703Y5585663D01*
X1329842Y5584901D01*
X1310081Y5584901D01*
X1310081Y5472582D01*
X1329842Y5472582D01*
X1333703Y5471820D01*
X1337005Y5469585D01*
X1339240Y5466334D01*
X1340002Y5462422D01*
X1340002Y5397550D01*
X1339240Y5393639D01*
X1337005Y5390337D01*
X1333703Y5388152D01*
X1329842Y5387390D01*
X1310081Y5387390D01*
X1310081Y5275072D01*
X1329842Y5275072D01*
X1333703Y5274310D01*
X1337005Y5272125D01*
X1339240Y5268823D01*
X1340002Y5264912D01*
X1340002Y5200040D01*
X1339240Y5196128D01*
X1337005Y5192877D01*
X1333703Y5190642D01*
X1329842Y5189880D01*
X1310081Y5189880D01*
X1310081Y5170170D01*
X1309319Y5166258D01*
X1307134Y5162956D01*
X1303832Y5160772D01*
X1299921Y5160010D01*
X1235049Y5160010D01*
X1231138Y5160772D01*
X1227886Y5162956D01*
X1225651Y5166258D01*
X1224889Y5170170D01*
X1224889Y5189880D01*
X1112570Y5189880D01*
X1112570Y5170170D01*
X1111808Y5166258D01*
X1109624Y5162956D01*
X1106322Y5160772D01*
X1102410Y5160010D01*
X1037539Y5160010D01*
X1033678Y5160772D01*
X1030376Y5162956D01*
X1028141Y5166258D01*
X1027379Y5170170D01*
X1027379Y5189880D01*
X915060Y5189880D01*
X915060Y5170170D01*
X914298Y5166258D01*
X912114Y5162956D01*
X908812Y5160772D01*
X904900Y5160010D01*
G37*

%LPC*%
G36*
X915060Y5275072D02*
G01*
X1027379Y5275072D01*
X1027379Y5387390D01*
X915060Y5387390D01*
G37*
G36*
X1112570Y5275072D02*
G01*
X1224889Y5275072D01*
X1224889Y5387390D01*
X1112570Y5387390D01*
G37*
G36*
X1112570Y5472582D02*
G01*
X1224889Y5472582D01*
X1224889Y5584901D01*
X1112570Y5584901D01*
G37*
G36*
X915060Y5472582D02*
G01*
X1027379Y5472582D01*
X1027379Y5584901D01*
X915060Y5584901D01*
G37*

%LPD*%
D10*
X1125626Y1160018D02*
G01*
X1140259Y1174650D01*
X1380009Y1174650D01*
D11*
X589998Y5429989D02*
G01*
X480006Y5429989D01*
X1069997Y4789990D02*
G01*
X1069997Y4939997D01*
X1379997Y1469997D02*
G01*
X1379997Y1325333D01*
X1939998Y4959987D02*
G01*
X2334638Y4959987D01*
X2774645Y4519980D01*
X3054659Y4339996D02*
G01*
X2954629Y4339996D01*
X2774645Y4519980D01*
D12*
X1118514Y449986D02*
G01*
X1118514Y498528D01*
X1619989Y1000000D01*
X1619986Y999997D02*
G01*
X1879986Y1259997D01*
X2409997Y1259997D01*
D13*
X2579370Y1259586D02*
G01*
X2409952Y1260094D01*
X2579484Y1386497D02*
G01*
X2575984Y1389997D01*
X2399995Y1389997D01*
X2579370Y1513586D02*
G01*
X2579370Y1519936D01*
X2400045Y1519936D01*
X2579370Y1640586D02*
G01*
X2420111Y1640078D01*
D12*
X2259998Y1869996D02*
G01*
X2473281Y2083280D01*
X2473281Y2229985D01*
X2473281Y2229985D02*
G01*
X2469995Y2233272D01*
X2469995Y2409995D01*
X737514Y449986D02*
G01*
X854384Y566856D01*
X854384Y1309971D01*
X854387Y1309971D02*
G01*
X854387Y1509064D01*
X1030005Y1684682D01*
X1030008Y1835330D02*
G01*
X1164661Y1835330D01*
X1397505Y1602486D01*
X1659991Y1602486D01*
X1659991Y1897484D02*
G01*
X1372511Y1897484D01*
X840003Y2429992D01*
X840003Y2680004D01*
X1029995Y1835330D02*
G01*
X754664Y1835330D01*
X636066Y1953928D01*
X636066Y2383929D01*
X450011Y2569984D01*
X450011Y2673502D01*
D13*
X255023Y4089991D02*
G01*
X249999Y4084967D01*
X249999Y3936052D01*
X350012Y4089907D02*
G01*
X350012Y3979926D01*
D11*
X480060Y5670042D02*
G01*
X400050Y5670042D01*
D12*
X450011Y3066491D02*
G01*
X433933Y3082571D01*
X433933Y3559987D01*
X433933Y3559987D02*
G01*
X433933Y3752118D01*
X249999Y3936050D01*
D13*
X445007Y4089907D02*
G01*
X443992Y3742181D01*
D12*
X2259998Y1869996D02*
G01*
X2259995Y1709996D01*
X2329914Y1640078D01*
X2420111Y1640078D01*
X1659889Y1602486D02*
G01*
X1857502Y1602486D01*
X2070100Y1389887D01*
X2400045Y1389887D01*
X2119995Y1599996D02*
G01*
X2199995Y1519996D01*
X2399995Y1519996D01*
X1659991Y1897481D02*
G01*
X1822508Y1897481D01*
X2119995Y1599994D01*
D11*
X3049981Y5349976D02*
G01*
X3192343Y5349976D01*
X3192350Y5349968D01*
X2659989Y3565321D02*
G01*
X2665326Y3570658D01*
X2665326Y3759987D01*
D12*
X3120504Y1640497D02*
G01*
X3120504Y1259497D01*
X3119881Y1139952D02*
G01*
X3120390Y1259586D01*
X3429993Y2229995D02*
G01*
X3126696Y2229985D01*
X119999Y2139995D02*
G01*
X263933Y2140003D01*
X2200026Y2680004D02*
G01*
X2200026Y3029960D01*
X2199995Y3029991D01*
X2199995Y2399995D02*
G01*
X2200026Y2400025D01*
X2200026Y2680004D01*
X949998Y3559992D02*
G01*
X806069Y3559997D01*
D11*
X480006Y5029989D02*
G01*
X475002Y5024986D01*
X475002Y4934993D01*
D13*
X2619994Y5549988D02*
G01*
X2514904Y5549988D01*
X2179995Y5549988D02*
G01*
X2285085Y5549988D01*
D11*
X3670045Y4065015D02*
G01*
X3480308Y4065015D01*
X3205225Y4340097D01*
D12*
X3419983Y3439998D02*
G01*
X3419983Y3560965D01*
X3670002Y3810985D01*
D13*
X2849994Y3639992D02*
G01*
X2854657Y3644656D01*
X2854657Y3759992D01*
X2514658Y3759992D02*
G01*
X2509994Y3755329D01*
X2509994Y3649992D01*
X2925330Y4519990D02*
G01*
X3039993Y4519990D01*
X3479993Y4334654D02*
G01*
X3475329Y4329991D01*
X3369993Y4329991D01*
X3192350Y4789975D02*
G01*
X3049993Y4789990D01*
D11*
X2969996Y4949977D02*
G01*
X3049988Y4869985D01*
X3192350Y4869985D01*
D13*
X3192018Y5430012D02*
G01*
X3089909Y5430012D01*
X3039872Y5480050D01*
X3039872Y5690107D01*
X3039872Y5690107D02*
G01*
X3039872Y5800089D01*
X3599992Y5889988D02*
G01*
X3595329Y5885324D01*
X3479993Y5885324D01*
X480006Y5749978D02*
G01*
X475002Y5754982D01*
X475002Y5924984D01*
X1129995Y1549984D02*
G01*
X1125636Y1545625D01*
X1125636Y1460009D01*
X2119995Y1999995D02*
G01*
X2119993Y1869996D01*
X579991Y3279988D02*
G01*
X729998Y3279993D01*
X1664990Y4934991D02*
G01*
X1659991Y4929992D01*
X1659991Y4789982D01*
D12*
X1069997Y5919980D02*
G01*
X1069997Y5627474D01*
D10*
X3192277Y5184899D02*
G01*
X3074926Y5184899D01*
X2614846Y5644984D01*
X2514904Y5644984D01*
X3192350Y5034958D02*
G01*
X3124045Y5034958D01*
X3024045Y5134957D01*
X3192272Y5085079D02*
G01*
X3264915Y5085079D01*
X3299968Y5119878D01*
X3299968Y5150104D01*
X3264915Y5184902D01*
X3192272Y5184902D01*
X1659889Y5189981D02*
G01*
X1720087Y5189981D01*
X2175002Y5644895D01*
X2284984Y5644895D01*
X3192272Y5284978D02*
G01*
X3385058Y5284978D01*
X3480054Y5379973D01*
X3480054Y5734557D01*
X3192350Y4984973D02*
G01*
X3385009Y4984973D01*
X3480003Y4889980D01*
X3480003Y4485335D01*
D13*
X255023Y4349986D02*
G01*
X259994Y4354956D01*
X259994Y4479975D01*
X110009Y4619978D02*
G01*
X110009Y4489980D01*
X120014Y4479975D01*
D11*
X750008Y4939997D02*
G01*
X749998Y4799990D01*
D13*
X475002Y4934991D02*
G01*
X470001Y4929990D01*
X470001Y4789982D01*
D11*
X3010001Y3414648D02*
G01*
X3010001Y3089986D01*
X3680495Y2419492D01*
X3680495Y559996D01*
X2659989Y3414648D02*
G01*
X2659989Y3300006D01*
X3579997Y2379997D01*
X3579997Y1209997D01*
X3299495Y929500D01*
X3299495Y559996D01*
D13*
X110009Y4899992D02*
G01*
X315340Y5105323D01*
X319989Y5105323D01*
X109999Y4759987D02*
G01*
X109999Y4619990D01*
X259999Y4619990D02*
G01*
X259986Y4479978D01*
X259996Y4619990D02*
G01*
X319989Y4679983D01*
X319989Y4954651D01*
X319989Y5105323D02*
G01*
X319989Y5239999D01*
X336115Y5256126D01*
D11*
X336118Y5269992D02*
G01*
X480009Y5269992D01*
D14*
X259996Y5369991D02*
G01*
X259996Y5549999D01*
X259994Y5550001D01*
X380034Y5670042D01*
X400050Y5670042D01*
X130047Y5149850D02*
G01*
X130047Y5199887D01*
X260095Y5329936D01*
X260095Y5370068D01*
D11*
X2514650Y3949979D02*
G01*
X2514650Y4435294D01*
X2430015Y4519929D01*
X1350007Y4519929D01*
X1150112Y4720084D01*
X1150112Y4940045D01*
X2665323Y3759987D02*
G01*
X2665326Y3759989D01*
X2665326Y3949979D01*
X2854706Y3949954D02*
G01*
X2854706Y4205223D01*
X2459990Y4599939D01*
X2183129Y4599939D01*
X1370076Y4599939D01*
X1229868Y4739894D01*
X1229868Y4940045D01*
X3009900Y3565397D02*
G01*
X3005327Y3569970D01*
X3005327Y3664712D01*
X3005327Y3759962D01*
X3005327Y3759987D02*
G01*
X3005327Y3949974D01*
X3005322Y3949979D01*
D14*
X119999Y5689988D02*
G01*
X120007Y5549991D01*
D13*
X120014Y5550001D02*
G01*
X120014Y5369994D01*
X120017Y5369991D01*
D11*
X1469999Y4939995D02*
G01*
X1469999Y4819990D01*
D12*
X450087Y3066542D02*
G01*
X556511Y2960115D01*
X770130Y2960115D01*
X1000008Y3189993D01*
X1866501Y3189993D01*
X2040000Y3363493D01*
X2039995Y4359991D02*
G01*
X2039874Y4359910D01*
X2039874Y3756405D01*
D13*
X1255011Y4264992D02*
G01*
X1255011Y4464992D01*
X1250010Y4469993D01*
X1255003Y4264985D02*
G01*
X1255003Y3414999D01*
X1529994Y4380001D02*
G01*
X1704987Y4205008D01*
X1704990Y3414999D01*
D10*
X1659889Y5109971D02*
G01*
X1700021Y5109971D01*
X2044954Y5454904D01*
X2284984Y5454904D01*
X3192350Y5134960D02*
G01*
X3025018Y5134960D01*
X2704998Y5454980D01*
X2514904Y5454980D01*
D15*
G01*
X2774669Y4519990D03*
G01*
X2925319Y4519990D03*
D16*
G01*
X2473274Y2229993D03*
G01*
X3126714Y2229993D03*
D17*
G01*
X2119985Y1869998D03*
G01*
X2259990Y1869998D03*
G01*
X580009Y3280003D03*
G01*
X440004Y3280003D03*
G01*
X119989Y4480001D03*
G01*
X259994Y4480001D03*
G01*
X119989Y5369991D03*
G01*
X259994Y5369991D03*
G01*
X119989Y5550001D03*
G01*
X259969Y5550001D03*
D18*
G01*
X450011Y2673502D03*
G01*
X450011Y3066491D03*
D19*
G01*
X2514904Y5454980D03*
G01*
X2514904Y5549976D03*
G01*
X2514904Y5644972D03*
G01*
X2285085Y5644972D03*
G01*
X2285085Y5549976D03*
G01*
X2285085Y5454980D03*
D20*
G01*
X1659991Y1602486D03*
G01*
X1659991Y1897506D03*
D21*
G01*
X1125628Y1160010D03*
G01*
X1125628Y1460009D03*
G36*
X761677Y1404980D02*
G01*
X947097Y1404980D01*
X951550Y1404873D01*
X955992Y1404561D01*
X960417Y1404040D01*
X964811Y1403314D01*
X969167Y1402379D01*
X973472Y1401244D01*
X977722Y1399908D01*
X981903Y1398374D01*
X986007Y1396644D01*
X990028Y1394726D01*
X993952Y1392621D01*
X997775Y1390332D01*
X1001486Y1387868D01*
X1005078Y1385234D01*
X1008540Y1382435D01*
X1011869Y1379473D01*
X1015055Y1376362D01*
X1018092Y1373103D01*
X1020973Y1369707D01*
X1023691Y1366179D01*
X1026241Y1362527D01*
X1028616Y1358760D01*
X1030813Y1354884D01*
X1032827Y1350911D01*
X1034651Y1342981D01*
X1204384Y1342981D01*
X1204384Y1276982D01*
X1034651Y1276982D01*
X1032827Y1269047D01*
X1030813Y1265074D01*
X1028616Y1261198D01*
X1026241Y1257432D01*
X1023691Y1253779D01*
X1020973Y1250251D01*
X1018092Y1246855D01*
X1015055Y1243596D01*
X1011869Y1240485D01*
X1008540Y1237523D01*
X1005078Y1234724D01*
X1001486Y1232090D01*
X997775Y1229626D01*
X993952Y1227338D01*
X990028Y1225232D01*
X986007Y1223314D01*
X981903Y1221585D01*
X977722Y1220050D01*
X973472Y1218714D01*
X969167Y1217579D01*
X964811Y1216644D01*
X960417Y1215918D01*
X955992Y1215397D01*
X951550Y1215085D01*
X947097Y1214978D01*
X761677Y1214978D01*
X757224Y1215085D01*
X752782Y1215397D01*
X748357Y1215918D01*
X743963Y1216644D01*
X739607Y1217579D01*
X735302Y1218714D01*
X731052Y1220050D01*
X726871Y1221585D01*
X722767Y1223314D01*
X718746Y1225232D01*
X714822Y1227338D01*
X710999Y1229626D01*
X707288Y1232090D01*
X703696Y1234724D01*
X700234Y1237523D01*
X696904Y1240485D01*
X693719Y1243596D01*
X690681Y1246855D01*
X687801Y1250251D01*
X685083Y1253779D01*
X682533Y1257432D01*
X680158Y1261198D01*
X677961Y1265074D01*
X675947Y1269047D01*
X674123Y1273111D01*
X672490Y1277254D01*
X671055Y1281470D01*
X669818Y1285750D01*
X668784Y1290083D01*
X667953Y1294457D01*
X667329Y1298869D01*
X666912Y1303304D01*
X666704Y1307752D01*
X666704Y1312207D01*
X666912Y1316654D01*
X667329Y1321089D01*
X667953Y1325501D01*
X668784Y1329875D01*
X669818Y1334208D01*
X671055Y1338488D01*
X672490Y1342704D01*
X674123Y1346847D01*
X675947Y1350911D01*
X677961Y1354884D01*
X680158Y1358760D01*
X682533Y1362527D01*
X685083Y1366179D01*
X687801Y1369707D01*
X690681Y1373103D01*
X693719Y1376362D01*
X696904Y1379473D01*
X700234Y1382435D01*
X703696Y1385234D01*
X707288Y1387868D01*
X710999Y1390332D01*
X714822Y1392621D01*
X718746Y1394726D01*
X722767Y1396644D01*
X726871Y1398374D01*
X731052Y1399908D01*
X735302Y1401244D01*
X739607Y1402379D01*
X743963Y1403314D01*
X748357Y1404040D01*
X752782Y1404561D01*
X757224Y1404873D01*
X761677Y1404980D01*
G37*
D22*
G01*
X3205318Y4339991D03*
G01*
X3054668Y4339991D03*
D23*
G01*
X1029997Y1684671D03*
D24*
G01*
X1029995Y1835327D03*
D23*
G01*
X1379997Y1325322D03*
D24*
G01*
X1380007Y1174673D03*
D23*
G01*
X3479993Y4485316D03*
D24*
G01*
X3480003Y4334662D03*
D23*
G01*
X3479993Y5885313D03*
D24*
G01*
X3480003Y5734659D03*
D25*
G01*
X480009Y5829985D03*
G01*
X480009Y5749975D03*
G01*
X480009Y5669991D03*
G01*
X480009Y5589981D03*
G01*
X480009Y5509996D03*
G01*
X480009Y5429986D03*
G01*
X480009Y5349976D03*
G01*
X480009Y5269992D03*
G01*
X480009Y5189981D03*
G01*
X480009Y5109997D03*
G01*
X480009Y5029987D03*
D26*
G01*
X589991Y4939995D03*
G01*
X670001Y4939995D03*
G01*
X750011Y4939995D03*
G01*
X829995Y4939995D03*
G01*
X910005Y4939995D03*
G01*
X989990Y4939995D03*
G01*
X1070000Y4939995D03*
G01*
X1149985Y4939995D03*
G01*
X1229995Y4939995D03*
G01*
X1310004Y4939995D03*
G01*
X1389989Y4939995D03*
G01*
X1469999Y4939995D03*
G01*
X1550009Y4939995D03*
D25*
G01*
X1659991Y5029987D03*
G01*
X1659991Y5109997D03*
G01*
X1659991Y5189981D03*
G01*
X1659991Y5269992D03*
G01*
X1659991Y5349976D03*
G01*
X1659991Y5429986D03*
G01*
X1659991Y5509996D03*
G01*
X1659991Y5589981D03*
G01*
X1659991Y5669991D03*
G01*
X1659991Y5749975D03*
G01*
X1659991Y5829985D03*
D26*
G01*
X1550009Y5919978D03*
G01*
X1469999Y5919978D03*
G01*
X1389989Y5919978D03*
G01*
X1310004Y5919978D03*
G01*
X1229995Y5919978D03*
G01*
X1149985Y5919978D03*
G01*
X1070000Y5919978D03*
G01*
X989990Y5919978D03*
G01*
X910005Y5919978D03*
G01*
X829995Y5919978D03*
G01*
X750011Y5919978D03*
G01*
X670001Y5919978D03*
G01*
X589991Y5919978D03*
D27*
G01*
X1664995Y5924981D03*
G01*
X1664995Y4934991D03*
G01*
X475005Y4934991D03*
G01*
X475005Y5924981D03*
D28*
G01*
X872484Y5627484D03*
D29*
G01*
X1267485Y5232476D03*
G01*
X1069975Y5232476D03*
G01*
X872489Y5232476D03*
G01*
X872489Y5429986D03*
G01*
X1069975Y5627471D03*
G01*
X1267485Y5627471D03*
G01*
X1267485Y5429986D03*
G01*
X1069975Y5429986D03*
D30*
G01*
X2579497Y1640484D03*
G01*
X2579497Y1513484D03*
G01*
X2579497Y1386484D03*
G01*
X2579497Y1259484D03*
G01*
X3120516Y1640484D03*
G01*
X3120516Y1513484D03*
G01*
X3120516Y1386484D03*
G01*
X3120516Y1259484D03*
D31*
G01*
X444972Y4349993D03*
G01*
X255023Y4349993D03*
G01*
X255021Y4089989D03*
G01*
X349935Y4089989D03*
G01*
X444967Y4089991D03*
D32*
G01*
X3192373Y5284978D03*
G01*
X3192373Y5234939D03*
G01*
X3192373Y5184978D03*
G01*
X3192373Y5134965D03*
G01*
X3192373Y5084978D03*
G01*
X3192373Y5034965D03*
G01*
X3192373Y4984978D03*
G01*
X3192373Y4934965D03*
D33*
G01*
X3192360Y4789963D03*
G01*
X3192360Y4869973D03*
G01*
X3192362Y5349958D03*
G01*
X3192114Y5429985D03*
D34*
G01*
X433936Y3559992D03*
G01*
X806061Y3559992D03*
D35*
G01*
X636061Y2139995D03*
G01*
X263936Y2139995D03*
D23*
G01*
X2659994Y3565317D03*
D24*
G01*
X2659989Y3414674D03*
D22*
G01*
X2665319Y3759992D03*
G01*
X2514669Y3759992D03*
D23*
G01*
X3009993Y3565317D03*
D24*
G01*
X3010001Y3414674D03*
D22*
G01*
X3005319Y3759992D03*
G01*
X2854669Y3759992D03*
D15*
G01*
X2514669Y3949992D03*
G01*
X2665319Y3949992D03*
D22*
G01*
X3005319Y3949992D03*
G01*
X2854669Y3949992D03*
D36*
G01*
X110007Y4759985D03*
G01*
X110007Y4899990D03*
D18*
G01*
X2040000Y3756482D03*
G01*
X2040000Y3363493D03*
D23*
G01*
X319999Y5105314D03*
D24*
G01*
X319989Y4954676D03*
D37*
G01*
X1705000Y4264990D03*
G01*
X1705000Y3415004D03*
G01*
X1255013Y4264990D03*
G01*
X1255013Y3415004D03*
D38*
G01*
X3669995Y4064990D03*
D39*
G01*
X3669995Y3810990D03*
G01*
X3669995Y3556990D03*
G01*
X3669995Y3302990D03*
G01*
X3669995Y3048990D03*
G01*
X3669995Y2794990D03*
D40*
G01*
X3252850Y4677994D03*
G01*
X3252850Y5541975D03*
D41*
G01*
X3667861Y5542000D03*
G01*
X3667861Y4677994D03*
D42*
G01*
X2200020Y2680004D03*
G01*
X840003Y2680004D03*
D43*
G01*
X1499514Y449986D03*
G01*
X2642514Y449986D03*
G01*
X2261514Y449986D03*
G01*
X1880514Y449986D03*
G01*
X1118514Y449986D03*
G01*
X737514Y449986D03*
G01*
X3299485Y559993D03*
D44*
G01*
X3680485Y559993D03*
D45*
G01*
X589991Y5429986D03*
G01*
X1070000Y4789982D03*
G01*
X1380007Y1469999D03*
D12*
G01*
X1619986Y999997D03*
G01*
X2469997Y2410002D03*
G01*
X3419983Y3439998D03*
G01*
X2040000Y4359986D03*
D45*
G01*
X2180005Y5549976D03*
G01*
X3049981Y5349976D03*
G01*
X2969996Y4949977D03*
G01*
X1940001Y4959985D03*
D12*
G01*
X2199995Y3029991D03*
G01*
X2199995Y2399995D03*
D45*
G01*
X350012Y3980002D03*
D12*
G01*
X3119983Y1140002D03*
G01*
X3429990Y2229993D03*
G01*
X119989Y2140000D03*
G01*
X950010Y3559987D03*
G01*
X470001Y4789982D03*
G01*
X1659991Y4789982D03*
G01*
X329996Y5919978D03*
G01*
X1810004Y5919978D03*
D45*
G01*
X2619984Y5549976D03*
G01*
X2850006Y3639997D03*
G01*
X2510002Y3649979D03*
G01*
X3039999Y4519980D03*
G01*
X3369995Y4329988D03*
G01*
X3049981Y4789982D03*
G01*
X3039999Y5799988D03*
G01*
X3599992Y5889980D03*
G01*
X119989Y5689980D03*
G01*
X110007Y4619980D03*
G01*
X1129995Y1549984D03*
G01*
X2119985Y1999995D03*
G01*
X729995Y3280003D03*
G01*
X750011Y4799990D03*
D46*
G01*
X259994Y4619980D03*
D45*
G01*
X129997Y5149977D03*
G01*
X1469999Y4799990D03*
D12*
G01*
X1250010Y4469993D03*
G01*
X1529994Y4380001D03*
M02*
